G04 start of page 8 for group -4062 idx -4062 *
G04 Title: (unknown), soldermask *
G04 Creator: pcb 4.0.2 *
G04 CreationDate: Wed Apr 29 00:27:18 2020 UTC *
G04 For: ndholmes *
G04 Format: Gerber/RS-274X *
G04 PCB-Dimensions (mil): 1500.00 3900.00 *
G04 PCB-Coordinate-Origin: lower left *
%MOIN*%
%FSLAX25Y25*%
%LNBOTTOMMASK*%
%ADD55C,0.0490*%
%ADD54C,0.0740*%
%ADD53C,0.0860*%
%ADD52C,0.0001*%
%ADD51C,0.2997*%
G54D51*X133000Y373000D03*
X17000D03*
G54D52*G36*
X72027Y370855D02*Y362255D01*
X80627D01*
Y370855D01*
X72027D01*
G37*
G54D53*X62547Y366555D03*
X48768D03*
G54D51*X133500Y16000D03*
X17000Y17000D03*
G54D52*G36*
X45800Y49200D02*Y41800D01*
X53200D01*
Y49200D01*
X45800D01*
G37*
G54D54*X9500Y45500D03*
G54D52*G36*
X21873Y94245D02*Y85645D01*
X30473D01*
Y94245D01*
X21873D01*
G37*
G54D53*X26173Y76165D03*
Y62386D03*
G54D52*G36*
X45800Y339700D02*Y332300D01*
X53200D01*
Y339700D01*
X45800D01*
G37*
G54D54*X9500Y336000D03*
G54D52*G36*
X21873Y323245D02*Y314645D01*
X30473D01*
Y323245D01*
X21873D01*
G37*
G36*
X45800Y278200D02*Y270800D01*
X53200D01*
Y278200D01*
X45800D01*
G37*
G54D54*X9500Y274500D03*
G54D53*X26173Y305165D03*
Y291386D03*
G54D52*G36*
X45800Y263200D02*Y255800D01*
X53200D01*
Y263200D01*
X45800D01*
G37*
G54D54*X9500Y259500D03*
G54D52*G36*
X21873Y246745D02*Y238145D01*
X30473D01*
Y246745D01*
X21873D01*
G37*
G54D55*X91500Y257000D03*
X95500Y237000D03*
X87500D03*
G54D53*X26173Y214886D03*
G54D52*G36*
X21873Y170745D02*Y162145D01*
X30473D01*
Y170745D01*
X21873D01*
G37*
G54D53*X26173Y152665D03*
Y138886D03*
Y228665D03*
G54D52*G36*
X45800Y201200D02*Y193800D01*
X53200D01*
Y201200D01*
X45800D01*
G37*
G54D54*X9500Y197500D03*
G54D52*G36*
X45800Y187200D02*Y179800D01*
X53200D01*
Y187200D01*
X45800D01*
G37*
G54D54*X9500Y183500D03*
G54D52*G36*
X45800Y125700D02*Y118300D01*
X53200D01*
Y125700D01*
X45800D01*
G37*
G54D54*X9500Y122000D03*
G54D52*G36*
X45800Y110700D02*Y103300D01*
X53200D01*
Y110700D01*
X45800D01*
G37*
G54D54*X9500Y107000D03*
M02*
