M48
INCH
T42C0.015
T41C0.038
T40C0.047
T39C0.129
%
T42
X004050Y030250
X004050Y022600
X004050Y015000
X004050Y007350
X005100Y032200
X005100Y017250
X005150Y024550
X005750Y008650
X005850Y004750
X005850Y004300
X006000Y030100
X006000Y014750
X006300Y023400
X006600Y030100
X006750Y014750
X006800Y023750
X007050Y027650
X007050Y025750
X007050Y012400
X007050Y010500
X007250Y008650
X007800Y016500
X008050Y024000
X008100Y012150
X008100Y011750
X008150Y029000
X008400Y025000
X008400Y024400
X008400Y017900
X008650Y029000
X008800Y022000
X008900Y020300
X008900Y019900
X009100Y029000
X009150Y023400
X009200Y022000
X009200Y015400
X009600Y029000
X009600Y022000
X009600Y015400
X009700Y024450
X009840Y020120
X009840Y019760
X009850Y019400
X009850Y016150
X009850Y015750
X010150Y022750
X010150Y022400
X010150Y022000
X010600Y020700
X010850Y024450
X011000Y020400
X011200Y021350
X011200Y016400
X011200Y008550
X011450Y019750
X011450Y018450
X011500Y024550
X011500Y018000
X011500Y011750
X011650Y034100
X011650Y033700
X011650Y033300
X011650Y032900
X011650Y032500
X011650Y032100
X011650Y031700
X011800Y013150
X012050Y034100
X012050Y033700
X012050Y033300
X012050Y032900
X012050Y032500
X012050Y032100
X012050Y031700
X012450Y034100
X012450Y033700
X012450Y032100
X012450Y031700
X012450Y028550
X012450Y027750
X012450Y024550
X012450Y021350
X012450Y018150
X012450Y013150
X012450Y011750
X012450Y008550
X012500Y015950
X012750Y026550
X012750Y023350
X012750Y020150
X012750Y016950
X012750Y013750
X012750Y010550
X012750Y007350
X012750Y004150
X012850Y034100
X012850Y033700
X012850Y032100
X013200Y026550
X013200Y023350
X013200Y020150
X013200Y016950
X013200Y013750
X013200Y010550
X013200Y007350
X013200Y004150
X013800Y029450
X013800Y027350
X013800Y024150
X013800Y020950
X013800Y017750
X013800Y014550
X013800Y011350
X013800Y008150
X013800Y004950
X014000Y029800
X014300Y030100
X014350Y031850
T41
X000950Y033600
X000950Y027450
X000950Y025950
X000950Y019750
X000950Y018350
X000950Y012200
X000950Y010700
X000950Y004550
X004950Y033600
X004950Y027450
X004950Y025950
X004950Y019750
X004950Y018350
X004950Y012200
X004950Y010700
X004950Y004550
T40
X002617Y031894
X002617Y030516
X002617Y029139
X002617Y024244
X002617Y022866
X002617Y021489
X002617Y016644
X002617Y015266
X002617Y013889
X002617Y008994
X002617Y007616
X002617Y006239
X004877Y036656
X006255Y036656
X007633Y036656
T39
X001700Y037300
X001700Y001700
X013300Y037300
X013350Y001600
M30
