G04 start of page 9 for group -4079 idx -4079 *
G04 Title: (unknown), topsilk *
G04 Creator: pcb 4.0.2 *
G04 CreationDate: Wed Apr 29 00:27:18 2020 UTC *
G04 For: ndholmes *
G04 Format: Gerber/RS-274X *
G04 PCB-Dimensions (mil): 1500.00 3900.00 *
G04 PCB-Coordinate-Origin: lower left *
%MOIN*%
%FSLAX25Y25*%
%LNTOPSILK*%
%ADD60C,0.0200*%
%ADD59C,0.0100*%
%ADD58C,0.0060*%
%ADD57C,0.0080*%
%ADD56C,0.0001*%
G54D56*G36*
X41105Y4104D02*X40709Y4375D01*
X40573Y4820D01*
X40627Y5135D01*
X40823Y5385D01*
X40953Y5499D01*
Y7381D01*
X40280D01*
X39803Y7376D01*
X39607Y7359D01*
X39515Y7235D01*
X39162Y7012D01*
X38734D01*
X38435Y7202D01*
X38251Y7495D01*
X38224Y7826D01*
X38332Y8119D01*
X38549Y8341D01*
X38864Y8461D01*
X39244Y8407D01*
X39553Y8168D01*
X39618Y8070D01*
X40286D01*
X40953Y8065D01*
Y9562D01*
X38620D01*
Y10295D01*
X38615Y11022D01*
X38517Y11092D01*
X38349Y11271D01*
X38240Y11488D01*
X38251Y11922D01*
X38435Y12210D01*
X38723Y12389D01*
X39059Y12421D01*
X39352Y12318D01*
X39575Y12096D01*
X39694Y11776D01*
X39640Y11401D01*
X39401Y11092D01*
X39304Y11022D01*
Y10246D01*
X40953D01*
Y12551D01*
X41419Y13143D01*
X41891Y13734D01*
Y15801D01*
X40980D01*
Y16588D01*
X45364D01*
Y17961D01*
X42548D01*
Y16588D01*
X41891D01*
Y17961D01*
X40980D01*
Y18720D01*
X41881D01*
Y20087D01*
X42564Y20114D01*
X42559Y19452D01*
X42553Y18981D01*
X42564Y18763D01*
X42629Y18753D01*
X42852Y18742D01*
X43286Y18736D01*
X43969Y18731D01*
X45364D01*
Y20114D01*
X42564D01*
X41881Y20087D01*
X40980D01*
Y20847D01*
X41891D01*
X42548Y20874D01*
X45364D01*
Y22247D01*
X42548D01*
Y20874D01*
X41891Y20847D01*
Y22219D01*
X40980D01*
Y22979D01*
X41881D01*
X41891Y24357D01*
X42548Y24400D01*
Y23722D01*
X42553Y23239D01*
X42570Y23022D01*
X42982Y23012D01*
X43969Y23006D01*
X45353D01*
X45358Y23695D01*
Y23711D01*
X45369Y24400D01*
X42548D01*
X41891Y24357D01*
X40980D01*
Y25117D01*
X41881D01*
Y26489D01*
X42564Y26543D01*
X42559Y25887D01*
X42553Y25410D01*
X42564Y25192D01*
X42629Y25182D01*
X42852Y25171D01*
X43286Y25165D01*
X43969Y25160D01*
X45369D01*
X45358Y25854D01*
X45353Y26543D01*
X42564D01*
X41881Y26489D01*
X40980D01*
Y27249D01*
X41891D01*
Y28491D01*
X42548D01*
Y27249D01*
X45364D01*
Y28491D01*
X46053D01*
Y27249D01*
X46964D01*
Y26489D01*
X46053D01*
Y25089D01*
X46964D01*
Y24330D01*
X46053D01*
Y22936D01*
X46964D01*
Y22176D01*
X46053D01*
Y20803D01*
X46964D01*
Y20044D01*
X46053D01*
Y18650D01*
X46964D01*
Y17890D01*
X46053D01*
Y16517D01*
X46964D01*
Y15731D01*
X46053D01*
X46047Y15145D01*
Y14553D01*
X44631Y12763D01*
X43210Y10978D01*
Y6969D01*
X44186Y5992D01*
X46606D01*
Y8114D01*
X46601Y8938D01*
Y9611D01*
X46595Y10067D01*
X46590Y10229D01*
X46465Y10322D01*
X46221Y10788D01*
X46356Y11304D01*
X46932Y11613D01*
X47534Y11342D01*
X47691Y10777D01*
X47393Y10267D01*
X47295Y10197D01*
Y5309D01*
X43904D01*
X42548Y6665D01*
Y11239D01*
X43958Y13018D01*
X45364Y14798D01*
Y15736D01*
X42548D01*
Y13398D01*
X41636Y12248D01*
Y5417D01*
X41702Y5385D01*
X41881Y5216D01*
X42011Y4983D01*
X41978Y4468D01*
X41631Y4088D01*
X41365Y4028D01*
X41105Y4039D01*
Y4104D01*
G37*
G36*
X56947Y5124D02*X55129Y5466D01*
X53545Y6188D01*
X52438Y7066D01*
X51494Y8173D01*
X50632Y9736D01*
X49986Y11591D01*
X49888Y11960D01*
X52308Y12476D01*
X53241Y12676D01*
X54017Y12839D01*
X54543Y12942D01*
X54744Y12975D01*
X54798Y12763D01*
X54847Y12513D01*
X54929Y12177D01*
X55292Y11152D01*
X55807Y10327D01*
X56453Y9719D01*
X57224Y9356D01*
X57462Y9313D01*
X57858Y9296D01*
X58249Y9313D01*
X58504Y9356D01*
X59524Y9942D01*
X60083Y10978D01*
X60137Y11607D01*
X60083Y12204D01*
X60685Y12378D01*
X60723Y10962D01*
X60365Y10012D01*
X59735Y9280D01*
X58878Y8819D01*
X57842Y8651D01*
X56513Y8954D01*
X55444Y9779D01*
X54652Y11022D01*
X54451Y11548D01*
X54305Y12052D01*
X54256Y12221D01*
X54207Y12237D01*
X54055Y12210D01*
X53697Y12134D01*
X53171Y12020D01*
X52541Y11884D01*
X51391Y11640D01*
X50854Y11521D01*
X50691Y11472D01*
Y11439D01*
X50740Y11255D01*
X50865Y10886D01*
X51011Y10479D01*
X51136Y10153D01*
X52134Y8374D01*
X53420Y7045D01*
X54994Y6177D01*
X56865Y5759D01*
X57261Y5748D01*
X57809D01*
X58357Y5764D01*
X58780Y5797D01*
X60110Y6052D01*
X61271Y6486D01*
X62171Y7018D01*
X62925Y7674D01*
X63528Y8455D01*
X63994Y9361D01*
X64222Y10056D01*
X64379Y10842D01*
X64428Y11797D01*
X64379Y12731D01*
X64152Y13718D01*
X63794Y14608D01*
X63273Y15427D01*
X62589Y16208D01*
X61889Y16854D01*
X61081Y17451D01*
X60007Y18112D01*
X58515Y18942D01*
X57370Y19577D01*
X56578Y20055D01*
X56025Y20456D01*
X55596Y20858D01*
X55048Y21644D01*
X54880Y22512D01*
X55026Y23554D01*
X55460Y24368D01*
X56165Y24932D01*
X57120Y25214D01*
X57701Y25231D01*
X58276Y25165D01*
X59046Y24872D01*
X59714Y24346D01*
X60289Y23581D01*
X60783Y22561D01*
X60869Y22361D01*
X60929Y22317D01*
X61092Y22366D01*
X61471Y22469D01*
X61981Y22621D01*
X62567Y22789D01*
X63143Y22957D01*
X63642Y23109D01*
X64000Y23212D01*
X64141Y23256D01*
X64114Y23380D01*
X64027Y23657D01*
X63902Y23999D01*
X63783Y24314D01*
X63105Y25529D01*
X62215Y26533D01*
X61141Y27308D01*
X59887Y27835D01*
X58130Y28138D01*
X56209Y28052D01*
X54462Y27591D01*
X53062Y26755D01*
X52362Y26028D01*
X51820Y25144D01*
X51451Y24118D01*
X51250Y22968D01*
X51223Y22192D01*
X51261Y21482D01*
X51500Y20500D01*
X51939Y19594D01*
X52579Y18753D01*
X53442Y17961D01*
X53984Y17554D01*
X54614Y17141D01*
X55417Y16664D01*
X56502Y16056D01*
X57229Y15655D01*
X57771Y15346D01*
X58195Y15091D01*
X58569Y14852D01*
X60001Y13642D01*
X60685Y12378D01*
X60083Y12204D01*
X59486Y13273D01*
X58227Y14320D01*
X57864Y14553D01*
X57457Y14798D01*
X56941Y15091D01*
X56247Y15470D01*
X54869Y16246D01*
X53854Y16875D01*
X53079Y17440D01*
X52422Y18020D01*
X51673Y18861D01*
X51136Y19745D01*
X50718Y20928D01*
X50588Y22241D01*
X50680Y23527D01*
X50973Y24726D01*
X51733Y26250D01*
X52894Y27433D01*
X54424Y28258D01*
X56296Y28697D01*
X57755Y28779D01*
X59139Y28654D01*
X60414Y28328D01*
X61553Y27802D01*
X62692Y26956D01*
X63631Y25871D01*
X64358Y24569D01*
X64851Y23066D01*
X64911Y22811D01*
X62709Y22171D01*
X61846Y21927D01*
X61141Y21726D01*
X60663Y21596D01*
X60484Y21552D01*
X60408Y21753D01*
X60180Y22355D01*
X59920Y22930D01*
X59160Y23999D01*
X58211Y24531D01*
X57576Y24596D01*
X56925Y24547D01*
X56068Y24075D01*
X55731Y23614D01*
X55547Y23017D01*
X55509Y22534D01*
X55547Y22122D01*
X55894Y21471D01*
X56621Y20803D01*
X56974Y20559D01*
X57413Y20283D01*
X57988Y19957D01*
X58759Y19534D01*
X59627Y19062D01*
X60310Y18677D01*
X60869Y18346D01*
X61347Y18037D01*
X62573Y17109D01*
X63539Y16121D01*
X64266Y15069D01*
X64754Y13929D01*
X65030Y12557D01*
X65036Y11125D01*
X64781Y9725D01*
X64271Y8461D01*
X63474Y7343D01*
X62432Y6432D01*
X61162Y5754D01*
X59697Y5309D01*
X58319Y5135D01*
X56947Y5130D01*
Y5124D01*
G37*
G36*
X67532Y16930D02*X68172Y16935D01*
X68166Y6036D01*
X79592D01*
Y9193D01*
X71818D01*
Y15714D01*
X77503D01*
Y18883D01*
X71818D01*
Y24666D01*
X79278D01*
Y27835D01*
X68183D01*
X68172Y16935D01*
X67532Y16930D01*
Y28459D01*
X79912D01*
Y24048D01*
X72452D01*
Y19528D01*
X78133D01*
Y15118D01*
X72469D01*
X72458Y12486D01*
X72452Y9855D01*
X80216D01*
Y5417D01*
X67532D01*
Y16930D01*
G37*
G36*
X44669Y7018D02*X44387Y7207D01*
X44208Y7495D01*
X44203Y7929D01*
X44430Y8282D01*
X44561Y8374D01*
X44572Y8835D01*
X44577Y9947D01*
Y11521D01*
X45673Y12899D01*
X46763Y14282D01*
X48093D01*
X48179Y14402D01*
X48407Y14597D01*
X48559Y14662D01*
X48765Y14673D01*
X48966Y14667D01*
X49118Y14597D01*
X49340Y14407D01*
X49476Y14163D01*
X49492Y13881D01*
X49427Y13609D01*
X49151Y13322D01*
X48765Y13208D01*
X48207Y13457D01*
X48082Y13593D01*
X47094D01*
X46177Y12438D01*
X45266Y11282D01*
Y8385D01*
X45369Y8314D01*
X45629Y7918D01*
X45597Y7419D01*
X45212Y7045D01*
X44669Y7012D01*
Y7018D01*
G37*
G36*
X43503Y31177D02*X42618Y31464D01*
X41853Y32023D01*
X41305Y32755D01*
X41018Y33618D01*
X40980Y34258D01*
X41061Y34877D01*
X41371Y35642D01*
X41891Y36293D01*
X42738Y36868D01*
X43709Y37111D01*
X44718Y37024D01*
X45662Y36597D01*
X46215Y36092D01*
X46639Y35474D01*
X46872Y34790D01*
X46942Y34063D01*
X46834Y33336D01*
X46568Y32663D01*
X46161Y32115D01*
X45646Y31670D01*
X45044Y31350D01*
X44393Y31177D01*
X43942Y31155D01*
X43503Y31177D01*
G37*
G54D57*X500Y389500D02*X149500D01*
Y500D01*
X500D01*
Y389500D01*
G54D58*X5000Y324500D02*X8000Y321500D01*
X4500Y319800D02*X8500D01*
Y318500D02*X7800Y317800D01*
X5200D02*X7800D01*
X4500Y318500D02*X5200Y317800D01*
X4500Y320300D02*Y318500D01*
X8500Y320300D02*Y318500D01*
X7700Y316600D02*X8500Y315800D01*
X4500D02*X8500D01*
X4500Y316600D02*Y315100D01*
X8500Y307500D02*X8000Y307000D01*
X8500Y309000D02*Y307500D01*
X8000Y309500D02*X8500Y309000D01*
X5000Y309500D02*X8000D01*
X5000D02*X4500Y309000D01*
Y307500D01*
X5000Y307000D01*
X6000D01*
X6500Y307500D02*X6000Y307000D01*
X6500Y308500D02*Y307500D01*
X4500Y305800D02*X8500D01*
X4500Y303300D01*
X8500D01*
X4500Y301600D02*X8500D01*
Y300300D02*X7800Y299600D01*
X5200D02*X7800D01*
X4500Y300300D02*X5200Y299600D01*
X4500Y302100D02*Y300300D01*
X8500Y302100D02*Y300300D01*
X5000Y295500D02*X8000Y292500D01*
X4500Y290800D02*X8500D01*
Y289500D02*X7800Y288800D01*
X5200D02*X7800D01*
X4500Y289500D02*X5200Y288800D01*
X4500Y291300D02*Y289500D01*
X8500Y291300D02*Y289500D01*
X8000Y287600D02*X8500Y287100D01*
Y285600D01*
X8000Y285100D01*
X7000D02*X8000D01*
X4500Y287600D02*X7000Y285100D01*
X4500Y287600D02*Y285100D01*
X51500Y287000D02*X53500D01*
X52500Y288000D02*Y286000D01*
X117000Y233500D02*X117500Y234000D01*
X117000Y233500D02*Y232000D01*
X117500Y231500D02*X117000Y232000D01*
X117500Y231500D02*X118500D01*
X119000Y232000D01*
Y233500D02*Y232000D01*
Y233500D02*X119500Y234000D01*
X120500D01*
X121000Y233500D02*X120500Y234000D01*
X121000Y233500D02*Y232000D01*
X120500Y231500D02*X121000Y232000D01*
X118800Y236700D02*Y235200D01*
X121000Y237200D02*Y235200D01*
X117000D02*X121000D01*
X117000Y237200D02*Y235200D01*
Y238400D02*X121000D01*
X117000D02*X121000Y240900D01*
X117000D02*X121000D01*
X117000Y244100D02*X117500Y244600D01*
X117000Y244100D02*Y242600D01*
X117500Y242100D02*X117000Y242600D01*
X117500Y242100D02*X118500D01*
X119000Y242600D01*
Y244100D02*Y242600D01*
Y244100D02*X119500Y244600D01*
X120500D01*
X121000Y244100D02*X120500Y244600D01*
X121000Y244100D02*Y242600D01*
X120500Y242100D02*X121000Y242600D01*
X117500Y245800D02*X120500D01*
X117500D02*X117000Y246300D01*
Y247300D02*Y246300D01*
Y247300D02*X117500Y247800D01*
X120500D01*
X121000Y247300D02*X120500Y247800D01*
X121000Y247300D02*Y246300D01*
X120500Y245800D02*X121000Y246300D01*
X117000Y251000D02*Y249000D01*
Y251000D02*X117500Y251500D01*
X118500D01*
X119000Y251000D02*X118500Y251500D01*
X119000Y251000D02*Y249500D01*
X117000D02*X121000D01*
X119000Y250300D02*X121000Y251500D01*
X117500Y254500D02*X117000Y255000D01*
Y256500D02*Y255000D01*
Y256500D02*X117500Y257000D01*
X118500D01*
X121000Y254500D02*X118500Y257000D01*
X121000D02*Y254500D01*
X117000Y265500D02*X117500Y266000D01*
X117000Y265500D02*Y264000D01*
X117500Y263500D02*X117000Y264000D01*
X117500Y263500D02*X118500D01*
X119000Y264000D01*
Y265500D02*Y264000D01*
Y265500D02*X119500Y266000D01*
X120500D01*
X121000Y265500D02*X120500Y266000D01*
X121000Y265500D02*Y264000D01*
X120500Y263500D02*X121000Y264000D01*
X118800Y268700D02*Y267200D01*
X121000Y269200D02*Y267200D01*
X117000D02*X121000D01*
X117000Y269200D02*Y267200D01*
Y270400D02*X121000D01*
X117000D02*X121000Y272900D01*
X117000D02*X121000D01*
X117000Y276100D02*X117500Y276600D01*
X117000Y276100D02*Y274600D01*
X117500Y274100D02*X117000Y274600D01*
X117500Y274100D02*X118500D01*
X119000Y274600D01*
Y276100D02*Y274600D01*
Y276100D02*X119500Y276600D01*
X120500D01*
X121000Y276100D02*X120500Y276600D01*
X121000Y276100D02*Y274600D01*
X120500Y274100D02*X121000Y274600D01*
X117500Y277800D02*X120500D01*
X117500D02*X117000Y278300D01*
Y279300D02*Y278300D01*
Y279300D02*X117500Y279800D01*
X120500D01*
X121000Y279300D02*X120500Y279800D01*
X121000Y279300D02*Y278300D01*
X120500Y277800D02*X121000Y278300D01*
X117000Y283000D02*Y281000D01*
Y283000D02*X117500Y283500D01*
X118500D01*
X119000Y283000D02*X118500Y283500D01*
X119000Y283000D02*Y281500D01*
X117000D02*X121000D01*
X119000Y282300D02*X121000Y283500D01*
X117800Y286500D02*X117000Y287300D01*
X121000D01*
Y288000D02*Y286500D01*
X51500Y240500D02*X53500D01*
X52500Y241500D02*Y239500D01*
X80500Y383000D02*X79500Y387000D01*
X78500Y383000D01*
X76300D02*X77300D01*
X76800Y387000D02*Y383000D01*
X76300Y387000D02*X77300D01*
X75100D02*Y383000D01*
X72600Y387000D01*
Y383000D01*
X65500D02*X65000Y383500D01*
X65500Y383000D02*X67000D01*
X67500Y383500D02*X67000Y383000D01*
X67500Y386500D02*Y383500D01*
Y386500D02*X67000Y387000D01*
X65500D02*X67000D01*
X65500D02*X65000Y386500D01*
Y385500D01*
X65500Y385000D02*X65000Y385500D01*
X65500Y385000D02*X66500D01*
X63800Y387000D02*Y383000D01*
X61300Y387000D01*
Y383000D01*
X59600Y387000D02*Y383000D01*
X58300D02*X57600Y383700D01*
Y386300D02*Y383700D01*
X58300Y387000D02*X57600Y386300D01*
X58300Y387000D02*X60100D01*
X58300Y383000D02*X60100D01*
X53500Y387000D02*Y384000D01*
X52800Y383000D01*
X51700D02*X52800D01*
X51700D02*X51000Y384000D01*
Y387000D02*Y384000D01*
Y385000D02*X53500D01*
X49300Y387000D02*Y383000D01*
X48000D02*X47300Y383700D01*
Y386300D02*Y383700D01*
X48000Y387000D02*X47300Y386300D01*
X48000Y387000D02*X49800D01*
X48000Y383000D02*X49800D01*
X44600D02*X45400D01*
X44600Y386500D02*Y383000D01*
X45100Y387000D02*X44600Y386500D01*
X45100Y387000D02*X45600D01*
X46100Y386500D02*X45600Y387000D01*
X46100Y386500D02*Y386000D01*
X52500Y317000D02*X54500D01*
X53500Y318000D02*Y316000D01*
X88000Y297500D02*Y296200D01*
X87300Y295500D02*X88000Y296200D01*
X84700Y295500D02*X87300D01*
X84700D02*X84000Y296200D01*
Y297500D02*Y296200D01*
X88000Y300700D02*Y299400D01*
X87300Y298700D02*X88000Y299400D01*
X84700Y298700D02*X87300D01*
X84700D02*X84000Y299400D01*
Y300700D02*Y299400D01*
X88000Y305700D02*Y303700D01*
Y305700D02*X87500Y306200D01*
X86300D02*X87500D01*
X85800Y305700D02*X86300Y306200D01*
X85800Y305700D02*Y304200D01*
X84000D02*X88000D01*
X84000Y305700D02*Y303700D01*
Y305700D02*X84500Y306200D01*
X85300D01*
X85800Y305700D02*X85300Y306200D01*
X84000Y307400D02*X86000Y308400D01*
X84000Y309400D01*
X86000Y308400D02*X88000D01*
X86000Y312600D02*Y310600D01*
X84000Y315800D02*X84500Y316300D01*
X84000Y315800D02*Y314300D01*
X84500Y313800D02*X84000Y314300D01*
X84500Y313800D02*X85500D01*
X86000Y314300D01*
Y315800D02*Y314300D01*
Y315800D02*X86500Y316300D01*
X87500D01*
X88000Y315800D02*X87500Y316300D01*
X88000Y315800D02*Y314300D01*
X87500Y313800D02*X88000Y314300D01*
X85000Y317500D02*X88000D01*
X85000D02*X84000Y318200D01*
Y319300D02*Y318200D01*
Y319300D02*X85000Y320000D01*
X88000D01*
X86000D02*Y317500D01*
X87500Y323000D02*X88000Y323500D01*
X84500Y323000D02*X84000Y323500D01*
X84500Y323000D02*X87500D01*
X88000Y326700D02*Y325400D01*
X87300Y324700D02*X88000Y325400D01*
X84700Y324700D02*X87300D01*
X84700D02*X84000Y325400D01*
Y326700D02*Y325400D01*
Y327900D02*X84500Y328400D01*
X87500D01*
X88000Y327900D02*X87500Y328400D01*
X84500Y331400D02*X84000Y331900D01*
Y333400D02*Y331900D01*
Y333400D02*X84500Y333900D01*
X85500D01*
X88000Y331400D02*X85500Y333900D01*
X88000D02*Y331400D01*
X87500Y335100D02*X88000Y335600D01*
X84500Y335100D02*X87500D01*
X84500D02*X84000Y335600D01*
Y336600D02*Y335600D01*
Y336600D02*X84500Y337100D01*
X87500D01*
X88000Y336600D02*X87500Y337100D01*
X88000Y336600D02*Y335600D01*
X87000Y335100D02*X85000Y337100D01*
X84500Y338300D02*X84000Y338800D01*
Y340300D02*Y338800D01*
Y340300D02*X84500Y340800D01*
X85500D01*
X88000Y338300D02*X85500Y340800D01*
X88000D02*Y338300D01*
X87500Y342000D02*X88000Y342500D01*
X84500Y342000D02*X87500D01*
X84500D02*X84000Y342500D01*
Y343500D02*Y342500D01*
Y343500D02*X84500Y344000D01*
X87500D01*
X88000Y343500D02*X87500Y344000D01*
X88000Y343500D02*Y342500D01*
X87000Y342000D02*X85000Y344000D01*
X89500Y295500D02*X93500D01*
X92000D02*X91500Y296000D01*
Y297000D02*Y296000D01*
Y297000D02*X92000Y297500D01*
X93500D01*
X89500Y299200D02*X93000D01*
X93500Y299700D01*
X91000D02*Y298700D01*
X89500Y301200D02*X93000D01*
X93500Y301700D01*
X91000D02*Y300700D01*
X92000Y303200D02*X95000D01*
X91500Y302700D02*X92000Y303200D01*
X91500Y303700D01*
Y304700D02*Y303700D01*
Y304700D02*X92000Y305200D01*
X93000D01*
X93500Y304700D02*X93000Y305200D01*
X93500Y304700D02*Y303700D01*
X93000Y303200D02*X93500Y303700D01*
Y308400D02*Y306900D01*
Y308400D02*X93000Y308900D01*
X92500Y308400D02*X93000Y308900D01*
X92500Y308400D02*Y306900D01*
X92000Y306400D02*X92500Y306900D01*
X92000Y306400D02*X91500Y306900D01*
Y308400D02*Y306900D01*
Y308400D02*X92000Y308900D01*
X93000Y306400D02*X93500Y306900D01*
X91000Y310600D02*Y310100D01*
X92000Y310600D02*Y310100D01*
X93000Y311800D02*X90000Y314800D01*
X93000Y316000D02*X90000Y319000D01*
X90500Y320200D02*X90600D01*
X92000D02*X93500D01*
X91500Y322700D02*X92000Y323200D01*
X91500Y322700D02*Y321700D01*
X92000Y321200D02*X91500Y321700D01*
X92000Y321200D02*X93000D01*
X93500Y321700D01*
X91500Y323200D02*X93000D01*
X93500Y323700D01*
Y322700D02*Y321700D01*
Y322700D02*X93000Y323200D01*
X93500Y326900D02*Y325400D01*
Y326900D02*X93000Y327400D01*
X92500Y326900D02*X93000Y327400D01*
X92500Y326900D02*Y325400D01*
X92000Y324900D02*X92500Y325400D01*
X92000Y324900D02*X91500Y325400D01*
Y326900D02*Y325400D01*
Y326900D02*X92000Y327400D01*
X93000Y324900D02*X93500Y325400D01*
X91500Y330600D02*Y329100D01*
X92000Y328600D02*X91500Y329100D01*
X92000Y328600D02*X93000D01*
X93500Y329100D01*
Y330600D02*Y329100D01*
X91500Y333300D02*X92000Y333800D01*
X91500Y333300D02*Y332300D01*
X92000Y331800D02*X91500Y332300D01*
X92000Y331800D02*X93000D01*
X93500Y332300D01*
X91500Y333800D02*X93000D01*
X93500Y334300D01*
Y333300D02*Y332300D01*
Y333300D02*X93000Y333800D01*
X89500Y335500D02*X93000D01*
X93500Y336000D01*
Y339000D02*Y337500D01*
X93000Y337000D02*X93500Y337500D01*
X92000Y337000D02*X93000D01*
X92000D02*X91500Y337500D01*
Y338500D02*Y337500D01*
Y338500D02*X92000Y339000D01*
X92500D02*Y337000D01*
X92000Y339000D02*X92500D01*
X89500Y342200D02*X93500D01*
Y341700D02*X93000Y342200D01*
X93500Y341700D02*Y340700D01*
X93000Y340200D02*X93500Y340700D01*
X92000Y340200D02*X93000D01*
X92000D02*X91500Y340700D01*
Y341700D02*Y340700D01*
Y341700D02*X92000Y342200D01*
X93500Y343900D02*Y343400D01*
X91500Y347100D02*Y345600D01*
X92000Y345100D02*X91500Y345600D01*
X92000Y345100D02*X93000D01*
X93500Y345600D01*
Y347100D02*Y345600D01*
X92000Y348300D02*X93000D01*
X92000D02*X91500Y348800D01*
Y349800D02*Y348800D01*
Y349800D02*X92000Y350300D01*
X93000D01*
X93500Y349800D02*X93000Y350300D01*
X93500Y349800D02*Y348800D01*
X93000Y348300D02*X93500Y348800D01*
X92000Y352000D02*X93500D01*
X92000D02*X91500Y352500D01*
Y353000D02*Y352500D01*
Y353000D02*X92000Y353500D01*
X93500D01*
X92000D02*X91500Y354000D01*
Y354500D02*Y354000D01*
Y354500D02*X92000Y355000D01*
X93500D01*
X91500Y351500D02*X92000Y352000D01*
X98500Y268000D02*X102500D01*
X98500Y269300D02*X99200Y270000D01*
X101800D01*
X102500Y269300D02*X101800Y270000D01*
X102500Y269300D02*Y267500D01*
X98500Y269300D02*Y267500D01*
X100300Y272700D02*Y271200D01*
X102500Y273200D02*Y271200D01*
X98500D02*X102500D01*
X98500Y273200D02*Y271200D01*
Y274400D02*X102500D01*
Y276400D02*Y274400D01*
X99500Y277600D02*X102500D01*
X99500D02*X98500Y278300D01*
Y279400D02*Y278300D01*
Y279400D02*X99500Y280100D01*
X102500D01*
X100500D02*Y277600D01*
X98500Y281300D02*X100500Y282300D01*
X98500Y283300D01*
X100500Y282300D02*X102500D01*
X70000Y286500D02*Y285500D01*
Y286000D02*X74000D01*
Y286500D02*Y285500D01*
X72500Y287700D02*X73500D01*
X72500D02*X72000Y288200D01*
Y289200D02*Y288200D01*
Y289200D02*X72500Y289700D01*
X73500D01*
X74000Y289200D02*X73500Y289700D01*
X74000Y289200D02*Y288200D01*
X73500Y287700D02*X74000Y288200D01*
X72000Y290900D02*X73500D01*
X74000Y291400D01*
Y291900D02*Y291400D01*
Y291900D02*X73500Y292400D01*
X72000D02*X73500D01*
X74000Y292900D01*
Y293400D02*Y292900D01*
Y293400D02*X73500Y293900D01*
X72000D02*X73500D01*
X72000Y296600D02*X72500Y297100D01*
X72000Y296600D02*Y295600D01*
X72500Y295100D02*X72000Y295600D01*
X72500Y295100D02*X73500D01*
X74000Y295600D01*
X72000Y297100D02*X73500D01*
X74000Y297600D01*
Y296600D02*Y295600D01*
Y296600D02*X73500Y297100D01*
X70000Y302600D02*X70500Y303100D01*
X70000Y302600D02*Y301100D01*
X70500Y300600D02*X70000Y301100D01*
X70500Y300600D02*X71500D01*
X72000Y301100D01*
Y302600D02*Y301100D01*
Y302600D02*X72500Y303100D01*
X73500D01*
X74000Y302600D02*X73500Y303100D01*
X74000Y302600D02*Y301100D01*
X73500Y300600D02*X74000Y301100D01*
X72000Y306300D02*Y304800D01*
X72500Y304300D02*X72000Y304800D01*
X72500Y304300D02*X73500D01*
X74000Y304800D01*
Y306300D02*Y304800D01*
X72000Y309000D02*X72500Y309500D01*
X72000Y309000D02*Y308000D01*
X72500Y307500D02*X72000Y308000D01*
X72500Y307500D02*X73500D01*
X74000Y308000D01*
X72000Y309500D02*X73500D01*
X74000Y310000D01*
Y309000D02*Y308000D01*
Y309000D02*X73500Y309500D01*
X70000Y311200D02*X73500D01*
X74000Y311700D01*
Y314700D02*Y313200D01*
X73500Y312700D02*X74000Y313200D01*
X72500Y312700D02*X73500D01*
X72500D02*X72000Y313200D01*
Y314200D02*Y313200D01*
Y314200D02*X72500Y314700D01*
X73000D02*Y312700D01*
X72500Y314700D02*X73000D01*
X70000Y317900D02*X74000D01*
Y317400D02*X73500Y317900D01*
X74000Y317400D02*Y316400D01*
X73500Y315900D02*X74000Y316400D01*
X72500Y315900D02*X73500D01*
X72500D02*X72000Y316400D01*
Y317400D02*Y316400D01*
Y317400D02*X72500Y317900D01*
X71800Y322400D02*Y320900D01*
X74000Y322900D02*Y320900D01*
X70000D02*X74000D01*
X70000Y322900D02*Y320900D01*
X72500Y324600D02*X74000D01*
X72500D02*X72000Y325100D01*
Y325600D02*Y325100D01*
Y325600D02*X72500Y326100D01*
X74000D01*
X72000Y324100D02*X72500Y324600D01*
X72000Y328800D02*X72500Y329300D01*
X72000Y328800D02*Y327800D01*
X72500Y327300D02*X72000Y327800D01*
X72500Y327300D02*X73500D01*
X74000Y327800D01*
Y328800D02*Y327800D01*
Y328800D02*X73500Y329300D01*
X75000Y327300D02*X75500Y327800D01*
Y328800D02*Y327800D01*
Y328800D02*X75000Y329300D01*
X72000D02*X75000D01*
X71000Y330500D02*X71100D01*
X72500D02*X74000D01*
X72500Y332000D02*X74000D01*
X72500D02*X72000Y332500D01*
Y333000D02*Y332500D01*
Y333000D02*X72500Y333500D01*
X74000D01*
X72000Y331500D02*X72500Y332000D01*
X74000Y336700D02*Y335200D01*
X73500Y334700D02*X74000Y335200D01*
X72500Y334700D02*X73500D01*
X72500D02*X72000Y335200D01*
Y336200D02*Y335200D01*
Y336200D02*X72500Y336700D01*
X73000D02*Y334700D01*
X72500Y336700D02*X73000D01*
X74000Y339900D02*Y338400D01*
X73500Y337900D02*X74000Y338400D01*
X72500Y337900D02*X73500D01*
X72500D02*X72000Y338400D01*
Y339400D02*Y338400D01*
Y339400D02*X72500Y339900D01*
X73000D02*Y337900D01*
X72500Y339900D02*X73000D01*
X72500Y341600D02*X74000D01*
X72500D02*X72000Y342100D01*
Y343100D02*Y342100D01*
Y341100D02*X72500Y341600D01*
X71000Y344300D02*X71100D01*
X72500D02*X74000D01*
X72500Y345800D02*X74000D01*
X72500D02*X72000Y346300D01*
Y346800D02*Y346300D01*
Y346800D02*X72500Y347300D01*
X74000D01*
X72000Y345300D02*X72500Y345800D01*
X72000Y350000D02*X72500Y350500D01*
X72000Y350000D02*Y349000D01*
X72500Y348500D02*X72000Y349000D01*
X72500Y348500D02*X73500D01*
X74000Y349000D01*
Y350000D02*Y349000D01*
Y350000D02*X73500Y350500D01*
X75000Y348500D02*X75500Y349000D01*
Y350000D02*Y349000D01*
Y350000D02*X75000Y350500D01*
X72000D02*X75000D01*
X81500Y297500D02*Y296200D01*
X80800Y295500D02*X81500Y296200D01*
X78200Y295500D02*X80800D01*
X78200D02*X77500Y296200D01*
Y297500D02*Y296200D01*
Y298700D02*X81500D01*
X79500D02*X77500Y300700D01*
X79500Y298700D02*X81500Y300700D01*
X77500Y303900D02*Y301900D01*
Y302900D02*X81500D01*
X79500Y307100D02*Y305100D01*
X77500Y309300D02*Y308300D01*
Y308800D02*X81500D01*
Y309300D02*Y308300D01*
X77500Y312500D02*Y310500D01*
Y312500D02*X78000Y313000D01*
X79000D01*
X79500Y312500D02*X79000Y313000D01*
X79500Y312500D02*Y311000D01*
X77500D02*X81500D01*
X79500Y311800D02*X81500Y313000D01*
X77500Y316200D02*X78000Y316700D01*
X77500Y316200D02*Y314700D01*
X78000Y314200D02*X77500Y314700D01*
X78000Y314200D02*X79000D01*
X79500Y314700D01*
Y316200D02*Y314700D01*
Y316200D02*X80000Y316700D01*
X81000D01*
X81500Y316200D02*X81000Y316700D01*
X81500Y316200D02*Y314700D01*
X81000Y314200D02*X81500Y314700D01*
X79300Y319400D02*Y317900D01*
X81500Y319900D02*Y317900D01*
X77500D02*X81500D01*
X77500Y319900D02*Y317900D01*
Y321100D02*X81500D01*
X77500D02*X81500Y323600D01*
X77500D02*X81500D01*
X77500Y326800D02*X78000Y327300D01*
X77500Y326800D02*Y325300D01*
X78000Y324800D02*X77500Y325300D01*
X78000Y324800D02*X79000D01*
X79500Y325300D01*
Y326800D02*Y325300D01*
Y326800D02*X80000Y327300D01*
X81000D01*
X81500Y326800D02*X81000Y327300D01*
X81500Y326800D02*Y325300D01*
X81000Y324800D02*X81500Y325300D01*
X79300Y330000D02*Y328500D01*
X81500Y330500D02*Y328500D01*
X77500D02*X81500D01*
X77500Y330500D02*Y328500D01*
X79500Y333700D02*Y331700D01*
X81000Y334900D02*X81500Y335400D01*
X80200Y334900D02*X81000D01*
X80200D02*X79500Y335600D01*
Y336200D02*Y335600D01*
Y336200D02*X80200Y336900D01*
X81000D01*
X81500Y336400D02*X81000Y336900D01*
X81500Y336400D02*Y335400D01*
X78800Y334900D02*X79500Y335600D01*
X78000Y334900D02*X78800D01*
X78000D02*X77500Y335400D01*
Y336400D02*Y335400D01*
Y336400D02*X78000Y336900D01*
X78800D01*
X79500Y336200D02*X78800Y336900D01*
X79500Y339900D02*X81500Y340900D01*
X79500Y341900D02*X81500Y340900D01*
X78300Y343100D02*X77500Y343900D01*
X81500D01*
Y344600D02*Y343100D01*
Y346300D02*Y345800D01*
X78300Y347500D02*X77500Y348300D01*
X81500D01*
Y349000D02*Y347500D01*
X8500Y232000D02*X8000Y231500D01*
X8500Y233500D02*Y232000D01*
X8000Y234000D02*X8500Y233500D01*
X5000Y234000D02*X8000D01*
X5000D02*X4500Y233500D01*
Y232000D01*
X5000Y231500D01*
X6000D01*
X6500Y232000D02*X6000Y231500D01*
X6500Y233000D02*Y232000D01*
X4500Y230300D02*X8500D01*
X4500Y227800D01*
X8500D01*
X4500Y226100D02*X8500D01*
Y224800D02*X7800Y224100D01*
X5200D02*X7800D01*
X4500Y224800D02*X5200Y224100D01*
X4500Y226600D02*Y224800D01*
X8500Y226600D02*Y224800D01*
X5000Y249000D02*X8000Y246000D01*
X4500Y244300D02*X8500D01*
Y243000D02*X7800Y242300D01*
X5200D02*X7800D01*
X4500Y243000D02*X5200Y242300D01*
X4500Y244800D02*Y243000D01*
X8500Y244800D02*Y243000D01*
X8000Y241100D02*X8500Y240600D01*
Y239600D01*
X8000Y239100D01*
X4500Y239600D02*X5000Y239100D01*
X4500Y240600D02*Y239600D01*
X5000Y241100D02*X4500Y240600D01*
X6700D02*Y239600D01*
X7200Y239100D02*X8000D01*
X5000D02*X6200D01*
X6700Y239600D01*
X7200Y239100D02*X6700Y239600D01*
X5000Y220500D02*X8000Y217500D01*
X4500Y215800D02*X8500D01*
Y214500D02*X7800Y213800D01*
X5200D02*X7800D01*
X4500Y214500D02*X5200Y213800D01*
X4500Y216300D02*Y214500D01*
X8500Y216300D02*Y214500D01*
X6000Y212600D02*X8500Y210600D01*
X6000Y212600D02*Y210100D01*
X4500Y210600D02*X8500D01*
X9000Y155500D02*X8500Y155000D01*
X9000Y157000D02*Y155500D01*
X8500Y157500D02*X9000Y157000D01*
X5500Y157500D02*X8500D01*
X5500D02*X5000Y157000D01*
Y155500D01*
X5500Y155000D01*
X6500D01*
X7000Y155500D02*X6500Y155000D01*
X7000Y156500D02*Y155500D01*
X5000Y153800D02*X9000D01*
X5000Y151300D01*
X9000D01*
X5000Y149600D02*X9000D01*
Y148300D02*X8300Y147600D01*
X5700D02*X8300D01*
X5000Y148300D02*X5700Y147600D01*
X5000Y150100D02*Y148300D01*
X9000Y150100D02*Y148300D01*
X5500Y171500D02*X8500Y168500D01*
X5000Y166800D02*X9000D01*
Y165500D02*X8300Y164800D01*
X5700D02*X8300D01*
X5000Y165500D02*X5700Y164800D01*
X5000Y167300D02*Y165500D01*
X9000Y167300D02*Y165500D01*
Y163600D02*Y161600D01*
X7000Y163600D02*X9000D01*
X7000D02*X7500Y163100D01*
Y162100D01*
X7000Y161600D01*
X5500D02*X7000D01*
X5000Y162100D02*X5500Y161600D01*
X5000Y163100D02*Y162100D01*
X5500Y163600D02*X5000Y163100D01*
X51500Y210500D02*X53500D01*
X52500Y211500D02*Y209500D01*
X5500Y144000D02*X8500Y141000D01*
X5000Y139300D02*X9000D01*
Y138000D02*X8300Y137300D01*
X5700D02*X8300D01*
X5000Y138000D02*X5700Y137300D01*
X5000Y139800D02*Y138000D01*
X9000Y139800D02*Y138000D01*
Y134600D02*X8500Y134100D01*
X9000Y135600D02*Y134600D01*
X8500Y136100D02*X9000Y135600D01*
X5500Y136100D02*X8500D01*
X5500D02*X5000Y135600D01*
X7200Y134600D02*X6700Y134100D01*
X7200Y136100D02*Y134600D01*
X5000Y135600D02*Y134600D01*
X5500Y134100D01*
X6700D01*
X51500Y135000D02*X53500D01*
X52500Y136000D02*Y134000D01*
X51500Y169500D02*X53500D01*
X52500Y170500D02*Y168500D01*
X117000Y105500D02*X117500Y106000D01*
X117000Y105500D02*Y104000D01*
X117500Y103500D02*X117000Y104000D01*
X117500Y103500D02*X118500D01*
X119000Y104000D01*
Y105500D02*Y104000D01*
Y105500D02*X119500Y106000D01*
X120500D01*
X121000Y105500D02*X120500Y106000D01*
X121000Y105500D02*Y104000D01*
X120500Y103500D02*X121000Y104000D01*
X118800Y108700D02*Y107200D01*
X121000Y109200D02*Y107200D01*
X117000D02*X121000D01*
X117000Y109200D02*Y107200D01*
Y110400D02*X121000D01*
X117000D02*X121000Y112900D01*
X117000D02*X121000D01*
X117000Y116100D02*X117500Y116600D01*
X117000Y116100D02*Y114600D01*
X117500Y114100D02*X117000Y114600D01*
X117500Y114100D02*X118500D01*
X119000Y114600D01*
Y116100D02*Y114600D01*
Y116100D02*X119500Y116600D01*
X120500D01*
X121000Y116100D02*X120500Y116600D01*
X121000Y116100D02*Y114600D01*
X120500Y114100D02*X121000Y114600D01*
X117500Y117800D02*X120500D01*
X117500D02*X117000Y118300D01*
Y119300D02*Y118300D01*
Y119300D02*X117500Y119800D01*
X120500D01*
X121000Y119300D02*X120500Y119800D01*
X121000Y119300D02*Y118300D01*
X120500Y117800D02*X121000Y118300D01*
X117000Y123000D02*Y121000D01*
Y123000D02*X117500Y123500D01*
X118500D01*
X119000Y123000D02*X118500Y123500D01*
X119000Y123000D02*Y121500D01*
X117000D02*X121000D01*
X119000Y122300D02*X121000Y123500D01*
X117000Y128000D02*X117500Y128500D01*
X117000Y128000D02*Y127000D01*
X117500Y126500D02*X117000Y127000D01*
X117500Y126500D02*X120500D01*
X121000Y127000D01*
X118800Y128000D02*X119300Y128500D01*
X118800Y128000D02*Y126500D01*
X121000Y128000D02*Y127000D01*
Y128000D02*X120500Y128500D01*
X119300D02*X120500D01*
X117000Y137500D02*X117500Y138000D01*
X117000Y137500D02*Y136000D01*
X117500Y135500D02*X117000Y136000D01*
X117500Y135500D02*X118500D01*
X119000Y136000D01*
Y137500D02*Y136000D01*
Y137500D02*X119500Y138000D01*
X120500D01*
X121000Y137500D02*X120500Y138000D01*
X121000Y137500D02*Y136000D01*
X120500Y135500D02*X121000Y136000D01*
X118800Y140700D02*Y139200D01*
X121000Y141200D02*Y139200D01*
X117000D02*X121000D01*
X117000Y141200D02*Y139200D01*
Y142400D02*X121000D01*
X117000D02*X121000Y144900D01*
X117000D02*X121000D01*
X117000Y148100D02*X117500Y148600D01*
X117000Y148100D02*Y146600D01*
X117500Y146100D02*X117000Y146600D01*
X117500Y146100D02*X118500D01*
X119000Y146600D01*
Y148100D02*Y146600D01*
Y148100D02*X119500Y148600D01*
X120500D01*
X121000Y148100D02*X120500Y148600D01*
X121000Y148100D02*Y146600D01*
X120500Y146100D02*X121000Y146600D01*
X117500Y149800D02*X120500D01*
X117500D02*X117000Y150300D01*
Y151300D02*Y150300D01*
Y151300D02*X117500Y151800D01*
X120500D01*
X121000Y151300D02*X120500Y151800D01*
X121000Y151300D02*Y150300D01*
X120500Y149800D02*X121000Y150300D01*
X117000Y155000D02*Y153000D01*
Y155000D02*X117500Y155500D01*
X118500D01*
X119000Y155000D02*X118500Y155500D01*
X119000Y155000D02*Y153500D01*
X117000D02*X121000D01*
X119000Y154300D02*X121000Y155500D01*
X117000Y160500D02*Y158500D01*
X119000D01*
X118500Y159000D01*
Y160000D02*Y159000D01*
Y160000D02*X119000Y160500D01*
X120500D01*
X121000Y160000D02*X120500Y160500D01*
X121000Y160000D02*Y159000D01*
X120500Y158500D02*X121000Y159000D01*
X117000Y169000D02*X117500Y169500D01*
X117000Y169000D02*Y167500D01*
X117500Y167000D02*X117000Y167500D01*
X117500Y167000D02*X118500D01*
X119000Y167500D01*
Y169000D02*Y167500D01*
Y169000D02*X119500Y169500D01*
X120500D01*
X121000Y169000D02*X120500Y169500D01*
X121000Y169000D02*Y167500D01*
X120500Y167000D02*X121000Y167500D01*
X118800Y172200D02*Y170700D01*
X121000Y172700D02*Y170700D01*
X117000D02*X121000D01*
X117000Y172700D02*Y170700D01*
Y173900D02*X121000D01*
X117000D02*X121000Y176400D01*
X117000D02*X121000D01*
X117000Y179600D02*X117500Y180100D01*
X117000Y179600D02*Y178100D01*
X117500Y177600D02*X117000Y178100D01*
X117500Y177600D02*X118500D01*
X119000Y178100D01*
Y179600D02*Y178100D01*
Y179600D02*X119500Y180100D01*
X120500D01*
X121000Y179600D02*X120500Y180100D01*
X121000Y179600D02*Y178100D01*
X120500Y177600D02*X121000Y178100D01*
X117500Y181300D02*X120500D01*
X117500D02*X117000Y181800D01*
Y182800D02*Y181800D01*
Y182800D02*X117500Y183300D01*
X120500D01*
X121000Y182800D02*X120500Y183300D01*
X121000Y182800D02*Y181800D01*
X120500Y181300D02*X121000Y181800D01*
X117000Y186500D02*Y184500D01*
Y186500D02*X117500Y187000D01*
X118500D01*
X119000Y186500D02*X118500Y187000D01*
X119000Y186500D02*Y185000D01*
X117000D02*X121000D01*
X119000Y185800D02*X121000Y187000D01*
X119500Y190000D02*X117000Y192000D01*
X119500Y192500D02*Y190000D01*
X117000Y192000D02*X121000D01*
X117000Y201500D02*X117500Y202000D01*
X117000Y201500D02*Y200000D01*
X117500Y199500D02*X117000Y200000D01*
X117500Y199500D02*X118500D01*
X119000Y200000D01*
Y201500D02*Y200000D01*
Y201500D02*X119500Y202000D01*
X120500D01*
X121000Y201500D02*X120500Y202000D01*
X121000Y201500D02*Y200000D01*
X120500Y199500D02*X121000Y200000D01*
X118800Y204700D02*Y203200D01*
X121000Y205200D02*Y203200D01*
X117000D02*X121000D01*
X117000Y205200D02*Y203200D01*
Y206400D02*X121000D01*
X117000D02*X121000Y208900D01*
X117000D02*X121000D01*
X117000Y212100D02*X117500Y212600D01*
X117000Y212100D02*Y210600D01*
X117500Y210100D02*X117000Y210600D01*
X117500Y210100D02*X118500D01*
X119000Y210600D01*
Y212100D02*Y210600D01*
Y212100D02*X119500Y212600D01*
X120500D01*
X121000Y212100D02*X120500Y212600D01*
X121000Y212100D02*Y210600D01*
X120500Y210100D02*X121000Y210600D01*
X117500Y213800D02*X120500D01*
X117500D02*X117000Y214300D01*
Y215300D02*Y214300D01*
Y215300D02*X117500Y215800D01*
X120500D01*
X121000Y215300D02*X120500Y215800D01*
X121000Y215300D02*Y214300D01*
X120500Y213800D02*X121000Y214300D01*
X117000Y219000D02*Y217000D01*
Y219000D02*X117500Y219500D01*
X118500D01*
X119000Y219000D02*X118500Y219500D01*
X119000Y219000D02*Y217500D01*
X117000D02*X121000D01*
X119000Y218300D02*X121000Y219500D01*
X117500Y222500D02*X117000Y223000D01*
Y224000D02*Y223000D01*
Y224000D02*X117500Y224500D01*
X121000Y224000D02*X120500Y224500D01*
X121000Y224000D02*Y223000D01*
X120500Y222500D02*X121000Y223000D01*
X118800Y224000D02*Y223000D01*
X117500Y224500D02*X118300D01*
X119300D02*X120500D01*
X119300D02*X118800Y224000D01*
X118300Y224500D02*X118800Y224000D01*
X9500Y79000D02*X9000Y78500D01*
X9500Y80500D02*Y79000D01*
X9000Y81000D02*X9500Y80500D01*
X6000Y81000D02*X9000D01*
X6000D02*X5500Y80500D01*
Y79000D01*
X6000Y78500D01*
X7000D01*
X7500Y79000D02*X7000Y78500D01*
X7500Y80000D02*Y79000D01*
X5500Y77300D02*X9500D01*
X5500Y74800D01*
X9500D01*
X5500Y73100D02*X9500D01*
Y71800D02*X8800Y71100D01*
X6200D02*X8800D01*
X5500Y71800D02*X6200Y71100D01*
X5500Y73600D02*Y71800D01*
X9500Y73600D02*Y71800D01*
X6000Y95500D02*X9000Y92500D01*
X5500Y90800D02*X9500D01*
Y89500D02*X8800Y88800D01*
X6200D02*X8800D01*
X5500Y89500D02*X6200Y88800D01*
X5500Y91300D02*Y89500D01*
X9500Y91300D02*Y89500D01*
X5500Y87100D02*X9500Y85100D01*
Y87600D02*Y85100D01*
X117000Y73500D02*X117500Y74000D01*
X117000Y73500D02*Y72000D01*
X117500Y71500D02*X117000Y72000D01*
X117500Y71500D02*X118500D01*
X119000Y72000D01*
Y73500D02*Y72000D01*
Y73500D02*X119500Y74000D01*
X120500D01*
X121000Y73500D02*X120500Y74000D01*
X121000Y73500D02*Y72000D01*
X120500Y71500D02*X121000Y72000D01*
X118800Y76700D02*Y75200D01*
X121000Y77200D02*Y75200D01*
X117000D02*X121000D01*
X117000Y77200D02*Y75200D01*
Y78400D02*X121000D01*
X117000D02*X121000Y80900D01*
X117000D02*X121000D01*
X117000Y84100D02*X117500Y84600D01*
X117000Y84100D02*Y82600D01*
X117500Y82100D02*X117000Y82600D01*
X117500Y82100D02*X118500D01*
X119000Y82600D01*
Y84100D02*Y82600D01*
Y84100D02*X119500Y84600D01*
X120500D01*
X121000Y84100D02*X120500Y84600D01*
X121000Y84100D02*Y82600D01*
X120500Y82100D02*X121000Y82600D01*
X117500Y85800D02*X120500D01*
X117500D02*X117000Y86300D01*
Y87300D02*Y86300D01*
Y87300D02*X117500Y87800D01*
X120500D01*
X121000Y87300D02*X120500Y87800D01*
X121000Y87300D02*Y86300D01*
X120500Y85800D02*X121000Y86300D01*
X117000Y91000D02*Y89000D01*
Y91000D02*X117500Y91500D01*
X118500D01*
X119000Y91000D02*X118500Y91500D01*
X119000Y91000D02*Y89500D01*
X117000D02*X121000D01*
X119000Y90300D02*X121000Y91500D01*
Y95000D02*X117000Y97000D01*
Y94500D01*
X51500Y93000D02*X53500D01*
X52500Y94000D02*Y92000D01*
X102500Y76500D02*Y75500D01*
Y76000D02*X106500D01*
Y76500D02*Y75500D01*
X102500Y77700D02*X106500D01*
X102500D02*X106500Y80200D01*
X102500D02*X106500D01*
X102500Y81400D02*X106500Y82400D01*
X102500Y83400D01*
X104300Y86100D02*Y84600D01*
X106500Y86600D02*Y84600D01*
X102500D02*X106500D01*
X102500Y86600D02*Y84600D01*
Y89800D02*Y87800D01*
Y89800D02*X103000Y90300D01*
X104000D01*
X104500Y89800D02*X104000Y90300D01*
X104500Y89800D02*Y88300D01*
X102500D02*X106500D01*
X104500Y89100D02*X106500Y90300D01*
X102500Y93500D02*Y91500D01*
Y92500D02*X106500D01*
X103000Y96500D02*X106000D01*
X103000D02*X102500Y97000D01*
Y98000D02*Y97000D01*
Y98000D02*X103000Y98500D01*
X106000D01*
X106500Y98000D02*X106000Y98500D01*
X106500Y98000D02*Y97000D01*
X106000Y96500D02*X106500Y97000D01*
X102500Y99700D02*X106000D01*
X106500Y100200D01*
Y101200D02*Y100200D01*
Y101200D02*X106000Y101700D01*
X102500D02*X106000D01*
X102500Y104900D02*Y102900D01*
Y103900D02*X106500D01*
X102500Y106600D02*X106500D01*
X102500Y108100D02*Y106100D01*
Y108100D02*X103000Y108600D01*
X104000D01*
X104500Y108100D02*X104000Y108600D01*
X104500Y108100D02*Y106600D01*
X102500Y109800D02*X106000D01*
X106500Y110300D01*
Y111300D02*Y110300D01*
Y111300D02*X106000Y111800D01*
X102500D02*X106000D01*
X102500Y115000D02*Y113000D01*
Y114000D02*X106500D01*
X102500Y118200D02*X103000Y118700D01*
X102500Y118200D02*Y116700D01*
X103000Y116200D02*X102500Y116700D01*
X103000Y116200D02*X104000D01*
X104500Y116700D01*
Y118200D02*Y116700D01*
Y118200D02*X105000Y118700D01*
X106000D01*
X106500Y118200D02*X106000Y118700D01*
X106500Y118200D02*Y116700D01*
X106000Y116200D02*X106500Y116700D01*
X95000Y77000D02*X95500Y77500D01*
X95000Y77000D02*Y75500D01*
X95500Y75000D02*X95000Y75500D01*
X95500Y75000D02*X96500D01*
X97000Y75500D01*
Y77000D02*Y75500D01*
Y77000D02*X97500Y77500D01*
X98500D01*
X99000Y77000D02*X98500Y77500D01*
X99000Y77000D02*Y75500D01*
X98500Y75000D02*X99000Y75500D01*
X95000Y78700D02*X99000D01*
X95000Y81200D02*X99000D01*
X97000D02*Y78700D01*
X95500Y82400D02*X98500D01*
X95500D02*X95000Y82900D01*
Y83900D02*Y82900D01*
Y83900D02*X95500Y84400D01*
X98500D01*
X99000Y83900D02*X98500Y84400D01*
X99000Y83900D02*Y82900D01*
X98500Y82400D02*X99000Y82900D01*
X95000Y87600D02*Y85600D01*
Y87600D02*X95500Y88100D01*
X96500D01*
X97000Y87600D02*X96500Y88100D01*
X97000Y87600D02*Y86100D01*
X95000D02*X99000D01*
X97000Y86900D02*X99000Y88100D01*
X95000Y91300D02*Y89300D01*
Y90300D02*X99000D01*
X95000Y95800D02*Y95000D01*
Y95800D02*X98500D01*
X99000Y95300D02*X98500Y95800D01*
X99000Y95300D02*Y94800D01*
X98500Y94300D02*X99000Y94800D01*
X98000Y94300D02*X98500D01*
X95000Y97500D02*X99000D01*
X95000Y99000D02*Y97000D01*
Y99000D02*X95500Y99500D01*
X96500D01*
X97000Y99000D02*X96500Y99500D01*
X97000Y99000D02*Y97500D01*
X95800Y100700D02*X95000Y101500D01*
X99000D01*
Y102200D02*Y100700D01*
X95000Y107200D02*Y105200D01*
Y106200D02*X99000D01*
X95500Y108400D02*X98500D01*
X95500D02*X95000Y108900D01*
Y109900D02*Y108900D01*
Y109900D02*X95500Y110400D01*
X98500D01*
X99000Y109900D02*X98500Y110400D01*
X99000Y109900D02*Y108900D01*
X98500Y108400D02*X99000Y108900D01*
X6000Y67000D02*X9000Y64000D01*
X5500Y62300D02*X9500D01*
Y61000D02*X8800Y60300D01*
X6200D02*X8800D01*
X5500Y61000D02*X6200Y60300D01*
X5500Y62800D02*Y61000D01*
X9500Y62800D02*Y61000D01*
X6000Y59100D02*X5500Y58600D01*
X6000Y59100D02*X6800D01*
X7500Y58400D01*
Y57800D01*
X6800Y57100D01*
X6000D02*X6800D01*
X5500Y57600D02*X6000Y57100D01*
X5500Y58600D02*Y57600D01*
X8200Y59100D02*X7500Y58400D01*
X8200Y59100D02*X9000D01*
X9500Y58600D01*
Y57600D01*
X9000Y57100D01*
X8200D02*X9000D01*
X7500Y57800D02*X8200Y57100D01*
X75500Y36000D02*X77500D01*
X76500Y37000D02*Y35000D01*
X64000Y50000D02*Y46000D01*
X63500Y50000D02*X65500D01*
X66000Y49500D01*
Y48500D01*
X65500Y48000D02*X66000Y48500D01*
X64000Y48000D02*X65500D01*
X67200Y50000D02*Y48000D01*
X67700Y46000D01*
X68700Y48000D01*
X69700Y46000D01*
X70200Y48000D01*
Y50000D02*Y48000D01*
X71400Y50000D02*X73400D01*
X73900Y49500D01*
Y48500D01*
X73400Y48000D02*X73900Y48500D01*
X71900Y48000D02*X73400D01*
X71900Y50000D02*Y46000D01*
X72700Y48000D02*X73900Y46000D01*
X51500Y58500D02*X53500D01*
X52500Y59500D02*Y57500D01*
X117000Y42000D02*X117500Y42500D01*
X117000Y42000D02*Y40500D01*
X117500Y40000D02*X117000Y40500D01*
X117500Y40000D02*X118500D01*
X119000Y40500D01*
Y42000D02*Y40500D01*
Y42000D02*X119500Y42500D01*
X120500D01*
X121000Y42000D02*X120500Y42500D01*
X121000Y42000D02*Y40500D01*
X120500Y40000D02*X121000Y40500D01*
X118800Y45200D02*Y43700D01*
X121000Y45700D02*Y43700D01*
X117000D02*X121000D01*
X117000Y45700D02*Y43700D01*
Y46900D02*X121000D01*
X117000D02*X121000Y49400D01*
X117000D02*X121000D01*
X117000Y52600D02*X117500Y53100D01*
X117000Y52600D02*Y51100D01*
X117500Y50600D02*X117000Y51100D01*
X117500Y50600D02*X118500D01*
X119000Y51100D01*
Y52600D02*Y51100D01*
Y52600D02*X119500Y53100D01*
X120500D01*
X121000Y52600D02*X120500Y53100D01*
X121000Y52600D02*Y51100D01*
X120500Y50600D02*X121000Y51100D01*
X117500Y54300D02*X120500D01*
X117500D02*X117000Y54800D01*
Y55800D02*Y54800D01*
Y55800D02*X117500Y56300D01*
X120500D01*
X121000Y55800D02*X120500Y56300D01*
X121000Y55800D02*Y54800D01*
X120500Y54300D02*X121000Y54800D01*
X117000Y59500D02*Y57500D01*
Y59500D02*X117500Y60000D01*
X118500D01*
X119000Y59500D02*X118500Y60000D01*
X119000Y59500D02*Y58000D01*
X117000D02*X121000D01*
X119000Y58800D02*X121000Y60000D01*
X120500Y63000D02*X121000Y63500D01*
X119700Y63000D02*X120500D01*
X119700D02*X119000Y63700D01*
Y64300D02*Y63700D01*
Y64300D02*X119700Y65000D01*
X120500D01*
X121000Y64500D02*X120500Y65000D01*
X121000Y64500D02*Y63500D01*
X118300Y63000D02*X119000Y63700D01*
X117500Y63000D02*X118300D01*
X117500D02*X117000Y63500D01*
Y64500D02*Y63500D01*
Y64500D02*X117500Y65000D01*
X118300D01*
X119000Y64300D02*X118300Y65000D01*
X82500Y24000D02*X84500D01*
X83500D02*Y20000D01*
X86200Y21500D02*Y20000D01*
Y21500D02*X86700Y22000D01*
X87700D01*
X85700D02*X86200Y21500D01*
X90400Y22000D02*X90900Y21500D01*
X89400Y22000D02*X90400D01*
X88900Y21500D02*X89400Y22000D01*
X88900Y21500D02*Y20500D01*
X89400Y20000D01*
X90900Y22000D02*Y20500D01*
X91400Y20000D01*
X89400D02*X90400D01*
X90900Y20500D01*
X92600Y23000D02*Y22900D01*
Y21500D02*Y20000D01*
X94100Y21500D02*Y20000D01*
Y21500D02*X94600Y22000D01*
X95100D01*
X95600Y21500D01*
Y20000D01*
X93600Y22000D02*X94100Y21500D01*
X98800Y24000D02*X99300Y23500D01*
X97300Y24000D02*X98800D01*
X96800Y23500D02*X97300Y24000D01*
X96800Y23500D02*Y22500D01*
X97300Y22000D01*
X98800D01*
X99300Y21500D01*
Y20500D01*
X98800Y20000D02*X99300Y20500D01*
X97300Y20000D02*X98800D01*
X96800Y20500D02*X97300Y20000D01*
X101000Y21500D02*Y18500D01*
X100500Y22000D02*X101000Y21500D01*
X101500Y22000D01*
X102500D01*
X103000Y21500D01*
Y20500D01*
X102500Y20000D02*X103000Y20500D01*
X101500Y20000D02*X102500D01*
X101000Y20500D02*X101500Y20000D01*
X104200Y21500D02*Y20500D01*
Y21500D02*X104700Y22000D01*
X105700D01*
X106200Y21500D01*
Y20500D01*
X105700Y20000D02*X106200Y20500D01*
X104700Y20000D02*X105700D01*
X104200Y20500D02*X104700Y20000D01*
X107900Y24000D02*Y20500D01*
X108400Y20000D01*
X107400Y22500D02*X108400D01*
X109900Y24000D02*Y20500D01*
X110400Y20000D01*
X109400Y22500D02*X110400D01*
X111900Y20000D02*X113400D01*
X111400Y20500D02*X111900Y20000D01*
X111400Y21500D02*Y20500D01*
Y21500D02*X111900Y22000D01*
X112900D01*
X113400Y21500D01*
X111400Y21000D02*X113400D01*
Y21500D02*Y21000D01*
X115100Y21500D02*Y20000D01*
Y21500D02*X115600Y22000D01*
X116600D01*
X114600D02*X115100Y21500D01*
X82500Y14500D02*X83000Y14000D01*
X82500Y15300D02*Y14500D01*
Y15300D02*X83200Y16000D01*
X83800D01*
X84500Y15300D01*
Y14500D01*
X84000Y14000D02*X84500Y14500D01*
X83000Y14000D02*X84000D01*
X82500Y16700D02*X83200Y16000D01*
X82500Y17500D02*Y16700D01*
Y17500D02*X83000Y18000D01*
X84000D01*
X84500Y17500D01*
Y16700D01*
X83800Y16000D02*X84500Y16700D01*
X88200Y14000D02*X89500D01*
X87500Y14700D02*X88200Y14000D01*
X87500Y17300D02*Y14700D01*
Y17300D02*X88200Y18000D01*
X89500D01*
X90700D02*Y14000D01*
Y15500D02*X91200Y16000D01*
X92200D01*
X92700Y15500D01*
Y14000D01*
X95400Y16000D02*X95900Y15500D01*
X94400Y16000D02*X95400D01*
X93900Y15500D02*X94400Y16000D01*
X93900Y15500D02*Y14500D01*
X94400Y14000D01*
X95900Y16000D02*Y14500D01*
X96400Y14000D01*
X94400D02*X95400D01*
X95900Y14500D01*
X98100Y15500D02*Y14000D01*
Y15500D02*X98600Y16000D01*
X99100D01*
X99600Y15500D01*
Y14000D01*
X97600Y16000D02*X98100Y15500D01*
X101300D02*Y14000D01*
Y15500D02*X101800Y16000D01*
X102300D01*
X102800Y15500D01*
Y14000D01*
X100800Y16000D02*X101300Y15500D01*
X104500Y14000D02*X106000D01*
X104000Y14500D02*X104500Y14000D01*
X104000Y15500D02*Y14500D01*
Y15500D02*X104500Y16000D01*
X105500D01*
X106000Y15500D01*
X104000Y15000D02*X106000D01*
Y15500D02*Y15000D01*
X107200Y18000D02*Y14500D01*
X107700Y14000D01*
X82500Y8000D02*X84500D01*
X85000Y8500D01*
Y9700D02*Y8500D01*
X84500Y10200D02*X85000Y9700D01*
X83000Y10200D02*X84500D01*
X83000Y12000D02*Y8000D01*
X82500Y12000D02*X84500D01*
X85000Y11500D01*
Y10700D01*
X84500Y10200D02*X85000Y10700D01*
X87700Y10000D02*X88200Y9500D01*
X86700Y10000D02*X87700D01*
X86200Y9500D02*X86700Y10000D01*
X86200Y9500D02*Y8500D01*
X86700Y8000D01*
X88200Y10000D02*Y8500D01*
X88700Y8000D01*
X86700D02*X87700D01*
X88200Y8500D01*
X90400Y8000D02*X91900D01*
X92400Y8500D01*
X91900Y9000D02*X92400Y8500D01*
X90400Y9000D02*X91900D01*
X89900Y9500D02*X90400Y9000D01*
X89900Y9500D02*X90400Y10000D01*
X91900D01*
X92400Y9500D01*
X89900Y8500D02*X90400Y8000D01*
X94100D02*X95600D01*
X93600Y8500D02*X94100Y8000D01*
X93600Y9500D02*Y8500D01*
Y9500D02*X94100Y10000D01*
X95100D01*
X95600Y9500D01*
X93600Y9000D02*X95600D01*
Y9500D02*Y9000D01*
G54D59*X139607Y341245D02*X140393D01*
X139607Y346755D02*X140393D01*
X129850Y319750D02*X140480D01*
X129850Y338250D02*X140480D01*
X129850Y323000D02*Y319750D01*
Y338250D02*Y335000D01*
X140480Y319929D02*Y319750D01*
Y338250D02*Y338071D01*
X135532Y305186D02*X139468D01*
X135532Y315814D02*X139468D01*
G54D60*X19500Y40500D02*X39500D01*
X19500Y50500D02*Y40500D01*
Y50500D02*X39500D01*
Y40500D01*
Y45500D02*X49500D01*
X9500D02*X19500D01*
G54D59*X60701Y121390D02*X73299D01*
Y107610D01*
X60701D01*
Y121390D01*
G54D60*X19500Y117000D02*X39500D01*
X19500Y127000D02*Y117000D01*
Y127000D02*X39500D01*
Y117000D01*
Y122000D02*X49500D01*
X9500D02*X19500D01*
Y102000D02*X39500D01*
X19500Y112000D02*Y102000D01*
Y112000D02*X39500D01*
Y102000D01*
Y107000D02*X49500D01*
X9500D02*X19500D01*
G54D59*X12000Y175500D02*Y129831D01*
X39559D01*
Y175500D01*
X12000D01*
Y99000D02*Y53331D01*
X39559D01*
Y99000D01*
X12000D01*
X60607Y90202D02*X61393D01*
X60607Y95712D02*X61393D01*
X44000Y70000D02*X57900D01*
Y81800D02*Y70000D01*
X44000Y81800D02*X57900D01*
X44000D02*Y70000D01*
X68107Y43755D02*X68893D01*
X68107Y38245D02*X68893D01*
X60607Y55745D02*X61393D01*
X60607Y61255D02*X61393D01*
X84107Y43755D02*X84893D01*
X84107Y38245D02*X84893D01*
X94201Y62890D02*X106799D01*
Y49110D01*
X94201D02*X106799D01*
X94201Y62890D02*Y49110D01*
X44000Y146500D02*X57900D01*
Y158300D02*Y146500D01*
X44000Y158300D02*X57900D01*
X44000D02*Y146500D01*
X60607Y208245D02*X61393D01*
X60607Y213755D02*X61393D01*
X60607Y242745D02*X61393D01*
X60607Y248255D02*X61393D01*
X91107Y223245D02*X91893D01*
X91107Y228755D02*X91893D01*
X12000Y251500D02*Y205831D01*
X39559D01*
Y251500D01*
X12000D01*
G54D60*X19500Y192500D02*X39500D01*
X19500Y202500D02*Y192500D01*
Y202500D02*X39500D01*
Y192500D01*
Y197500D02*X49500D01*
X9500D02*X19500D01*
G54D59*X44200Y222600D02*X58100D01*
Y234400D02*Y222600D01*
X44200Y234400D02*X58100D01*
X44200D02*Y222600D01*
G54D60*X19500Y269500D02*X39500D01*
X19500Y279500D02*Y269500D01*
Y279500D02*X39500D01*
Y269500D01*
Y274500D02*X49500D01*
X9500D02*X19500D01*
G54D59*X60607Y284245D02*X61393D01*
X60607Y289755D02*X61393D01*
X60701Y273890D02*X73299D01*
Y260110D01*
X60701D02*X73299D01*
X60701Y273890D02*Y260110D01*
X103201Y301390D02*X115799D01*
Y287610D01*
X103201D02*X115799D01*
X103201Y301390D02*Y287610D01*
X80401Y286500D02*X96601D01*
X80401Y264500D02*X96601D01*
X80401Y286500D02*Y264500D01*
X96601Y286500D02*Y264500D01*
X12000Y328000D02*Y282331D01*
X39559D01*
Y328000D01*
X12000D01*
X44000Y299000D02*X57900D01*
Y310800D02*Y299000D01*
X44000Y310800D02*X57900D01*
X44000D02*Y299000D01*
G54D60*X19500Y254500D02*X39500D01*
X19500Y264500D02*Y254500D01*
Y264500D02*X39500D01*
Y254500D01*
Y259500D02*X49500D01*
X9500D02*X19500D01*
Y331000D02*X39500D01*
X19500Y341000D02*Y331000D01*
Y341000D02*X39500D01*
Y331000D01*
Y336000D02*X49500D01*
X9500D02*X19500D01*
G54D59*X60564Y319245D02*X61350D01*
X60564Y324755D02*X61350D01*
X39713Y380728D02*X85382D01*
X39713D02*Y353169D01*
X85382D01*
Y380728D02*Y353169D01*
X90700Y380500D02*Y359500D01*
X100300Y380500D02*Y359500D01*
X90700Y380500D02*X100300D01*
X90700Y359500D02*X100300D01*
X90700Y372500D02*X100300D01*
X60564Y132245D02*X61350D01*
X60564Y137755D02*X61350D01*
X80255Y137393D02*Y136607D01*
X74745Y137393D02*Y136607D01*
X87701Y132610D02*X100299D01*
X87701Y146390D02*Y132610D01*
Y146390D02*X100299D01*
Y132610D01*
X88693Y162712D02*X89479D01*
X88693Y157202D02*X89479D01*
X60564Y166745D02*X61350D01*
X60564Y172255D02*X61350D01*
G54D60*X19500Y178500D02*X39500D01*
X19500Y188500D02*Y178500D01*
Y188500D02*X39500D01*
Y178500D01*
Y183500D02*X49500D01*
X9500D02*X19500D01*
G54D57*X77121Y202879D02*Y179021D01*
Y202879D02*X103879D01*
Y176121D01*
X80021D02*X103879D01*
X80021D02*X77121Y179021D01*
X80021Y178021D02*G75*G03X80021Y178021I0J1000D01*G01*
G54D58*X138200Y350500D02*X139500D01*
X137500Y351200D02*X138200Y350500D01*
X137500Y353800D02*Y351200D01*
Y353800D02*X138200Y354500D01*
X139500D01*
X140700Y353700D02*X141500Y354500D01*
Y350500D01*
X140700D02*X142200D01*
X108000Y331000D02*Y327500D01*
X108500Y327000D01*
X109500D01*
X110000Y327500D01*
Y331000D02*Y327500D01*
X111200Y330200D02*X112000Y331000D01*
Y327000D01*
X111200D02*X112700D01*
X58500Y296000D02*Y292000D01*
X59800Y296000D02*X60500Y295300D01*
Y292700D01*
X59800Y292000D02*X60500Y292700D01*
X58000Y292000D02*X59800D01*
X58000Y296000D02*X59800D01*
X61700Y293500D02*X63700Y296000D01*
X61700Y293500D02*X64200D01*
X63700Y296000D02*Y292000D01*
X119500Y299000D02*X121500D01*
X122000Y298500D01*
Y297500D01*
X121500Y297000D02*X122000Y297500D01*
X120000Y297000D02*X121500D01*
X120000Y299000D02*Y295000D01*
X120800Y297000D02*X122000Y295000D01*
X123200Y298500D02*X123700Y299000D01*
X125200D01*
X125700Y298500D01*
Y297500D01*
X123200Y295000D02*X125700Y297500D01*
X123200Y295000D02*X125700D01*
X44000Y298000D02*Y294500D01*
X44500Y294000D01*
X45500D01*
X46000Y294500D01*
Y298000D02*Y294500D01*
X47200Y297500D02*X47700Y298000D01*
X48700D01*
X49200Y297500D01*
X48700Y294000D02*X49200Y294500D01*
X47700Y294000D02*X48700D01*
X47200Y294500D02*X47700Y294000D01*
Y296200D02*X48700D01*
X49200Y297500D02*Y296700D01*
Y295700D02*Y294500D01*
Y295700D02*X48700Y296200D01*
X49200Y296700D02*X48700Y296200D01*
X120700Y308500D02*X122000D01*
X120000Y309200D02*X120700Y308500D01*
X120000Y311800D02*Y309200D01*
Y311800D02*X120700Y312500D01*
X122000D01*
X123200Y312000D02*X123700Y312500D01*
X125200D01*
X125700Y312000D01*
Y311000D01*
X123200Y308500D02*X125700Y311000D01*
X123200Y308500D02*X125700D01*
X127700Y262000D02*X128500D01*
Y258500D01*
X128000Y258000D02*X128500Y258500D01*
X127500Y258000D02*X128000D01*
X127000Y258500D02*X127500Y258000D01*
X127000Y259000D02*Y258500D01*
X130200Y258000D02*X132200Y262000D01*
X129700D02*X132200D01*
X127700Y197500D02*X128500D01*
Y194000D01*
X128000Y193500D02*X128500Y194000D01*
X127500Y193500D02*X128000D01*
X127000Y194000D02*X127500Y193500D01*
X127000Y194500D02*Y194000D01*
X130200Y193500D02*X131700Y195500D01*
Y197000D02*Y195500D01*
X131200Y197500D02*X131700Y197000D01*
X130200Y197500D02*X131200D01*
X129700Y197000D02*X130200Y197500D01*
X129700Y197000D02*Y196000D01*
X130200Y195500D01*
X131700D01*
X127700Y229500D02*X128500D01*
Y226000D01*
X128000Y225500D02*X128500Y226000D01*
X127500Y225500D02*X128000D01*
X127000Y226000D02*X127500Y225500D01*
X127000Y226500D02*Y226000D01*
X129700D02*X130200Y225500D01*
X129700Y226800D02*Y226000D01*
Y226800D02*X130400Y227500D01*
X131000D01*
X131700Y226800D01*
Y226000D01*
X131200Y225500D02*X131700Y226000D01*
X130200Y225500D02*X131200D01*
X129700Y228200D02*X130400Y227500D01*
X129700Y229000D02*Y228200D01*
Y229000D02*X130200Y229500D01*
X131200D01*
X131700Y229000D01*
Y228200D01*
X131000Y227500D02*X131700Y228200D01*
X79499Y262500D02*X81499D01*
X81999Y262000D01*
Y261000D01*
X81499Y260500D02*X81999Y261000D01*
X79999Y260500D02*X81499D01*
X79999Y262500D02*Y258500D01*
X80799Y260500D02*X81999Y258500D01*
X83699D02*X85699Y262500D01*
X83199D02*X85699D01*
X100114Y258586D02*X100914D01*
Y255086D01*
X100414Y254586D02*X100914Y255086D01*
X99914Y254586D02*X100414D01*
X99414Y255086D02*X99914Y254586D01*
X99414Y255586D02*Y255086D01*
X102114Y258086D02*X102614Y258586D01*
X104114D01*
X104614Y258086D01*
Y257086D01*
X102114Y254586D02*X104614Y257086D01*
X102114Y254586D02*X104614D01*
X103500Y379500D02*Y375500D01*
X104800Y379500D02*X105500Y378800D01*
Y376200D01*
X104800Y375500D02*X105500Y376200D01*
X103000Y375500D02*X104800D01*
X103000Y379500D02*X104800D01*
X106700Y378700D02*X107500Y379500D01*
Y375500D01*
X106700D02*X108200D01*
X127700Y37000D02*X128500D01*
Y33500D01*
X128000Y33000D02*X128500Y33500D01*
X127500Y33000D02*X128000D01*
X127000Y33500D02*X127500Y33000D01*
X127000Y34000D02*Y33500D01*
X129700Y36200D02*X130500Y37000D01*
Y33000D01*
X129700D02*X131200D01*
X132400Y34500D02*X134400Y37000D01*
X132400Y34500D02*X134900D01*
X134400Y37000D02*Y33000D01*
X127700Y101000D02*X128500D01*
Y97500D01*
X128000Y97000D02*X128500Y97500D01*
X127500Y97000D02*X128000D01*
X127000Y97500D02*X127500Y97000D01*
X127000Y98000D02*Y97500D01*
X129700Y100200D02*X130500Y101000D01*
Y97000D01*
X129700D02*X131200D01*
X132400Y100500D02*X132900Y101000D01*
X134400D01*
X134900Y100500D01*
Y99500D01*
X132400Y97000D02*X134900Y99500D01*
X132400Y97000D02*X134900D01*
X127700Y69000D02*X128500D01*
Y65500D01*
X128000Y65000D02*X128500Y65500D01*
X127500Y65000D02*X128000D01*
X127000Y65500D02*X127500Y65000D01*
X127000Y66000D02*Y65500D01*
X129700Y68200D02*X130500Y69000D01*
Y65000D01*
X129700D02*X131200D01*
X132400Y68500D02*X132900Y69000D01*
X133900D01*
X134400Y68500D01*
X133900Y65000D02*X134400Y65500D01*
X132900Y65000D02*X133900D01*
X132400Y65500D02*X132900Y65000D01*
Y67200D02*X133900D01*
X134400Y68500D02*Y67700D01*
Y66700D02*Y65500D01*
Y66700D02*X133900Y67200D01*
X134400Y67700D02*X133900Y67200D01*
X27000Y43500D02*X29500Y47500D01*
X27000D02*X29500Y43500D01*
X30700Y44000D02*X31200Y43500D01*
X30700Y44800D02*Y44000D01*
Y44800D02*X31400Y45500D01*
X32000D01*
X32700Y44800D01*
Y44000D01*
X32200Y43500D02*X32700Y44000D01*
X31200Y43500D02*X32200D01*
X30700Y46200D02*X31400Y45500D01*
X30700Y47000D02*Y46200D01*
Y47000D02*X31200Y47500D01*
X32200D01*
X32700Y47000D01*
Y46200D01*
X32000Y45500D02*X32700Y46200D01*
X52500Y116000D02*X54500D01*
X55000Y115500D01*
Y114500D01*
X54500Y114000D02*X55000Y114500D01*
X53000Y114000D02*X54500D01*
X53000Y116000D02*Y112000D01*
X53800Y114000D02*X55000Y112000D01*
X57700Y116000D02*X58200Y115500D01*
X56700Y116000D02*X57700D01*
X56200Y115500D02*X56700Y116000D01*
X56200Y115500D02*Y112500D01*
X56700Y112000D01*
X57700Y114200D02*X58200Y113700D01*
X56200Y114200D02*X57700D01*
X56700Y112000D02*X57700D01*
X58200Y112500D01*
Y113700D02*Y112500D01*
X26500Y120000D02*X29000Y124000D01*
X26500D02*X29000Y120000D01*
X31700Y124000D02*X32200Y123500D01*
X30700Y124000D02*X31700D01*
X30200Y123500D02*X30700Y124000D01*
X30200Y123500D02*Y120500D01*
X30700Y120000D01*
X31700Y122200D02*X32200Y121700D01*
X30200Y122200D02*X31700D01*
X30700Y120000D02*X31700D01*
X32200Y120500D01*
Y121700D02*Y120500D01*
X26500Y105000D02*X29000Y109000D01*
X26500D02*X29000Y105000D01*
X30700D02*X32700Y109000D01*
X30200D02*X32700D01*
X41700Y175500D02*X42500D01*
Y172000D01*
X42000Y171500D02*X42500Y172000D01*
X41500Y171500D02*X42000D01*
X41000Y172000D02*X41500Y171500D01*
X41000Y172500D02*Y172000D01*
X43700Y175500D02*X45700D01*
X43700D02*Y173500D01*
X44200Y174000D01*
X45200D01*
X45700Y173500D01*
Y172000D01*
X45200Y171500D02*X45700Y172000D01*
X44200Y171500D02*X45200D01*
X43700Y172000D02*X44200Y171500D01*
X26500Y181500D02*X29000Y185500D01*
X26500D02*X29000Y181500D01*
X30200Y185500D02*X32200D01*
X30200D02*Y183500D01*
X30700Y184000D01*
X31700D01*
X32200Y183500D01*
Y182000D01*
X31700Y181500D02*X32200Y182000D01*
X30700Y181500D02*X31700D01*
X30200Y182000D02*X30700Y181500D01*
X61000Y187500D02*Y184000D01*
X61500Y183500D01*
X62500D01*
X63000Y184000D01*
Y187500D02*Y184000D01*
X64200Y187000D02*X64700Y187500D01*
X66200D01*
X66700Y187000D01*
Y186000D01*
X64200Y183500D02*X66700Y186000D01*
X64200Y183500D02*X66700D01*
X44000Y145500D02*Y142000D01*
X44500Y141500D01*
X45500D01*
X46000Y142000D01*
Y145500D02*Y142000D01*
X47200Y145500D02*X49200D01*
X47200D02*Y143500D01*
X47700Y144000D01*
X48700D01*
X49200Y143500D01*
Y142000D01*
X48700Y141500D02*X49200Y142000D01*
X47700Y141500D02*X48700D01*
X47200Y142000D02*X47700Y141500D01*
X58457Y219500D02*Y215500D01*
X59757Y219500D02*X60457Y218800D01*
Y216200D01*
X59757Y215500D02*X60457Y216200D01*
X57957Y215500D02*X59757D01*
X57957Y219500D02*X59757D01*
X63157D02*X63657Y219000D01*
X62157Y219500D02*X63157D01*
X61657Y219000D02*X62157Y219500D01*
X61657Y219000D02*Y216000D01*
X62157Y215500D01*
X63157Y217700D02*X63657Y217200D01*
X61657Y217700D02*X63157D01*
X62157Y215500D02*X63157D01*
X63657Y216000D01*
Y217200D02*Y216000D01*
X57500Y240500D02*Y236500D01*
X58800Y240500D02*X59500Y239800D01*
Y237200D01*
X58800Y236500D02*X59500Y237200D01*
X57000Y236500D02*X58800D01*
X57000Y240500D02*X58800D01*
X60700D02*X62700D01*
X60700D02*Y238500D01*
X61200Y239000D01*
X62200D01*
X62700Y238500D01*
Y237000D01*
X62200Y236500D02*X62700Y237000D01*
X61200Y236500D02*X62200D01*
X60700Y237000D02*X61200Y236500D01*
X79200Y224000D02*X80500D01*
X78500Y224700D02*X79200Y224000D01*
X78500Y227300D02*Y224700D01*
Y227300D02*X79200Y228000D01*
X80500D01*
X81700Y227500D02*X82200Y228000D01*
X83200D01*
X83700Y227500D01*
X83200Y224000D02*X83700Y224500D01*
X82200Y224000D02*X83200D01*
X81700Y224500D02*X82200Y224000D01*
Y226200D02*X83200D01*
X83700Y227500D02*Y226700D01*
Y225700D02*Y224500D01*
Y225700D02*X83200Y226200D01*
X83700Y226700D02*X83200Y226200D01*
X42200Y327500D02*X43000D01*
Y324000D01*
X42500Y323500D02*X43000Y324000D01*
X42000Y323500D02*X42500D01*
X41500Y324000D02*X42000Y323500D01*
X41500Y324500D02*Y324000D01*
X44200Y327000D02*X44700Y327500D01*
X45700D01*
X46200Y327000D01*
X45700Y323500D02*X46200Y324000D01*
X44700Y323500D02*X45700D01*
X44200Y324000D02*X44700Y323500D01*
Y325700D02*X45700D01*
X46200Y327000D02*Y326200D01*
Y325200D02*Y324000D01*
Y325200D02*X45700Y325700D01*
X46200Y326200D02*X45700Y325700D01*
X26000Y272500D02*X28500Y276500D01*
X26000D02*X28500Y272500D01*
X29700Y276000D02*X30200Y276500D01*
X31700D01*
X32200Y276000D01*
Y275000D01*
X29700Y272500D02*X32200Y275000D01*
X29700Y272500D02*X32200D01*
X53000Y268500D02*X55000D01*
X55500Y268000D01*
Y267000D01*
X55000Y266500D02*X55500Y267000D01*
X53500Y266500D02*X55000D01*
X53500Y268500D02*Y264500D01*
X54300Y266500D02*X55500Y264500D01*
X56700Y268500D02*X58700D01*
X56700D02*Y266500D01*
X57200Y267000D01*
X58200D01*
X58700Y266500D01*
Y265000D01*
X58200Y264500D02*X58700Y265000D01*
X57200Y264500D02*X58200D01*
X56700Y265000D02*X57200Y264500D01*
X26500Y257500D02*X29000Y261500D01*
X26500D02*X29000Y257500D01*
X30200Y261000D02*X30700Y261500D01*
X31700D01*
X32200Y261000D01*
X31700Y257500D02*X32200Y258000D01*
X30700Y257500D02*X31700D01*
X30200Y258000D02*X30700Y257500D01*
Y259700D02*X31700D01*
X32200Y261000D02*Y260200D01*
Y259200D02*Y258000D01*
Y259200D02*X31700Y259700D01*
X32200Y260200D02*X31700Y259700D01*
X42700Y250500D02*X43500D01*
Y247000D01*
X43000Y246500D02*X43500Y247000D01*
X42500Y246500D02*X43000D01*
X42000Y247000D02*X42500Y246500D01*
X42000Y247500D02*Y247000D01*
X44700Y248000D02*X46700Y250500D01*
X44700Y248000D02*X47200D01*
X46700Y250500D02*Y246500D01*
X27000Y195500D02*X29500Y199500D01*
X27000D02*X29500Y195500D01*
X30700Y197000D02*X32700Y199500D01*
X30700Y197000D02*X33200D01*
X32700Y199500D02*Y195500D01*
X44200Y221600D02*Y218100D01*
X44700Y217600D01*
X45700D01*
X46200Y218100D01*
Y221600D02*Y218100D01*
X47400Y219100D02*X49400Y221600D01*
X47400Y219100D02*X49900D01*
X49400Y221600D02*Y217600D01*
X27000Y334000D02*X29500Y338000D01*
X27000D02*X29500Y334000D01*
X30700Y337200D02*X31500Y338000D01*
Y334000D01*
X30700D02*X32200D01*
X58543Y331000D02*Y327000D01*
X59843Y331000D02*X60543Y330300D01*
Y327700D01*
X59843Y327000D02*X60543Y327700D01*
X58043Y327000D02*X59843D01*
X58043Y331000D02*X59843D01*
X61743Y330500D02*X62243Y331000D01*
X63243D01*
X63743Y330500D01*
X63243Y327000D02*X63743Y327500D01*
X62243Y327000D02*X63243D01*
X61743Y327500D02*X62243Y327000D01*
Y329200D02*X63243D01*
X63743Y330500D02*Y329700D01*
Y328700D02*Y327500D01*
Y328700D02*X63243Y329200D01*
X63743Y329700D02*X63243Y329200D01*
X35472Y360882D02*X36272D01*
Y357382D01*
X35772Y356882D02*X36272Y357382D01*
X35272Y356882D02*X35772D01*
X34772Y357382D02*X35272Y356882D01*
X34772Y357882D02*Y357382D01*
X37472Y360082D02*X38272Y360882D01*
Y356882D01*
X37472D02*X38972D01*
X59043Y143500D02*Y139500D01*
X60343Y143500D02*X61043Y142800D01*
Y140200D01*
X60343Y139500D02*X61043Y140200D01*
X58543Y139500D02*X60343D01*
X58543Y143500D02*X60343D01*
X62243Y140000D02*X62743Y139500D01*
X62243Y140800D02*Y140000D01*
Y140800D02*X62943Y141500D01*
X63543D01*
X64243Y140800D01*
Y140000D01*
X63743Y139500D02*X64243Y140000D01*
X62743Y139500D02*X63743D01*
X62243Y142200D02*X62943Y141500D01*
X62243Y143000D02*Y142200D01*
Y143000D02*X62743Y143500D01*
X63743D01*
X64243Y143000D01*
Y142200D01*
X63543Y141500D02*X64243Y142200D01*
X127700Y133500D02*X128500D01*
Y130000D01*
X128000Y129500D02*X128500Y130000D01*
X127500Y129500D02*X128000D01*
X127000Y130000D02*X127500Y129500D01*
X127000Y130500D02*Y130000D01*
X129700Y132700D02*X130500Y133500D01*
Y129500D01*
X129700D02*X131200D01*
X132400Y132700D02*X133200Y133500D01*
Y129500D01*
X132400D02*X133900D01*
X75200Y124500D02*X76500D01*
X74500Y125200D02*X75200Y124500D01*
X74500Y127800D02*Y125200D01*
Y127800D02*X75200Y128500D01*
X76500D01*
X77700Y126000D02*X79700Y128500D01*
X77700Y126000D02*X80200D01*
X79700Y128500D02*Y124500D01*
X93500Y130500D02*X95500D01*
X96000Y130000D01*
Y129000D01*
X95500Y128500D02*X96000Y129000D01*
X94000Y128500D02*X95500D01*
X94000Y130500D02*Y126500D01*
X94800Y128500D02*X96000Y126500D01*
X97200Y128000D02*X99200Y130500D01*
X97200Y128000D02*X99700D01*
X99200Y130500D02*Y126500D01*
X58543Y165000D02*Y161000D01*
X59843Y165000D02*X60543Y164300D01*
Y161700D01*
X59843Y161000D02*X60543Y161700D01*
X58043Y161000D02*X59843D01*
X58043Y165000D02*X59843D01*
X62243Y161000D02*X64243Y165000D01*
X61743D02*X64243D01*
X127700Y165500D02*X128500D01*
Y162000D01*
X128000Y161500D02*X128500Y162000D01*
X127500Y161500D02*X128000D01*
X127000Y162000D02*X127500Y161500D01*
X127000Y162500D02*Y162000D01*
X129700Y164700D02*X130500Y165500D01*
Y161500D01*
X129700D02*X131200D01*
X132400Y162000D02*X132900Y161500D01*
X132400Y165000D02*Y162000D01*
Y165000D02*X132900Y165500D01*
X133900D01*
X134400Y165000D01*
Y162000D01*
X133900Y161500D02*X134400Y162000D01*
X132900Y161500D02*X133900D01*
X132400Y162500D02*X134400Y164500D01*
X75550Y155779D02*X76850D01*
X74850Y156479D02*X75550Y155779D01*
X74850Y159079D02*Y156479D01*
Y159079D02*X75550Y159779D01*
X76850D01*
X78050D02*X80050D01*
X78050D02*Y157779D01*
X78550Y158279D01*
X79550D01*
X80050Y157779D01*
Y156279D01*
X79550Y155779D02*X80050Y156279D01*
X78550Y155779D02*X79550D01*
X78050Y156279D02*X78550Y155779D01*
X84505Y97000D02*Y96200D01*
Y97000D02*X88005D01*
X88505Y96500D02*X88005Y97000D01*
X88505Y96500D02*Y96000D01*
X88005Y95500D02*X88505Y96000D01*
X87505Y95500D02*X88005D01*
X84505Y98700D02*X88505D01*
X84505Y100200D02*Y98200D01*
Y100200D02*X85005Y100700D01*
X86005D01*
X86505Y100200D02*X86005Y100700D01*
X86505Y100200D02*Y98700D01*
X85305Y101900D02*X84505Y102700D01*
X88505D01*
Y103400D02*Y101900D01*
X61000Y88043D02*Y84043D01*
X62300Y88043D02*X63000Y87343D01*
Y84743D01*
X62300Y84043D02*X63000Y84743D01*
X60500Y84043D02*X62300D01*
X60500Y88043D02*X62300D01*
X64700Y84043D02*X66200Y86043D01*
Y87543D02*Y86043D01*
X65700Y88043D02*X66200Y87543D01*
X64700Y88043D02*X65700D01*
X64200Y87543D02*X64700Y88043D01*
X64200Y87543D02*Y86543D01*
X64700Y86043D01*
X66200D01*
X44000Y69000D02*Y65500D01*
X44500Y65000D01*
X45500D01*
X46000Y65500D01*
Y69000D02*Y65500D01*
X48700Y69000D02*X49200Y68500D01*
X47700Y69000D02*X48700D01*
X47200Y68500D02*X47700Y69000D01*
X47200Y68500D02*Y65500D01*
X47700Y65000D01*
X48700Y67200D02*X49200Y66700D01*
X47200Y67200D02*X48700D01*
X47700Y65000D02*X48700D01*
X49200Y65500D01*
Y66700D02*Y65500D01*
X42200Y99000D02*X43000D01*
Y95500D01*
X42500Y95000D02*X43000Y95500D01*
X42000Y95000D02*X42500D01*
X41500Y95500D02*X42000Y95000D01*
X41500Y96000D02*Y95500D01*
X45700Y99000D02*X46200Y98500D01*
X44700Y99000D02*X45700D01*
X44200Y98500D02*X44700Y99000D01*
X44200Y98500D02*Y95500D01*
X44700Y95000D01*
X45700Y97200D02*X46200Y96700D01*
X44200Y97200D02*X45700D01*
X44700Y95000D02*X45700D01*
X46200Y95500D01*
Y96700D02*Y95500D01*
X55000Y40000D02*Y36000D01*
X56300Y40000D02*X57000Y39300D01*
Y36700D01*
X56300Y36000D02*X57000Y36700D01*
X54500Y36000D02*X56300D01*
X54500Y40000D02*X56300D01*
X58200Y39500D02*X58700Y40000D01*
X60200D01*
X60700Y39500D01*
Y38500D01*
X58200Y36000D02*X60700Y38500D01*
X58200Y36000D02*X60700D01*
X57000Y67000D02*Y63000D01*
X58300Y67000D02*X59000Y66300D01*
Y63700D01*
X58300Y63000D02*X59000Y63700D01*
X56500Y63000D02*X58300D01*
X56500Y67000D02*X58300D01*
X60200Y66200D02*X61000Y67000D01*
Y63000D01*
X60200D02*X61700D01*
X62900Y63500D02*X63400Y63000D01*
X62900Y66500D02*Y63500D01*
Y66500D02*X63400Y67000D01*
X64400D01*
X64900Y66500D01*
Y63500D01*
X64400Y63000D02*X64900Y63500D01*
X63400Y63000D02*X64400D01*
X62900Y64000D02*X64900Y66000D01*
X92850Y43150D02*X94850D01*
X95350Y42650D01*
Y41650D01*
X94850Y41150D02*X95350Y41650D01*
X93350Y41150D02*X94850D01*
X93350Y43150D02*Y39150D01*
X94150Y41150D02*X95350Y39150D01*
X96550Y42350D02*X97350Y43150D01*
Y39150D01*
X96550D02*X98050D01*
X86652Y62075D02*X88652D01*
X89152Y61575D01*
Y60575D01*
X88652Y60075D02*X89152Y60575D01*
X87152Y60075D02*X88652D01*
X87152Y62075D02*Y58075D01*
X87952Y60075D02*X89152Y58075D01*
X90352Y61575D02*X90852Y62075D01*
X91852D01*
X92352Y61575D01*
X91852Y58075D02*X92352Y58575D01*
X90852Y58075D02*X91852D01*
X90352Y58575D02*X90852Y58075D01*
Y60275D02*X91852D01*
X92352Y61575D02*Y60775D01*
Y59775D02*Y58575D01*
Y59775D02*X91852Y60275D01*
X92352Y60775D02*X91852Y60275D01*
M02*
