G04 start of page 11 for group -4015 idx -4015 *
G04 Title: (unknown), toppaste *
G04 Creator: pcb 4.0.2 *
G04 CreationDate: Wed Apr 29 00:27:18 2020 UTC *
G04 For: ndholmes *
G04 Format: Gerber/RS-274X *
G04 PCB-Dimensions (mil): 1500.00 3900.00 *
G04 PCB-Coordinate-Origin: lower left *
%MOIN*%
%FSLAX25Y25*%
%LNTOPPASTE*%
%ADD63C,0.0001*%
%ADD62C,0.0600*%
G54D62*X83500Y108500D03*
G54D63*G36*
X86500Y111500D02*X83500D01*
Y105500D01*
X86500D01*
Y111500D01*
G37*
G54D62*X90300Y108500D03*
G54D63*G36*
Y111500D02*X87300D01*
Y105500D01*
X90300D01*
Y111500D01*
G37*
G36*
X67516Y43952D02*X62398D01*
Y38048D01*
X67516D01*
Y43952D01*
G37*
G36*
X74602D02*X69484D01*
Y38048D01*
X74602D01*
Y43952D01*
G37*
G36*
X67102Y61452D02*X61984D01*
Y55548D01*
X67102D01*
Y61452D01*
G37*
G36*
X60016D02*X54898D01*
Y55548D01*
X60016D01*
Y61452D01*
G37*
G36*
X67102Y95909D02*X61984D01*
Y90005D01*
X67102D01*
Y95909D01*
G37*
G36*
X60016D02*X54898D01*
Y90005D01*
X60016D01*
Y95909D01*
G37*
G36*
X53000Y73200D02*Y70800D01*
X57000D01*
Y73200D01*
X53000D01*
G37*
G36*
Y77100D02*Y74700D01*
X57000D01*
Y77100D01*
X53000D01*
G37*
G36*
Y81000D02*Y78600D01*
X57000D01*
Y81000D01*
X53000D01*
G37*
G36*
X44800D02*Y78600D01*
X48800D01*
Y81000D01*
X44800D01*
G37*
G36*
Y77100D02*Y74700D01*
X48800D01*
Y77100D01*
X44800D01*
G37*
G36*
Y73200D02*Y70800D01*
X48800D01*
Y73200D01*
X44800D01*
G37*
G36*
X67059Y137952D02*X61941D01*
Y132048D01*
X67059D01*
Y137952D01*
G37*
G36*
X59973D02*X54855D01*
Y132048D01*
X59973D01*
Y137952D01*
G37*
G36*
X67059Y172452D02*X61941D01*
Y166548D01*
X67059D01*
Y172452D01*
G37*
G36*
X59973D02*X54855D01*
Y166548D01*
X59973D01*
Y172452D01*
G37*
G36*
X67102Y213952D02*X61984D01*
Y208048D01*
X67102D01*
Y213952D01*
G37*
G36*
X60016D02*X54898D01*
Y208048D01*
X60016D01*
Y213952D01*
G37*
G36*
X67102Y248452D02*X61984D01*
Y242548D01*
X67102D01*
Y248452D01*
G37*
G36*
X60016D02*X54898D01*
Y242548D01*
X60016D01*
Y248452D01*
G37*
G36*
X67102Y289952D02*X61984D01*
Y284048D01*
X67102D01*
Y289952D01*
G37*
G36*
X60016D02*X54898D01*
Y284048D01*
X60016D01*
Y289952D01*
G37*
G36*
X126949Y46775D02*Y44413D01*
X133051D01*
Y46775D01*
X126949D01*
G37*
G36*
Y50712D02*Y48350D01*
X133051D01*
Y50712D01*
X126949D01*
G37*
G36*
Y54650D02*Y52288D01*
X133051D01*
Y54650D01*
X126949D01*
G37*
G36*
Y58587D02*Y56225D01*
X133051D01*
Y58587D01*
X126949D01*
G37*
G36*
X141713Y42838D02*Y38114D01*
X148799D01*
Y42838D01*
X141713D01*
G37*
G36*
Y64886D02*Y60162D01*
X148799D01*
Y64886D01*
X141713D01*
G37*
G36*
X126949Y142775D02*Y140413D01*
X133051D01*
Y142775D01*
X126949D01*
G37*
G36*
Y146712D02*Y144350D01*
X133051D01*
Y146712D01*
X126949D01*
G37*
G36*
Y150650D02*Y148288D01*
X133051D01*
Y150650D01*
X126949D01*
G37*
G36*
Y154587D02*Y152225D01*
X133051D01*
Y154587D01*
X126949D01*
G37*
G36*
X141713Y138838D02*Y134114D01*
X148799D01*
Y138838D01*
X141713D01*
G37*
G36*
Y160886D02*Y156162D01*
X148799D01*
Y160886D01*
X141713D01*
G37*
G36*
X126949Y110775D02*Y108413D01*
X133051D01*
Y110775D01*
X126949D01*
G37*
G36*
Y114712D02*Y112350D01*
X133051D01*
Y114712D01*
X126949D01*
G37*
G36*
Y118650D02*Y116288D01*
X133051D01*
Y118650D01*
X126949D01*
G37*
G36*
Y122587D02*Y120225D01*
X133051D01*
Y122587D01*
X126949D01*
G37*
G36*
X141713Y106838D02*Y102114D01*
X148799D01*
Y106838D01*
X141713D01*
G37*
G36*
Y128886D02*Y124162D01*
X148799D01*
Y128886D01*
X141713D01*
G37*
G36*
X126949Y78775D02*Y76413D01*
X133051D01*
Y78775D01*
X126949D01*
G37*
G36*
Y82712D02*Y80350D01*
X133051D01*
Y82712D01*
X126949D01*
G37*
G36*
Y86650D02*Y84288D01*
X133051D01*
Y86650D01*
X126949D01*
G37*
G36*
Y90587D02*Y88225D01*
X133051D01*
Y90587D01*
X126949D01*
G37*
G36*
X141713Y74838D02*Y70114D01*
X148799D01*
Y74838D01*
X141713D01*
G37*
G36*
Y96886D02*Y92162D01*
X148799D01*
Y96886D01*
X141713D01*
G37*
G36*
X146102Y346952D02*X140984D01*
Y341048D01*
X146102D01*
Y346952D01*
G37*
G36*
X139016D02*X133898D01*
Y341048D01*
X139016D01*
Y346952D01*
G37*
G36*
X67059Y324952D02*X61941D01*
Y319048D01*
X67059D01*
Y324952D01*
G37*
G36*
X59973D02*X54855D01*
Y319048D01*
X59973D01*
Y324952D01*
G37*
G36*
X61880Y272560D02*Y270888D01*
X65424D01*
Y272560D01*
X61880D01*
G37*
G36*
Y269412D02*Y267738D01*
X65424D01*
Y269412D01*
X61880D01*
G37*
G36*
Y266262D02*Y264588D01*
X65424D01*
Y266262D01*
X61880D01*
G37*
G36*
Y263112D02*Y261440D01*
X65424D01*
Y263112D01*
X61880D01*
G37*
G36*
X68576D02*Y261440D01*
X72120D01*
Y263112D01*
X68576D01*
G37*
G36*
Y266262D02*Y264588D01*
X72120D01*
Y266262D01*
X68576D01*
G37*
G36*
Y269412D02*Y267738D01*
X72120D01*
Y269412D01*
X68576D01*
G37*
G36*
Y272560D02*Y270888D01*
X72120D01*
Y272560D01*
X68576D01*
G37*
G36*
X74548Y143102D02*Y137984D01*
X80452D01*
Y143102D01*
X74548D01*
G37*
G36*
Y136016D02*Y130898D01*
X80452D01*
Y136016D01*
X74548D01*
G37*
G36*
X97602Y228952D02*X92484D01*
Y223048D01*
X97602D01*
Y228952D01*
G37*
G36*
X90516D02*X85398D01*
Y223048D01*
X90516D01*
Y228952D01*
G37*
G36*
X104380Y300060D02*Y298388D01*
X107923D01*
Y300060D01*
X104380D01*
G37*
G36*
Y296912D02*Y295238D01*
X107923D01*
Y296912D01*
X104380D01*
G37*
G36*
Y293762D02*Y292088D01*
X107923D01*
Y293762D01*
X104380D01*
G37*
G36*
Y290612D02*Y288940D01*
X107923D01*
Y290612D01*
X104380D01*
G37*
G36*
X111077D02*Y288940D01*
X114620D01*
Y290612D01*
X111077D01*
G37*
G36*
Y293762D02*Y292088D01*
X114620D01*
Y293762D01*
X111077D01*
G37*
G36*
Y296912D02*Y295238D01*
X114620D01*
Y296912D01*
X111077D01*
G37*
G36*
Y300060D02*Y298388D01*
X114620D01*
Y300060D01*
X111077D01*
G37*
G36*
X126949Y270775D02*Y268413D01*
X133051D01*
Y270775D01*
X126949D01*
G37*
G36*
Y274712D02*Y272350D01*
X133051D01*
Y274712D01*
X126949D01*
G37*
G36*
Y278650D02*Y276288D01*
X133051D01*
Y278650D01*
X126949D01*
G37*
G36*
Y282587D02*Y280225D01*
X133051D01*
Y282587D01*
X126949D01*
G37*
G36*
X141713Y266838D02*Y262114D01*
X148799D01*
Y266838D01*
X141713D01*
G37*
G36*
Y288886D02*Y284162D01*
X148799D01*
Y288886D01*
X141713D01*
G37*
G36*
X61880Y120060D02*Y118388D01*
X65424D01*
Y120060D01*
X61880D01*
G37*
G36*
Y116912D02*Y115238D01*
X65424D01*
Y116912D01*
X61880D01*
G37*
G36*
Y113762D02*Y112088D01*
X65424D01*
Y113762D01*
X61880D01*
G37*
G36*
Y110612D02*Y108940D01*
X65424D01*
Y110612D01*
X61880D01*
G37*
G36*
X68576D02*Y108940D01*
X72120D01*
Y110612D01*
X68576D01*
G37*
G36*
Y113762D02*Y112088D01*
X72120D01*
Y113762D01*
X68576D01*
G37*
G36*
Y116912D02*Y115238D01*
X72120D01*
Y116912D01*
X68576D01*
G37*
G36*
Y120060D02*Y118388D01*
X72120D01*
Y120060D01*
X68576D01*
G37*
G36*
X53200Y225800D02*Y223400D01*
X57200D01*
Y225800D01*
X53200D01*
G37*
G36*
Y229700D02*Y227300D01*
X57200D01*
Y229700D01*
X53200D01*
G37*
G36*
Y233600D02*Y231200D01*
X57200D01*
Y233600D01*
X53200D01*
G37*
G36*
X45000D02*Y231200D01*
X49000D01*
Y233600D01*
X45000D01*
G37*
G36*
Y229700D02*Y227300D01*
X49000D01*
Y229700D01*
X45000D01*
G37*
G36*
Y225800D02*Y223400D01*
X49000D01*
Y225800D01*
X45000D01*
G37*
G36*
X53000Y302200D02*Y299800D01*
X57000D01*
Y302200D01*
X53000D01*
G37*
G36*
Y306100D02*Y303700D01*
X57000D01*
Y306100D01*
X53000D01*
G37*
G36*
Y310000D02*Y307600D01*
X57000D01*
Y310000D01*
X53000D01*
G37*
G36*
X44800D02*Y307600D01*
X48800D01*
Y310000D01*
X44800D01*
G37*
G36*
Y306100D02*Y303700D01*
X48800D01*
Y306100D01*
X44800D01*
G37*
G36*
Y302200D02*Y299800D01*
X48800D01*
Y302200D01*
X44800D01*
G37*
G36*
X126949Y206775D02*Y204413D01*
X133051D01*
Y206775D01*
X126949D01*
G37*
G36*
Y210712D02*Y208350D01*
X133051D01*
Y210712D01*
X126949D01*
G37*
G36*
Y214650D02*Y212288D01*
X133051D01*
Y214650D01*
X126949D01*
G37*
G36*
Y218587D02*Y216225D01*
X133051D01*
Y218587D01*
X126949D01*
G37*
G36*
X141713Y202838D02*Y198114D01*
X148799D01*
Y202838D01*
X141713D01*
G37*
G36*
Y224886D02*Y220162D01*
X148799D01*
Y224886D01*
X141713D01*
G37*
G36*
X126949Y238775D02*Y236413D01*
X133051D01*
Y238775D01*
X126949D01*
G37*
G36*
Y242712D02*Y240350D01*
X133051D01*
Y242712D01*
X126949D01*
G37*
G36*
Y246650D02*Y244288D01*
X133051D01*
Y246650D01*
X126949D01*
G37*
G36*
Y250587D02*Y248225D01*
X133051D01*
Y250587D01*
X126949D01*
G37*
G36*
X141713Y234838D02*Y230114D01*
X148799D01*
Y234838D01*
X141713D01*
G37*
G36*
Y256886D02*Y252162D01*
X148799D01*
Y256886D01*
X141713D01*
G37*
G36*
X126949Y174775D02*Y172413D01*
X133051D01*
Y174775D01*
X126949D01*
G37*
G36*
Y178712D02*Y176350D01*
X133051D01*
Y178712D01*
X126949D01*
G37*
G36*
Y182650D02*Y180288D01*
X133051D01*
Y182650D01*
X126949D01*
G37*
G36*
Y186587D02*Y184225D01*
X133051D01*
Y186587D01*
X126949D01*
G37*
G36*
X141713Y170838D02*Y166114D01*
X148799D01*
Y170838D01*
X141713D01*
G37*
G36*
Y192886D02*Y188162D01*
X148799D01*
Y192886D01*
X141713D01*
G37*
G36*
X95576Y135612D02*Y133940D01*
X99120D01*
Y135612D01*
X95576D01*
G37*
G36*
Y138762D02*Y137088D01*
X99120D01*
Y138762D01*
X95576D01*
G37*
G36*
Y141912D02*Y140238D01*
X99120D01*
Y141912D01*
X95576D01*
G37*
G36*
Y145060D02*Y143388D01*
X99120D01*
Y145060D01*
X95576D01*
G37*
G36*
X88880D02*Y143388D01*
X92424D01*
Y145060D01*
X88880D01*
G37*
G36*
Y141912D02*Y140238D01*
X92424D01*
Y141912D01*
X88880D01*
G37*
G36*
Y138762D02*Y137088D01*
X92424D01*
Y138762D01*
X88880D01*
G37*
G36*
Y135612D02*Y133940D01*
X92424D01*
Y135612D01*
X88880D01*
G37*
G36*
X145964Y315814D02*X140846D01*
Y305186D01*
X145964D01*
Y315814D01*
G37*
G36*
X134154D02*X129036D01*
Y305186D01*
X134154D01*
Y315814D01*
G37*
G36*
X138000Y324984D02*Y321204D01*
X145874D01*
Y324984D01*
X138000D01*
G37*
G36*
X130284Y330890D02*Y327110D01*
X145874D01*
Y330890D01*
X130284D01*
G37*
G36*
X123825Y333725D02*Y324275D01*
X135165D01*
Y333725D01*
X123825D01*
G37*
G36*
X138005Y327115D02*X136585Y328535D01*
X133745Y325695D01*
X135165Y324275D01*
X138005Y327115D01*
G37*
G36*
X135165Y333725D02*X133745Y332305D01*
X136585Y329465D01*
X138005Y330885D01*
X135165Y333725D01*
G37*
G36*
X138000Y336796D02*Y333016D01*
X145874D01*
Y336796D01*
X138000D01*
G37*
G36*
X90051Y284900D02*Y280200D01*
X94752D01*
Y284900D01*
X90051D01*
G37*
G36*
X82250D02*Y280200D01*
X86951D01*
Y284900D01*
X82250D01*
G37*
G36*
X85350Y272900D02*Y266600D01*
X91651D01*
Y272900D01*
X85350D01*
G37*
G36*
X80264Y173721D02*X78690D01*
Y167721D01*
X80264D01*
Y173721D01*
G37*
G36*
X83413D02*X81839D01*
Y167721D01*
X83413D01*
Y173721D01*
G37*
G36*
X86563D02*X84989D01*
Y167721D01*
X86563D01*
Y173721D01*
G37*
G36*
X89712D02*X88138D01*
Y167721D01*
X89712D01*
Y173721D01*
G37*
G36*
X92862D02*X91288D01*
Y167721D01*
X92862D01*
Y173721D01*
G37*
G36*
X96012D02*X94438D01*
Y167721D01*
X96012D01*
Y173721D01*
G37*
G36*
X99161D02*X97587D01*
Y167721D01*
X99161D01*
Y173721D01*
G37*
G36*
X102311D02*X100737D01*
Y167721D01*
X102311D01*
Y173721D01*
G37*
G36*
X106279Y179264D02*Y177690D01*
X112279D01*
Y179264D01*
X106279D01*
G37*
G36*
Y182413D02*Y180839D01*
X112279D01*
Y182413D01*
X106279D01*
G37*
G36*
Y185563D02*Y183989D01*
X112279D01*
Y185563D01*
X106279D01*
G37*
G36*
Y188712D02*Y187138D01*
X112279D01*
Y188712D01*
X106279D01*
G37*
G36*
Y191862D02*Y190288D01*
X112279D01*
Y191862D01*
X106279D01*
G37*
G36*
Y195012D02*Y193438D01*
X112279D01*
Y195012D01*
X106279D01*
G37*
G36*
Y198161D02*Y196587D01*
X112279D01*
Y198161D01*
X106279D01*
G37*
G36*
Y201311D02*Y199737D01*
X112279D01*
Y201311D01*
X106279D01*
G37*
G36*
X102310Y211279D02*X100736D01*
Y205279D01*
X102310D01*
Y211279D01*
G37*
G36*
X99161D02*X97587D01*
Y205279D01*
X99161D01*
Y211279D01*
G37*
G36*
X96011D02*X94437D01*
Y205279D01*
X96011D01*
Y211279D01*
G37*
G36*
X92862D02*X91288D01*
Y205279D01*
X92862D01*
Y211279D01*
G37*
G36*
X89712D02*X88138D01*
Y205279D01*
X89712D01*
Y211279D01*
G37*
G36*
X86562D02*X84988D01*
Y205279D01*
X86562D01*
Y211279D01*
G37*
G36*
X83413D02*X81839D01*
Y205279D01*
X83413D01*
Y211279D01*
G37*
G36*
X80263D02*X78689D01*
Y205279D01*
X80263D01*
Y211279D01*
G37*
G36*
X68721Y201310D02*Y199736D01*
X74721D01*
Y201310D01*
X68721D01*
G37*
G36*
Y198161D02*Y196587D01*
X74721D01*
Y198161D01*
X68721D01*
G37*
G36*
Y195011D02*Y193437D01*
X74721D01*
Y195011D01*
X68721D01*
G37*
G36*
Y191862D02*Y190288D01*
X74721D01*
Y191862D01*
X68721D01*
G37*
G36*
Y188712D02*Y187138D01*
X74721D01*
Y188712D01*
X68721D01*
G37*
G36*
Y185562D02*Y183988D01*
X74721D01*
Y185562D01*
X68721D01*
G37*
G36*
Y182413D02*Y180839D01*
X74721D01*
Y182413D01*
X68721D01*
G37*
G36*
Y179263D02*Y177689D01*
X74721D01*
Y179263D01*
X68721D01*
G37*
G36*
X88102Y162909D02*X82984D01*
Y157005D01*
X88102D01*
Y162909D01*
G37*
G36*
X95188D02*X90070D01*
Y157005D01*
X95188D01*
Y162909D01*
G37*
G36*
X91750Y366250D02*Y360750D01*
X99250D01*
Y366250D01*
X91750D01*
G37*
G36*
Y379250D02*Y373750D01*
X99250D01*
Y379250D01*
X91750D01*
G37*
G36*
X83516Y43952D02*X78398D01*
Y38048D01*
X83516D01*
Y43952D01*
G37*
G36*
X90602D02*X85484D01*
Y38048D01*
X90602D01*
Y43952D01*
G37*
G36*
X95380Y61560D02*Y59888D01*
X98924D01*
Y61560D01*
X95380D01*
G37*
G36*
Y58412D02*Y56738D01*
X98924D01*
Y58412D01*
X95380D01*
G37*
G36*
Y55262D02*Y53588D01*
X98924D01*
Y55262D01*
X95380D01*
G37*
G36*
Y52112D02*Y50440D01*
X98924D01*
Y52112D01*
X95380D01*
G37*
G36*
X102076D02*Y50440D01*
X105620D01*
Y52112D01*
X102076D01*
G37*
G36*
Y55262D02*Y53588D01*
X105620D01*
Y55262D01*
X102076D01*
G37*
G36*
Y58412D02*Y56738D01*
X105620D01*
Y58412D01*
X102076D01*
G37*
G36*
Y61560D02*Y59888D01*
X105620D01*
Y61560D01*
X102076D01*
G37*
G36*
X53000Y149700D02*Y147300D01*
X57000D01*
Y149700D01*
X53000D01*
G37*
G36*
Y153600D02*Y151200D01*
X57000D01*
Y153600D01*
X53000D01*
G37*
G36*
Y157500D02*Y155100D01*
X57000D01*
Y157500D01*
X53000D01*
G37*
G36*
X44800D02*Y155100D01*
X48800D01*
Y157500D01*
X44800D01*
G37*
G36*
Y153600D02*Y151200D01*
X48800D01*
Y153600D01*
X44800D01*
G37*
G36*
Y149700D02*Y147300D01*
X48800D01*
Y149700D01*
X44800D01*
G37*
M02*
