G04 start of page 13 for group -3984 idx -3984 *
G04 Title: (unknown), fab *
G04 Creator: pcb 4.0.2 *
G04 CreationDate: Wed Apr 29 00:27:18 2020 UTC *
G04 For: ndholmes *
G04 Format: Gerber/RS-274X *
G04 PCB-Dimensions (mil): 1500.00 3900.00 *
G04 PCB-Coordinate-Origin: lower left *
%MOIN*%
%FSLAX25Y25*%
%LNFAB*%
%ADD67C,0.0100*%
%ADD66C,0.0075*%
%ADD65C,0.0060*%
%ADD64R,0.0080X0.0080*%
G54D64*X131400Y374600D02*X134600D01*
X131400D02*Y371400D01*
X134600D01*
Y374600D02*Y371400D01*
X131900Y17600D02*X135100D01*
X131900D02*Y14400D01*
X135100D01*
Y17600D02*Y14400D01*
X15400Y18600D02*X18600D01*
X15400D02*Y15400D01*
X18600D01*
Y18600D02*Y15400D01*
X15400Y374600D02*X18600D01*
X15400D02*Y371400D01*
X18600D01*
Y374600D02*Y371400D01*
X13400Y402850D02*X16600D01*
X13400D02*Y399650D01*
X16600D01*
Y402850D02*Y399650D01*
G54D65*X135000Y403500D02*X136500Y400500D01*
X138000Y403500D01*
X136500Y400500D02*Y397500D01*
X139800Y400800D02*X142050D01*
X139800Y397500D02*X142800D01*
X139800Y403500D02*Y397500D01*
Y403500D02*X142800D01*
X147600D02*X148350Y402750D01*
X145350Y403500D02*X147600D01*
X144600Y402750D02*X145350Y403500D01*
X144600Y402750D02*Y401250D01*
X145350Y400500D01*
X147600D01*
X148350Y399750D01*
Y398250D01*
X147600Y397500D02*X148350Y398250D01*
X145350Y397500D02*X147600D01*
X144600Y398250D02*X145350Y397500D01*
X98000Y399750D02*X101000Y403500D01*
X98000Y399750D02*X101750D01*
X101000Y403500D02*Y397500D01*
X45000Y398250D02*X45750Y397500D01*
X45000Y402750D02*Y398250D01*
Y402750D02*X45750Y403500D01*
X47250D01*
X48000Y402750D01*
Y398250D01*
X47250Y397500D02*X48000Y398250D01*
X45750Y397500D02*X47250D01*
X45000Y399000D02*X48000Y402000D01*
X49800Y397500D02*X50550D01*
X52350Y402300D02*X53550Y403500D01*
Y397500D01*
X52350D02*X54600D01*
X56400Y402750D02*X57150Y403500D01*
X59400D01*
X60150Y402750D01*
Y401250D01*
X56400Y397500D02*X60150Y401250D01*
X56400Y397500D02*X60150D01*
X62700D02*X64950Y400500D01*
Y402750D02*Y400500D01*
X64200Y403500D02*X64950Y402750D01*
X62700Y403500D02*X64200D01*
X61950Y402750D02*X62700Y403500D01*
X61950Y402750D02*Y401250D01*
X62700Y400500D01*
X64950D01*
X25373Y318945D02*G75*G03X26973Y318945I800J0D01*G01*
G75*G03X25373Y318945I-800J0D01*G01*
Y305165D02*G75*G03X26973Y305165I800J0D01*G01*
G75*G03X25373Y305165I-800J0D01*G01*
Y291386D02*G75*G03X26973Y291386I800J0D01*G01*
G75*G03X25373Y291386I-800J0D01*G01*
Y242445D02*G75*G03X26973Y242445I800J0D01*G01*
G75*G03X25373Y242445I-800J0D01*G01*
Y228665D02*G75*G03X26973Y228665I800J0D01*G01*
G75*G03X25373Y228665I-800J0D01*G01*
Y214886D02*G75*G03X26973Y214886I800J0D01*G01*
G75*G03X25373Y214886I-800J0D01*G01*
Y166445D02*G75*G03X26973Y166445I800J0D01*G01*
G75*G03X25373Y166445I-800J0D01*G01*
Y152665D02*G75*G03X26973Y152665I800J0D01*G01*
G75*G03X25373Y152665I-800J0D01*G01*
Y138886D02*G75*G03X26973Y138886I800J0D01*G01*
G75*G03X25373Y138886I-800J0D01*G01*
Y89945D02*G75*G03X26973Y89945I800J0D01*G01*
G75*G03X25373Y89945I-800J0D01*G01*
Y76165D02*G75*G03X26973Y76165I800J0D01*G01*
G75*G03X25373Y76165I-800J0D01*G01*
Y62386D02*G75*G03X26973Y62386I800J0D01*G01*
G75*G03X25373Y62386I-800J0D01*G01*
X75527Y366555D02*G75*G03X77127Y366555I800J0D01*G01*
G75*G03X75527Y366555I-800J0D01*G01*
X61747D02*G75*G03X63347Y366555I800J0D01*G01*
G75*G03X61747Y366555I-800J0D01*G01*
X47968D02*G75*G03X49568Y366555I800J0D01*G01*
G75*G03X47968Y366555I-800J0D01*G01*
X14200Y416250D02*G75*G03X15800Y416250I800J0D01*G01*
G75*G03X14200Y416250I-800J0D01*G01*
X135000Y418500D02*X136500Y415500D01*
X138000Y418500D01*
X136500Y415500D02*Y412500D01*
X139800Y415800D02*X142050D01*
X139800Y412500D02*X142800D01*
X139800Y418500D02*Y412500D01*
Y418500D02*X142800D01*
X147600D02*X148350Y417750D01*
X145350Y418500D02*X147600D01*
X144600Y417750D02*X145350Y418500D01*
X144600Y417750D02*Y416250D01*
X145350Y415500D01*
X147600D01*
X148350Y414750D01*
Y413250D01*
X147600Y412500D02*X148350Y413250D01*
X145350Y412500D02*X147600D01*
X144600Y413250D02*X145350Y412500D01*
X98000Y417300D02*X99200Y418500D01*
Y412500D01*
X98000D02*X100250D01*
X102050Y418500D02*X105050D01*
X102050D02*Y415500D01*
X102800Y416250D01*
X104300D01*
X105050Y415500D01*
Y413250D01*
X104300Y412500D02*X105050Y413250D01*
X102800Y412500D02*X104300D01*
X102050Y413250D02*X102800Y412500D01*
X45000Y413250D02*X45750Y412500D01*
X45000Y417750D02*Y413250D01*
Y417750D02*X45750Y418500D01*
X47250D01*
X48000Y417750D01*
Y413250D01*
X47250Y412500D02*X48000Y413250D01*
X45750Y412500D02*X47250D01*
X45000Y414000D02*X48000Y417000D01*
X49800Y412500D02*X50550D01*
X52350Y413250D02*X53100Y412500D01*
X52350Y417750D02*Y413250D01*
Y417750D02*X53100Y418500D01*
X54600D01*
X55350Y417750D01*
Y413250D01*
X54600Y412500D02*X55350Y413250D01*
X53100Y412500D02*X54600D01*
X52350Y414000D02*X55350Y417000D01*
X57150Y414750D02*X60150Y418500D01*
X57150Y414750D02*X60900D01*
X60150Y418500D02*Y412500D01*
X63450D02*X66450Y418500D01*
X62700D02*X66450D01*
X90300Y258200D02*X92700Y255800D01*
X90300D02*X92700Y258200D01*
X94300Y238200D02*X96700Y235800D01*
X94300D02*X96700Y238200D01*
X86300D02*X88700Y235800D01*
X86300D02*X88700Y238200D01*
X13800Y432450D02*X16200Y430050D01*
X13800D02*X16200Y432450D01*
X140000Y433500D02*Y427500D01*
Y433500D02*X143750Y427500D01*
Y433500D02*Y427500D01*
X145550Y432750D02*Y428250D01*
Y432750D02*X146300Y433500D01*
X147800D01*
X148550Y432750D01*
Y428250D01*
X147800Y427500D02*X148550Y428250D01*
X146300Y427500D02*X147800D01*
X145550Y428250D02*X146300Y427500D01*
X98000Y432750D02*X98750Y433500D01*
X100250D01*
X101000Y432750D01*
X100250Y427500D02*X101000Y428250D01*
X98750Y427500D02*X100250D01*
X98000Y428250D02*X98750Y427500D01*
Y430800D02*X100250D01*
X101000Y432750D02*Y431550D01*
Y430050D02*Y428250D01*
Y430050D02*X100250Y430800D01*
X101000Y431550D02*X100250Y430800D01*
X45000Y428250D02*X45750Y427500D01*
X45000Y432750D02*Y428250D01*
Y432750D02*X45750Y433500D01*
X47250D01*
X48000Y432750D01*
Y428250D01*
X47250Y427500D02*X48000Y428250D01*
X45750Y427500D02*X47250D01*
X45000Y429000D02*X48000Y432000D01*
X49800Y427500D02*X50550D01*
X52350Y428250D02*X53100Y427500D01*
X52350Y432750D02*Y428250D01*
Y432750D02*X53100Y433500D01*
X54600D01*
X55350Y432750D01*
Y428250D01*
X54600Y427500D02*X55350Y428250D01*
X53100Y427500D02*X54600D01*
X52350Y429000D02*X55350Y432000D01*
X57150Y432750D02*X57900Y433500D01*
X59400D01*
X60150Y432750D01*
X59400Y427500D02*X60150Y428250D01*
X57900Y427500D02*X59400D01*
X57150Y428250D02*X57900Y427500D01*
Y430800D02*X59400D01*
X60150Y432750D02*Y431550D01*
Y430050D02*Y428250D01*
Y430050D02*X59400Y430800D01*
X60150Y431550D02*X59400Y430800D01*
X62700Y427500D02*X64950Y430500D01*
Y432750D02*Y430500D01*
X64200Y433500D02*X64950Y432750D01*
X62700Y433500D02*X64200D01*
X61950Y432750D02*X62700Y433500D01*
X61950Y432750D02*Y431250D01*
X62700Y430500D01*
X64950D01*
X49500Y337600D02*Y334400D01*
X47900Y336000D02*X51100D01*
X9500Y337600D02*Y334400D01*
X7900Y336000D02*X11100D01*
X49500Y276100D02*Y272900D01*
X47900Y274500D02*X51100D01*
X9500Y276100D02*Y272900D01*
X7900Y274500D02*X11100D01*
X49500Y261100D02*Y257900D01*
X47900Y259500D02*X51100D01*
X9500Y261100D02*Y257900D01*
X7900Y259500D02*X11100D01*
X49500Y47100D02*Y43900D01*
X47900Y45500D02*X51100D01*
X9500Y47100D02*Y43900D01*
X7900Y45500D02*X11100D01*
X49500Y199100D02*Y195900D01*
X47900Y197500D02*X51100D01*
X9500Y199100D02*Y195900D01*
X7900Y197500D02*X11100D01*
X49500Y185100D02*Y181900D01*
X47900Y183500D02*X51100D01*
X9500Y185100D02*Y181900D01*
X7900Y183500D02*X11100D01*
X49500Y123600D02*Y120400D01*
X47900Y122000D02*X51100D01*
X9500Y123600D02*Y120400D01*
X7900Y122000D02*X11100D01*
X49500Y108600D02*Y105400D01*
X47900Y107000D02*X51100D01*
X9500Y108600D02*Y105400D01*
X7900Y107000D02*X11100D01*
X15000Y447850D02*Y444650D01*
X13400Y446250D02*X16600D01*
X135000Y448500D02*X136500Y445500D01*
X138000Y448500D01*
X136500Y445500D02*Y442500D01*
X139800Y445800D02*X142050D01*
X139800Y442500D02*X142800D01*
X139800Y448500D02*Y442500D01*
Y448500D02*X142800D01*
X147600D02*X148350Y447750D01*
X145350Y448500D02*X147600D01*
X144600Y447750D02*X145350Y448500D01*
X144600Y447750D02*Y446250D01*
X145350Y445500D01*
X147600D01*
X148350Y444750D01*
Y443250D01*
X147600Y442500D02*X148350Y443250D01*
X145350Y442500D02*X147600D01*
X144600Y443250D02*X145350Y442500D01*
X98000Y447300D02*X99200Y448500D01*
Y442500D01*
X98000D02*X100250D01*
X104300Y448500D02*X105050Y447750D01*
X102800Y448500D02*X104300D01*
X102050Y447750D02*X102800Y448500D01*
X102050Y447750D02*Y443250D01*
X102800Y442500D01*
X104300Y445800D02*X105050Y445050D01*
X102050Y445800D02*X104300D01*
X102800Y442500D02*X104300D01*
X105050Y443250D01*
Y445050D02*Y443250D01*
X45000D02*X45750Y442500D01*
X45000Y447750D02*Y443250D01*
Y447750D02*X45750Y448500D01*
X47250D01*
X48000Y447750D01*
Y443250D01*
X47250Y442500D02*X48000Y443250D01*
X45750Y442500D02*X47250D01*
X45000Y444000D02*X48000Y447000D01*
X49800Y442500D02*X50550D01*
X52350Y443250D02*X53100Y442500D01*
X52350Y447750D02*Y443250D01*
Y447750D02*X53100Y448500D01*
X54600D01*
X55350Y447750D01*
Y443250D01*
X54600Y442500D02*X55350Y443250D01*
X53100Y442500D02*X54600D01*
X52350Y444000D02*X55350Y447000D01*
X57150Y447750D02*X57900Y448500D01*
X59400D01*
X60150Y447750D01*
X59400Y442500D02*X60150Y443250D01*
X57900Y442500D02*X59400D01*
X57150Y443250D02*X57900Y442500D01*
Y445800D02*X59400D01*
X60150Y447750D02*Y446550D01*
Y445050D02*Y443250D01*
Y445050D02*X59400Y445800D01*
X60150Y446550D02*X59400Y445800D01*
X61950Y443250D02*X62700Y442500D01*
X61950Y444450D02*Y443250D01*
Y444450D02*X63000Y445500D01*
X63900D01*
X64950Y444450D01*
Y443250D01*
X64200Y442500D02*X64950Y443250D01*
X62700Y442500D02*X64200D01*
X61950Y446550D02*X63000Y445500D01*
X61950Y447750D02*Y446550D01*
Y447750D02*X62700Y448500D01*
X64200D01*
X64950Y447750D01*
Y446550D01*
X63900Y445500D02*X64950Y446550D01*
X40500Y226000D02*Y224400D01*
Y226000D02*X41887Y226800D01*
X40500Y226000D02*X39113Y226800D01*
X51500Y245500D02*Y243900D01*
Y245500D02*X52887Y246300D01*
X51500Y245500D02*X50113Y246300D01*
X51000Y322000D02*Y320400D01*
Y322000D02*X52387Y322800D01*
X51000Y322000D02*X49613Y322800D01*
X60000Y147500D02*Y145900D01*
Y147500D02*X61387Y148300D01*
X60000Y147500D02*X58613Y148300D01*
X51000Y172500D02*Y170900D01*
Y172500D02*X52387Y173300D01*
X51000Y172500D02*X49613Y173300D01*
X67500Y147500D02*Y145900D01*
Y147500D02*X68887Y148300D01*
X67500Y147500D02*X66113Y148300D01*
X57500Y86500D02*Y84900D01*
Y86500D02*X58887Y87300D01*
X57500Y86500D02*X56113Y87300D01*
X72500Y86500D02*Y84900D01*
Y86500D02*X73887Y87300D01*
X72500Y86500D02*X71113Y87300D01*
X70500Y124000D02*Y122400D01*
Y124000D02*X71887Y124800D01*
X70500Y124000D02*X69113Y124800D01*
X70500Y105000D02*Y103400D01*
Y105000D02*X71887Y105800D01*
X70500Y105000D02*X69113Y105800D01*
X70500Y276500D02*Y274900D01*
Y276500D02*X71887Y277300D01*
X70500Y276500D02*X69113Y277300D01*
X70500Y257500D02*Y255900D01*
Y257500D02*X71887Y258300D01*
X70500Y257500D02*X69113Y258300D01*
X60000Y301000D02*Y299400D01*
Y301000D02*X61387Y301800D01*
X60000Y301000D02*X58613Y301800D01*
X89000Y199000D02*Y197400D01*
Y199000D02*X90387Y199800D01*
X89000Y199000D02*X87613Y199800D01*
X89000Y203000D02*Y201400D01*
Y203000D02*X90387Y203800D01*
X89000Y203000D02*X87613Y203800D01*
X132000Y201500D02*Y199900D01*
Y201500D02*X133387Y202300D01*
X132000Y201500D02*X130613Y202300D01*
X127500Y201500D02*Y199900D01*
Y201500D02*X128887Y202300D01*
X127500Y201500D02*X126113Y202300D01*
X132000Y169500D02*Y167900D01*
Y169500D02*X133387Y170300D01*
X132000Y169500D02*X130613Y170300D01*
X127500Y169500D02*Y167900D01*
Y169500D02*X128887Y170300D01*
X127500Y169500D02*X126113Y170300D01*
X132000Y137500D02*Y135900D01*
Y137500D02*X133387Y138300D01*
X132000Y137500D02*X130613Y138300D01*
X127500Y137500D02*Y135900D01*
Y137500D02*X128887Y138300D01*
X127500Y137500D02*X126113Y138300D01*
X132000Y105500D02*Y103900D01*
Y105500D02*X133387Y106300D01*
X132000Y105500D02*X130613Y106300D01*
X127500Y105500D02*Y103900D01*
Y105500D02*X128887Y106300D01*
X127500Y105500D02*X126113Y106300D01*
X132000Y73500D02*Y71900D01*
Y73500D02*X133387Y74300D01*
X132000Y73500D02*X130613Y74300D01*
X127500Y73500D02*Y71900D01*
Y73500D02*X128887Y74300D01*
X127500Y73500D02*X126113Y74300D01*
X132000Y41500D02*Y39900D01*
Y41500D02*X133387Y42300D01*
X132000Y41500D02*X130613Y42300D01*
X127500Y41500D02*Y39900D01*
Y41500D02*X128887Y42300D01*
X127500Y41500D02*X126113Y42300D01*
X132000Y233500D02*Y231900D01*
Y233500D02*X133387Y234300D01*
X132000Y233500D02*X130613Y234300D01*
X127500Y233500D02*Y231900D01*
Y233500D02*X128887Y234300D01*
X127500Y233500D02*X126113Y234300D01*
X132000Y265500D02*Y263900D01*
Y265500D02*X133387Y266300D01*
X132000Y265500D02*X130613Y266300D01*
X127500Y265500D02*Y263900D01*
Y265500D02*X128887Y266300D01*
X127500Y265500D02*X126113Y266300D01*
X124500Y245500D02*Y243900D01*
Y245500D02*X125887Y246300D01*
X124500Y245500D02*X123113Y246300D01*
X124500Y213500D02*Y211900D01*
Y213500D02*X125887Y214300D01*
X124500Y213500D02*X123113Y214300D01*
X124500Y117500D02*Y115900D01*
Y117500D02*X125887Y118300D01*
X124500Y117500D02*X123113Y118300D01*
X115000Y117500D02*Y115900D01*
Y117500D02*X116387Y118300D01*
X115000Y117500D02*X113613Y118300D01*
X112000Y85500D02*Y83900D01*
Y85500D02*X113387Y86300D01*
X112000Y85500D02*X110613Y86300D01*
X124500Y85500D02*Y83900D01*
Y85500D02*X125887Y86300D01*
X124500Y85500D02*X123113Y86300D01*
X115000Y245500D02*Y243900D01*
Y245500D02*X116387Y246300D01*
X115000Y245500D02*X113613Y246300D01*
X124500Y181500D02*Y179900D01*
Y181500D02*X125887Y182300D01*
X124500Y181500D02*X123113Y182300D01*
X114500Y197500D02*Y195900D01*
Y197500D02*X115887Y198300D01*
X114500Y197500D02*X113113Y198300D01*
X112000Y213500D02*Y211900D01*
Y213500D02*X113387Y214300D01*
X112000Y213500D02*X110613Y214300D01*
X124500Y131500D02*Y129900D01*
Y131500D02*X125887Y132300D01*
X124500Y131500D02*X123113Y132300D01*
X118000Y131500D02*Y129900D01*
Y131500D02*X119387Y132300D01*
X118000Y131500D02*X116613Y132300D01*
X115000Y180000D02*Y178400D01*
Y180000D02*X116387Y180800D01*
X115000Y180000D02*X113613Y180800D01*
X110000Y204000D02*Y202400D01*
Y204000D02*X111387Y204800D01*
X110000Y204000D02*X108613Y204800D01*
X106000Y207000D02*Y205400D01*
Y207000D02*X107387Y207800D01*
X106000Y207000D02*X104613Y207800D01*
X58500Y47500D02*Y45900D01*
Y47500D02*X59887Y48300D01*
X58500Y47500D02*X57113Y48300D01*
X58500Y43000D02*Y41400D01*
Y43000D02*X59887Y43800D01*
X58500Y43000D02*X57113Y43800D01*
X81000Y121500D02*Y119900D01*
Y121500D02*X82387Y122300D01*
X81000Y121500D02*X79613Y122300D01*
X81000Y117500D02*Y115900D01*
Y117500D02*X82387Y118300D01*
X81000Y117500D02*X79613Y118300D01*
X120500Y333000D02*Y331400D01*
Y333000D02*X121887Y333800D01*
X120500Y333000D02*X119113Y333800D01*
X120500Y329000D02*Y327400D01*
Y329000D02*X121887Y329800D01*
X120500Y329000D02*X119113Y329800D01*
X120500Y325000D02*Y323400D01*
Y325000D02*X121887Y325800D01*
X120500Y325000D02*X119113Y325800D01*
X116500Y333000D02*Y331400D01*
Y333000D02*X117887Y333800D01*
X116500Y333000D02*X115113Y333800D01*
X116500Y329000D02*Y327400D01*
Y329000D02*X117887Y329800D01*
X116500Y329000D02*X115113Y329800D01*
X116500Y325000D02*Y323400D01*
Y325000D02*X117887Y325800D01*
X116500Y325000D02*X115113Y325800D01*
X128500Y341000D02*Y339400D01*
Y341000D02*X129887Y341800D01*
X128500Y341000D02*X127113Y341800D01*
X124500Y337000D02*Y335400D01*
Y337000D02*X125887Y337800D01*
X124500Y337000D02*X123113Y337800D01*
X120500Y337000D02*Y335400D01*
Y337000D02*X121887Y337800D01*
X120500Y337000D02*X119113Y337800D01*
X124500Y341000D02*Y339400D01*
Y341000D02*X125887Y341800D01*
X124500Y341000D02*X123113Y341800D01*
X128500Y337000D02*Y335400D01*
Y337000D02*X129887Y337800D01*
X128500Y337000D02*X127113Y337800D01*
X116500Y337000D02*Y335400D01*
Y337000D02*X117887Y337800D01*
X116500Y337000D02*X115113Y337800D01*
X120500Y341000D02*Y339400D01*
Y341000D02*X121887Y341800D01*
X120500Y341000D02*X119113Y341800D01*
X116500Y341000D02*Y339400D01*
Y341000D02*X117887Y341800D01*
X116500Y341000D02*X115113Y341800D01*
X120500Y321000D02*Y319400D01*
Y321000D02*X121887Y321800D01*
X120500Y321000D02*X119113Y321800D01*
X116500Y321000D02*Y319400D01*
Y321000D02*X117887Y321800D01*
X116500Y321000D02*X115113Y321800D01*
X120500Y317000D02*Y315400D01*
Y317000D02*X121887Y317800D01*
X120500Y317000D02*X119113Y317800D01*
X116500Y317000D02*Y315400D01*
Y317000D02*X117887Y317800D01*
X116500Y317000D02*X115113Y317800D01*
X128500Y321000D02*Y319400D01*
Y321000D02*X129887Y321800D01*
X128500Y321000D02*X127113Y321800D01*
X124500Y321000D02*Y319400D01*
Y321000D02*X125887Y321800D01*
X124500Y321000D02*X123113Y321800D01*
X124500Y317000D02*Y315400D01*
Y317000D02*X125887Y317800D01*
X124500Y317000D02*X123113Y317800D01*
X143000Y301000D02*Y299400D01*
Y301000D02*X144387Y301800D01*
X143000Y301000D02*X141613Y301800D01*
X143500Y318500D02*Y316900D01*
Y318500D02*X144887Y319300D01*
X143500Y318500D02*X142113Y319300D01*
X140000Y298000D02*Y296400D01*
Y298000D02*X141387Y298800D01*
X140000Y298000D02*X138613Y298800D01*
X138000Y294500D02*Y292900D01*
Y294500D02*X139387Y295300D01*
X138000Y294500D02*X136613Y295300D01*
X138000Y273500D02*Y271900D01*
Y273500D02*X139387Y274300D01*
X138000Y273500D02*X136613Y274300D01*
X138000Y241500D02*Y239900D01*
Y241500D02*X139387Y242300D01*
X138000Y241500D02*X136613Y242300D01*
X138000Y209500D02*Y207900D01*
Y209500D02*X139387Y210300D01*
X138000Y209500D02*X136613Y210300D01*
X138000Y177500D02*Y175900D01*
Y177500D02*X139387Y178300D01*
X138000Y177500D02*X136613Y178300D01*
X138000Y145500D02*Y143900D01*
Y145500D02*X139387Y146300D01*
X138000Y145500D02*X136613Y146300D01*
X138000Y113500D02*Y111900D01*
Y113500D02*X139387Y114300D01*
X138000Y113500D02*X136613Y114300D01*
X138000Y81500D02*Y79900D01*
Y81500D02*X139387Y82300D01*
X138000Y81500D02*X136613Y82300D01*
X138000Y49500D02*Y47900D01*
Y49500D02*X139387Y50300D01*
X138000Y49500D02*X136613Y50300D01*
X78000Y165000D02*Y163400D01*
Y165000D02*X79387Y165800D01*
X78000Y165000D02*X76613Y165800D01*
X84000Y179000D02*Y177400D01*
Y179000D02*X85387Y179800D01*
X84000Y179000D02*X82613Y179800D01*
X112000Y164000D02*Y162400D01*
Y164000D02*X113387Y164800D01*
X112000Y164000D02*X110613Y164800D01*
X125000Y159500D02*Y157900D01*
Y159500D02*X126387Y160300D01*
X125000Y159500D02*X123613Y160300D01*
X101500Y227500D02*Y225900D01*
Y227500D02*X102887Y228300D01*
X101500Y227500D02*X100113Y228300D01*
X101500Y224000D02*Y222400D01*
Y224000D02*X102887Y224800D01*
X101500Y224000D02*X100113Y224800D01*
X101500Y220000D02*Y218400D01*
Y220000D02*X102887Y220800D01*
X101500Y220000D02*X100113Y220800D01*
X98500Y194000D02*Y192400D01*
Y194000D02*X99887Y194800D01*
X98500Y194000D02*X97113Y194800D01*
X98400Y197600D02*Y196000D01*
Y197600D02*X99787Y198400D01*
X98400Y197600D02*X97013Y198400D01*
X98400Y201200D02*Y199600D01*
Y201200D02*X99787Y202000D01*
X98400Y201200D02*X97013Y202000D01*
X66000Y301000D02*Y299400D01*
Y301000D02*X67387Y301800D01*
X66000Y301000D02*X64613Y301800D01*
X96000Y290000D02*Y288400D01*
Y290000D02*X97387Y290800D01*
X96000Y290000D02*X94613Y290800D01*
X86500Y290000D02*Y288400D01*
Y290000D02*X87887Y290800D01*
X86500Y290000D02*X85113Y290800D01*
X81500Y290000D02*Y288400D01*
Y290000D02*X82887Y290800D01*
X81500Y290000D02*X80113Y290800D01*
X91000Y290000D02*Y288400D01*
Y290000D02*X92387Y290800D01*
X91000Y290000D02*X89613Y290800D01*
X63000Y234000D02*Y232400D01*
Y234000D02*X64387Y234800D01*
X63000Y234000D02*X61613Y234800D01*
X68000Y237500D02*Y235900D01*
Y237500D02*X69387Y238300D01*
X68000Y237500D02*X66613Y238300D01*
X88000Y220000D02*Y218400D01*
Y220000D02*X89387Y220800D01*
X88000Y220000D02*X86613Y220800D01*
X92000Y220000D02*Y218400D01*
Y220000D02*X93387Y220800D01*
X92000Y220000D02*X90613Y220800D01*
X96000Y220000D02*Y218400D01*
Y220000D02*X97387Y220800D01*
X96000Y220000D02*X94613Y220800D01*
X124500Y285500D02*Y283900D01*
Y285500D02*X125887Y286300D01*
X124500Y285500D02*X123113Y286300D01*
X124500Y277500D02*Y275900D01*
Y277500D02*X125887Y278300D01*
X124500Y277500D02*X123113Y278300D01*
X84000Y250000D02*Y248400D01*
Y250000D02*X85387Y250800D01*
X84000Y250000D02*X82613Y250800D01*
X91500Y234000D02*Y232400D01*
Y234000D02*X92887Y234800D01*
X91500Y234000D02*X90113Y234800D01*
X84000Y244000D02*Y242400D01*
Y244000D02*X85387Y244800D01*
X84000Y244000D02*X82613Y244800D01*
X108500Y244500D02*Y242900D01*
Y244500D02*X109887Y245300D01*
X108500Y244500D02*X107113Y245300D01*
X80500Y240000D02*Y238400D01*
Y240000D02*X81887Y240800D01*
X80500Y240000D02*X79113Y240800D01*
X97000Y244500D02*Y242900D01*
Y244500D02*X98387Y245300D01*
X97000Y244500D02*X95613Y245300D01*
X98500Y161500D02*Y159900D01*
Y161500D02*X99887Y162300D01*
X98500Y161500D02*X97113Y162300D01*
X98500Y157500D02*Y155900D01*
Y157500D02*X99887Y158300D01*
X98500Y157500D02*X97113Y158300D01*
X92000Y154000D02*Y152400D01*
Y154000D02*X93387Y154800D01*
X92000Y154000D02*X90613Y154800D01*
X96000Y154000D02*Y152400D01*
Y154000D02*X97387Y154800D01*
X96000Y154000D02*X94613Y154800D01*
X114500Y184500D02*Y182900D01*
Y184500D02*X115887Y185300D01*
X114500Y184500D02*X113113Y185300D01*
X40500Y302500D02*Y300900D01*
Y302500D02*X41887Y303300D01*
X40500Y302500D02*X39113Y303300D01*
X40500Y150000D02*Y148400D01*
Y150000D02*X41887Y150800D01*
X40500Y150000D02*X39113Y150800D01*
X40500Y73500D02*Y71900D01*
Y73500D02*X41887Y74300D01*
X40500Y73500D02*X39113Y74300D01*
X15000Y461250D02*Y459650D01*
Y461250D02*X16387Y462050D01*
X15000Y461250D02*X13613Y462050D01*
X135000Y463500D02*X136500Y460500D01*
X138000Y463500D01*
X136500Y460500D02*Y457500D01*
X139800Y460800D02*X142050D01*
X139800Y457500D02*X142800D01*
X139800Y463500D02*Y457500D01*
Y463500D02*X142800D01*
X147600D02*X148350Y462750D01*
X145350Y463500D02*X147600D01*
X144600Y462750D02*X145350Y463500D01*
X144600Y462750D02*Y461250D01*
X145350Y460500D01*
X147600D01*
X148350Y459750D01*
Y458250D01*
X147600Y457500D02*X148350Y458250D01*
X145350Y457500D02*X147600D01*
X144600Y458250D02*X145350Y457500D01*
X98000Y462300D02*X99200Y463500D01*
Y457500D01*
X98000D02*X100250D01*
X102050Y462300D02*X103250Y463500D01*
Y457500D01*
X102050D02*X104300D01*
X106850D02*X109100Y460500D01*
Y462750D02*Y460500D01*
X108350Y463500D02*X109100Y462750D01*
X106850Y463500D02*X108350D01*
X106100Y462750D02*X106850Y463500D01*
X106100Y462750D02*Y461250D01*
X106850Y460500D01*
X109100D01*
X45000Y458250D02*X45750Y457500D01*
X45000Y462750D02*Y458250D01*
Y462750D02*X45750Y463500D01*
X47250D01*
X48000Y462750D01*
Y458250D01*
X47250Y457500D02*X48000Y458250D01*
X45750Y457500D02*X47250D01*
X45000Y459000D02*X48000Y462000D01*
X49800Y457500D02*X50550D01*
X52350Y458250D02*X53100Y457500D01*
X52350Y462750D02*Y458250D01*
Y462750D02*X53100Y463500D01*
X54600D01*
X55350Y462750D01*
Y458250D01*
X54600Y457500D02*X55350Y458250D01*
X53100Y457500D02*X54600D01*
X52350Y459000D02*X55350Y462000D01*
X57150Y462300D02*X58350Y463500D01*
Y457500D01*
X57150D02*X59400D01*
X61200Y463500D02*X64200D01*
X61200D02*Y460500D01*
X61950Y461250D01*
X63450D01*
X64200Y460500D01*
Y458250D01*
X63450Y457500D02*X64200Y458250D01*
X61950Y457500D02*X63450D01*
X61200Y458250D02*X61950Y457500D01*
X3000Y478500D02*X3750Y477750D01*
X750Y478500D02*X3000D01*
X0Y477750D02*X750Y478500D01*
X0Y477750D02*Y476250D01*
X750Y475500D01*
X3000D01*
X3750Y474750D01*
Y473250D01*
X3000Y472500D02*X3750Y473250D01*
X750Y472500D02*X3000D01*
X0Y473250D02*X750Y472500D01*
X5550Y475500D02*Y473250D01*
X6300Y472500D01*
X8550Y475500D02*Y471000D01*
X7800Y470250D02*X8550Y471000D01*
X6300Y470250D02*X7800D01*
X5550Y471000D02*X6300Y470250D01*
Y472500D02*X7800D01*
X8550Y473250D01*
X11100Y474750D02*Y472500D01*
Y474750D02*X11850Y475500D01*
X12600D01*
X13350Y474750D01*
Y472500D01*
Y474750D02*X14100Y475500D01*
X14850D01*
X15600Y474750D01*
Y472500D01*
X10350Y475500D02*X11100Y474750D01*
X17400Y478500D02*Y472500D01*
Y473250D02*X18150Y472500D01*
X19650D01*
X20400Y473250D01*
Y474750D02*Y473250D01*
X19650Y475500D02*X20400Y474750D01*
X18150Y475500D02*X19650D01*
X17400Y474750D02*X18150Y475500D01*
X22200Y474750D02*Y473250D01*
Y474750D02*X22950Y475500D01*
X24450D01*
X25200Y474750D01*
Y473250D01*
X24450Y472500D02*X25200Y473250D01*
X22950Y472500D02*X24450D01*
X22200Y473250D02*X22950Y472500D01*
X27000Y478500D02*Y473250D01*
X27750Y472500D01*
X0Y469250D02*X29250D01*
X41750Y478500D02*Y472500D01*
X43700Y478500D02*X44750Y477450D01*
Y473550D01*
X43700Y472500D02*X44750Y473550D01*
X41000Y472500D02*X43700D01*
X41000Y478500D02*X43700D01*
G54D66*X46550Y477000D02*Y476850D01*
G54D65*Y474750D02*Y472500D01*
X50300Y475500D02*X51050Y474750D01*
X48800Y475500D02*X50300D01*
X48050Y474750D02*X48800Y475500D01*
X48050Y474750D02*Y473250D01*
X48800Y472500D01*
X51050Y475500D02*Y473250D01*
X51800Y472500D01*
X48800D02*X50300D01*
X51050Y473250D01*
X54350Y474750D02*Y472500D01*
Y474750D02*X55100Y475500D01*
X55850D01*
X56600Y474750D01*
Y472500D01*
Y474750D02*X57350Y475500D01*
X58100D01*
X58850Y474750D01*
Y472500D01*
X53600Y475500D02*X54350Y474750D01*
X60650Y472500D02*X61400D01*
X65900Y473250D02*X66650Y472500D01*
X65900Y477750D02*X66650Y478500D01*
X65900Y477750D02*Y473250D01*
X68450Y478500D02*X69950D01*
X69200D02*Y472500D01*
X68450D02*X69950D01*
X72500Y474750D02*Y472500D01*
Y474750D02*X73250Y475500D01*
X74000D01*
X74750Y474750D01*
Y472500D01*
X71750Y475500D02*X72500Y474750D01*
X77300Y475500D02*X79550D01*
X76550Y474750D02*X77300Y475500D01*
X76550Y474750D02*Y473250D01*
X77300Y472500D01*
X79550D01*
X81350Y478500D02*Y472500D01*
Y474750D02*X82100Y475500D01*
X83600D01*
X84350Y474750D01*
Y472500D01*
X86150Y478500D02*X86900Y477750D01*
Y473250D01*
X86150Y472500D02*X86900Y473250D01*
X41000Y469250D02*X88700D01*
X96050Y472500D02*X98000D01*
X95000Y473550D02*X96050Y472500D01*
X95000Y477450D02*Y473550D01*
Y477450D02*X96050Y478500D01*
X98000D01*
X99800Y474750D02*Y473250D01*
Y474750D02*X100550Y475500D01*
X102050D01*
X102800Y474750D01*
Y473250D01*
X102050Y472500D02*X102800Y473250D01*
X100550Y472500D02*X102050D01*
X99800Y473250D02*X100550Y472500D01*
X104600Y475500D02*Y473250D01*
X105350Y472500D01*
X106850D01*
X107600Y473250D01*
Y475500D02*Y473250D01*
X110150Y474750D02*Y472500D01*
Y474750D02*X110900Y475500D01*
X111650D01*
X112400Y474750D01*
Y472500D01*
X109400Y475500D02*X110150Y474750D01*
X114950Y478500D02*Y473250D01*
X115700Y472500D01*
X114200Y476250D02*X115700D01*
X95000Y469250D02*X117200D01*
X130750Y478500D02*Y472500D01*
X130000Y478500D02*X133000D01*
X133750Y477750D01*
Y476250D01*
X133000Y475500D02*X133750Y476250D01*
X130750Y475500D02*X133000D01*
X135550Y478500D02*Y473250D01*
X136300Y472500D01*
X140050Y475500D02*X140800Y474750D01*
X138550Y475500D02*X140050D01*
X137800Y474750D02*X138550Y475500D01*
X137800Y474750D02*Y473250D01*
X138550Y472500D01*
X140800Y475500D02*Y473250D01*
X141550Y472500D01*
X138550D02*X140050D01*
X140800Y473250D01*
X144100Y478500D02*Y473250D01*
X144850Y472500D01*
X143350Y476250D02*X144850D01*
X147100Y472500D02*X149350D01*
X146350Y473250D02*X147100Y472500D01*
X146350Y474750D02*Y473250D01*
Y474750D02*X147100Y475500D01*
X148600D01*
X149350Y474750D01*
X146350Y474000D02*X149350D01*
Y474750D02*Y474000D01*
X154150Y478500D02*Y472500D01*
X153400D02*X154150Y473250D01*
X151900Y472500D02*X153400D01*
X151150Y473250D02*X151900Y472500D01*
X151150Y474750D02*Y473250D01*
Y474750D02*X151900Y475500D01*
X153400D01*
X154150Y474750D01*
X157450Y475500D02*Y474750D01*
Y473250D02*Y472500D01*
X155950Y477750D02*Y477000D01*
Y477750D02*X156700Y478500D01*
X158200D01*
X158950Y477750D01*
Y477000D01*
X157450Y475500D02*X158950Y477000D01*
X130000Y469250D02*X160750D01*
X0Y493500D02*X3000D01*
X1500D02*Y487500D01*
X4800Y493500D02*Y487500D01*
Y489750D02*X5550Y490500D01*
X7050D01*
X7800Y489750D01*
Y487500D01*
X10350D02*X12600D01*
X9600Y488250D02*X10350Y487500D01*
X9600Y489750D02*Y488250D01*
Y489750D02*X10350Y490500D01*
X11850D01*
X12600Y489750D01*
X9600Y489000D02*X12600D01*
Y489750D02*Y489000D01*
X15150Y489750D02*Y487500D01*
Y489750D02*X15900Y490500D01*
X17400D01*
X14400D02*X15150Y489750D01*
X19950Y487500D02*X22200D01*
X19200Y488250D02*X19950Y487500D01*
X19200Y489750D02*Y488250D01*
Y489750D02*X19950Y490500D01*
X21450D01*
X22200Y489750D01*
X19200Y489000D02*X22200D01*
Y489750D02*Y489000D01*
X28950Y490500D02*X29700Y489750D01*
X27450Y490500D02*X28950D01*
X26700Y489750D02*X27450Y490500D01*
X26700Y489750D02*Y488250D01*
X27450Y487500D01*
X29700Y490500D02*Y488250D01*
X30450Y487500D01*
X27450D02*X28950D01*
X29700Y488250D01*
X33000Y489750D02*Y487500D01*
Y489750D02*X33750Y490500D01*
X35250D01*
X32250D02*X33000Y489750D01*
X37800Y487500D02*X40050D01*
X37050Y488250D02*X37800Y487500D01*
X37050Y489750D02*Y488250D01*
Y489750D02*X37800Y490500D01*
X39300D01*
X40050Y489750D01*
X37050Y489000D02*X40050D01*
Y489750D02*Y489000D01*
X44550Y493500D02*X47550D01*
X44550D02*Y490500D01*
X45300Y491250D01*
X46800D01*
X47550Y490500D01*
Y488250D01*
X46800Y487500D02*X47550Y488250D01*
X45300Y487500D02*X46800D01*
X44550Y488250D02*X45300Y487500D01*
X55050Y493500D02*Y487500D01*
X54300D02*X55050Y488250D01*
X52800Y487500D02*X54300D01*
X52050Y488250D02*X52800Y487500D01*
X52050Y489750D02*Y488250D01*
Y489750D02*X52800Y490500D01*
X54300D01*
X55050Y489750D01*
G54D66*X56850Y492000D02*Y491850D01*
G54D65*Y489750D02*Y487500D01*
X59100Y492750D02*Y487500D01*
Y492750D02*X59850Y493500D01*
X60600D01*
X58350Y490500D02*X59850D01*
X62850Y492750D02*Y487500D01*
Y492750D02*X63600Y493500D01*
X64350D01*
X62100Y490500D02*X63600D01*
X66600Y487500D02*X68850D01*
X65850Y488250D02*X66600Y487500D01*
X65850Y489750D02*Y488250D01*
Y489750D02*X66600Y490500D01*
X68100D01*
X68850Y489750D01*
X65850Y489000D02*X68850D01*
Y489750D02*Y489000D01*
X71400Y489750D02*Y487500D01*
Y489750D02*X72150Y490500D01*
X73650D01*
X70650D02*X71400Y489750D01*
X76200Y487500D02*X78450D01*
X75450Y488250D02*X76200Y487500D01*
X75450Y489750D02*Y488250D01*
Y489750D02*X76200Y490500D01*
X77700D01*
X78450Y489750D01*
X75450Y489000D02*X78450D01*
Y489750D02*Y489000D01*
X81000Y489750D02*Y487500D01*
Y489750D02*X81750Y490500D01*
X82500D01*
X83250Y489750D01*
Y487500D01*
X80250Y490500D02*X81000Y489750D01*
X85800Y493500D02*Y488250D01*
X86550Y487500D01*
X85050Y491250D02*X86550D01*
X93750Y493500D02*Y487500D01*
X93000D02*X93750Y488250D01*
X91500Y487500D02*X93000D01*
X90750Y488250D02*X91500Y487500D01*
X90750Y489750D02*Y488250D01*
Y489750D02*X91500Y490500D01*
X93000D01*
X93750Y489750D01*
X96300D02*Y487500D01*
Y489750D02*X97050Y490500D01*
X98550D01*
X95550D02*X96300Y489750D01*
G54D66*X100350Y492000D02*Y491850D01*
G54D65*Y489750D02*Y487500D01*
X101850Y493500D02*Y488250D01*
X102600Y487500D01*
X104100Y493500D02*Y488250D01*
X104850Y487500D01*
X109800D02*X112050D01*
X112800Y488250D01*
X112050Y489000D02*X112800Y488250D01*
X109800Y489000D02*X112050D01*
X109050Y489750D02*X109800Y489000D01*
X109050Y489750D02*X109800Y490500D01*
X112050D01*
X112800Y489750D01*
X109050Y488250D02*X109800Y487500D01*
G54D66*X114600Y492000D02*Y491850D01*
G54D65*Y489750D02*Y487500D01*
X116100Y490500D02*X119100D01*
X116100Y487500D02*X119100Y490500D01*
X116100Y487500D02*X119100D01*
X121650D02*X123900D01*
X120900Y488250D02*X121650Y487500D01*
X120900Y489750D02*Y488250D01*
Y489750D02*X121650Y490500D01*
X123150D01*
X123900Y489750D01*
X120900Y489000D02*X123900D01*
Y489750D02*Y489000D01*
X126450Y487500D02*X128700D01*
X129450Y488250D01*
X128700Y489000D02*X129450Y488250D01*
X126450Y489000D02*X128700D01*
X125700Y489750D02*X126450Y489000D01*
X125700Y489750D02*X126450Y490500D01*
X128700D01*
X129450Y489750D01*
X125700Y488250D02*X126450Y487500D01*
X133950Y490500D02*Y488250D01*
X134700Y487500D01*
X136200D01*
X136950Y488250D01*
Y490500D02*Y488250D01*
X139500Y487500D02*X141750D01*
X142500Y488250D01*
X141750Y489000D02*X142500Y488250D01*
X139500Y489000D02*X141750D01*
X138750Y489750D02*X139500Y489000D01*
X138750Y489750D02*X139500Y490500D01*
X141750D01*
X142500Y489750D01*
X138750Y488250D02*X139500Y487500D01*
X145050D02*X147300D01*
X144300Y488250D02*X145050Y487500D01*
X144300Y489750D02*Y488250D01*
Y489750D02*X145050Y490500D01*
X146550D01*
X147300Y489750D01*
X144300Y489000D02*X147300D01*
Y489750D02*Y489000D01*
X152100Y493500D02*Y487500D01*
X151350D02*X152100Y488250D01*
X149850Y487500D02*X151350D01*
X149100Y488250D02*X149850Y487500D01*
X149100Y489750D02*Y488250D01*
Y489750D02*X149850Y490500D01*
X151350D01*
X152100Y489750D01*
G54D66*X156600Y492000D02*Y491850D01*
G54D65*Y489750D02*Y487500D01*
X158850Y489750D02*Y487500D01*
Y489750D02*X159600Y490500D01*
X160350D01*
X161100Y489750D01*
Y487500D01*
X158100Y490500D02*X158850Y489750D01*
X166350Y493500D02*Y488250D01*
X167100Y487500D01*
X165600Y491250D02*X167100D01*
X168600Y493500D02*Y487500D01*
Y489750D02*X169350Y490500D01*
X170850D01*
X171600Y489750D01*
Y487500D01*
G54D66*X173400Y492000D02*Y491850D01*
G54D65*Y489750D02*Y487500D01*
X175650D02*X177900D01*
X178650Y488250D01*
X177900Y489000D02*X178650Y488250D01*
X175650Y489000D02*X177900D01*
X174900Y489750D02*X175650Y489000D01*
X174900Y489750D02*X175650Y490500D01*
X177900D01*
X178650Y489750D01*
X174900Y488250D02*X175650Y487500D01*
X183150Y493500D02*Y488250D01*
X183900Y487500D01*
X187650Y490500D02*X188400Y489750D01*
X186150Y490500D02*X187650D01*
X185400Y489750D02*X186150Y490500D01*
X185400Y489750D02*Y488250D01*
X186150Y487500D01*
X188400Y490500D02*Y488250D01*
X189150Y487500D01*
X186150D02*X187650D01*
X188400Y488250D01*
X190950Y490500D02*Y488250D01*
X191700Y487500D01*
X193950Y490500D02*Y486000D01*
X193200Y485250D02*X193950Y486000D01*
X191700Y485250D02*X193200D01*
X190950Y486000D02*X191700Y485250D01*
Y487500D02*X193200D01*
X193950Y488250D01*
X195750Y489750D02*Y488250D01*
Y489750D02*X196500Y490500D01*
X198000D01*
X198750Y489750D01*
Y488250D01*
X198000Y487500D02*X198750Y488250D01*
X196500Y487500D02*X198000D01*
X195750Y488250D02*X196500Y487500D01*
X200550Y490500D02*Y488250D01*
X201300Y487500D01*
X202800D01*
X203550Y488250D01*
Y490500D02*Y488250D01*
X206100Y493500D02*Y488250D01*
X206850Y487500D01*
X205350Y491250D02*X206850D01*
X208350Y486000D02*X209850Y487500D01*
X214350Y492300D02*X215550Y493500D01*
Y487500D01*
X214350D02*X216600D01*
X218400Y493500D02*X221400D01*
X218400D02*Y490500D01*
X219150Y491250D01*
X220650D01*
X221400Y490500D01*
Y488250D01*
X220650Y487500D02*X221400Y488250D01*
X219150Y487500D02*X220650D01*
X218400Y488250D02*X219150Y487500D01*
X223950D02*X226950Y493500D01*
X223200D02*X226950D01*
X231450D02*Y487500D01*
Y489750D02*X232200Y490500D01*
X233700D01*
X234450Y489750D01*
Y487500D01*
X236250Y489750D02*Y488250D01*
Y489750D02*X237000Y490500D01*
X238500D01*
X239250Y489750D01*
Y488250D01*
X238500Y487500D02*X239250Y488250D01*
X237000Y487500D02*X238500D01*
X236250Y488250D02*X237000Y487500D01*
X241050Y493500D02*Y488250D01*
X241800Y487500D01*
X244050D02*X246300D01*
X243300Y488250D02*X244050Y487500D01*
X243300Y489750D02*Y488250D01*
Y489750D02*X244050Y490500D01*
X245550D01*
X246300Y489750D01*
X243300Y489000D02*X246300D01*
Y489750D02*Y489000D01*
X248850Y487500D02*X251100D01*
X251850Y488250D01*
X251100Y489000D02*X251850Y488250D01*
X248850Y489000D02*X251100D01*
X248100Y489750D02*X248850Y489000D01*
X248100Y489750D02*X248850Y490500D01*
X251100D01*
X251850Y489750D01*
X248100Y488250D02*X248850Y487500D01*
X257100Y493500D02*Y488250D01*
X257850Y487500D01*
X256350Y491250D02*X257850D01*
X259350Y489750D02*Y488250D01*
Y489750D02*X260100Y490500D01*
X261600D01*
X262350Y489750D01*
Y488250D01*
X261600Y487500D02*X262350Y488250D01*
X260100Y487500D02*X261600D01*
X259350Y488250D02*X260100Y487500D01*
X264900Y493500D02*Y488250D01*
X265650Y487500D01*
X264150Y491250D02*X265650D01*
X269400Y490500D02*X270150Y489750D01*
X267900Y490500D02*X269400D01*
X267150Y489750D02*X267900Y490500D01*
X267150Y489750D02*Y488250D01*
X267900Y487500D01*
X270150Y490500D02*Y488250D01*
X270900Y487500D01*
X267900D02*X269400D01*
X270150Y488250D01*
X272700Y493500D02*Y488250D01*
X273450Y487500D01*
G54D67*X0Y390000D02*X150000D01*
Y0D01*
X0D01*
Y390000D01*
G54D65*Y-9500D02*X3000D01*
X3750Y-8750D01*
Y-6950D02*Y-8750D01*
X3000Y-6200D02*X3750Y-6950D01*
X750Y-6200D02*X3000D01*
X750Y-3500D02*Y-9500D01*
X0Y-3500D02*X3000D01*
X3750Y-4250D01*
Y-5450D01*
X3000Y-6200D02*X3750Y-5450D01*
X5550Y-7250D02*Y-8750D01*
Y-7250D02*X6300Y-6500D01*
X7800D01*
X8550Y-7250D01*
Y-8750D01*
X7800Y-9500D02*X8550Y-8750D01*
X6300Y-9500D02*X7800D01*
X5550Y-8750D02*X6300Y-9500D01*
X12600Y-6500D02*X13350Y-7250D01*
X11100Y-6500D02*X12600D01*
X10350Y-7250D02*X11100Y-6500D01*
X10350Y-7250D02*Y-8750D01*
X11100Y-9500D01*
X13350Y-6500D02*Y-8750D01*
X14100Y-9500D01*
X11100D02*X12600D01*
X13350Y-8750D01*
X16650Y-7250D02*Y-9500D01*
Y-7250D02*X17400Y-6500D01*
X18900D01*
X15900D02*X16650Y-7250D01*
X23700Y-3500D02*Y-9500D01*
X22950D02*X23700Y-8750D01*
X21450Y-9500D02*X22950D01*
X20700Y-8750D02*X21450Y-9500D01*
X20700Y-7250D02*Y-8750D01*
Y-7250D02*X21450Y-6500D01*
X22950D01*
X23700Y-7250D01*
X28200D02*Y-8750D01*
Y-7250D02*X28950Y-6500D01*
X30450D01*
X31200Y-7250D01*
Y-8750D01*
X30450Y-9500D02*X31200Y-8750D01*
X28950Y-9500D02*X30450D01*
X28200Y-8750D02*X28950Y-9500D01*
X33000Y-6500D02*Y-8750D01*
X33750Y-9500D01*
X35250D01*
X36000Y-8750D01*
Y-6500D02*Y-8750D01*
X38550Y-3500D02*Y-8750D01*
X39300Y-9500D01*
X37800Y-5750D02*X39300D01*
X40800Y-3500D02*Y-8750D01*
X41550Y-9500D01*
G54D66*X43050Y-5000D02*Y-5150D01*
G54D65*Y-7250D02*Y-9500D01*
X45300Y-7250D02*Y-9500D01*
Y-7250D02*X46050Y-6500D01*
X46800D01*
X47550Y-7250D01*
Y-9500D01*
X44550Y-6500D02*X45300Y-7250D01*
X50100Y-9500D02*X52350D01*
X49350Y-8750D02*X50100Y-9500D01*
X49350Y-7250D02*Y-8750D01*
Y-7250D02*X50100Y-6500D01*
X51600D01*
X52350Y-7250D01*
X49350Y-8000D02*X52350D01*
Y-7250D02*Y-8000D01*
G54D66*X56850Y-5000D02*Y-5150D01*
G54D65*Y-7250D02*Y-9500D01*
X59100D02*X61350D01*
X62100Y-8750D01*
X61350Y-8000D02*X62100Y-8750D01*
X59100Y-8000D02*X61350D01*
X58350Y-7250D02*X59100Y-8000D01*
X58350Y-7250D02*X59100Y-6500D01*
X61350D01*
X62100Y-7250D01*
X58350Y-8750D02*X59100Y-9500D01*
X67350Y-3500D02*Y-8750D01*
X68100Y-9500D01*
X66600Y-5750D02*X68100D01*
X69600Y-3500D02*Y-9500D01*
Y-7250D02*X70350Y-6500D01*
X71850D01*
X72600Y-7250D01*
Y-9500D01*
X75150D02*X77400D01*
X74400Y-8750D02*X75150Y-9500D01*
X74400Y-7250D02*Y-8750D01*
Y-7250D02*X75150Y-6500D01*
X76650D01*
X77400Y-7250D01*
X74400Y-8000D02*X77400D01*
Y-7250D02*Y-8000D01*
X82650Y-6500D02*X84900D01*
X81900Y-7250D02*X82650Y-6500D01*
X81900Y-7250D02*Y-8750D01*
X82650Y-9500D01*
X84900D01*
X87450D02*X89700D01*
X86700Y-8750D02*X87450Y-9500D01*
X86700Y-7250D02*Y-8750D01*
Y-7250D02*X87450Y-6500D01*
X88950D01*
X89700Y-7250D01*
X86700Y-8000D02*X89700D01*
Y-7250D02*Y-8000D01*
X92250Y-7250D02*Y-9500D01*
Y-7250D02*X93000Y-6500D01*
X93750D01*
X94500Y-7250D01*
Y-9500D01*
X91500Y-6500D02*X92250Y-7250D01*
X97050Y-3500D02*Y-8750D01*
X97800Y-9500D01*
X96300Y-5750D02*X97800D01*
X100050Y-9500D02*X102300D01*
X99300Y-8750D02*X100050Y-9500D01*
X99300Y-7250D02*Y-8750D01*
Y-7250D02*X100050Y-6500D01*
X101550D01*
X102300Y-7250D01*
X99300Y-8000D02*X102300D01*
Y-7250D02*Y-8000D01*
X104850Y-7250D02*Y-9500D01*
Y-7250D02*X105600Y-6500D01*
X107100D01*
X104100D02*X104850Y-7250D01*
X108900Y-3500D02*Y-8750D01*
X109650Y-9500D01*
G54D66*X111150Y-5000D02*Y-5150D01*
G54D65*Y-7250D02*Y-9500D01*
X113400Y-7250D02*Y-9500D01*
Y-7250D02*X114150Y-6500D01*
X114900D01*
X115650Y-7250D01*
Y-9500D01*
X112650Y-6500D02*X113400Y-7250D01*
X118200Y-9500D02*X120450D01*
X117450Y-8750D02*X118200Y-9500D01*
X117450Y-7250D02*Y-8750D01*
Y-7250D02*X118200Y-6500D01*
X119700D01*
X120450Y-7250D01*
X117450Y-8000D02*X120450D01*
Y-7250D02*Y-8000D01*
X124950Y-7250D02*Y-8750D01*
Y-7250D02*X125700Y-6500D01*
X127200D01*
X127950Y-7250D01*
Y-8750D01*
X127200Y-9500D02*X127950Y-8750D01*
X125700Y-9500D02*X127200D01*
X124950Y-8750D02*X125700Y-9500D01*
X130500Y-4250D02*Y-9500D01*
Y-4250D02*X131250Y-3500D01*
X132000D01*
X129750Y-6500D02*X131250D01*
X136950Y-3500D02*Y-8750D01*
X137700Y-9500D01*
X136200Y-5750D02*X137700D01*
X139200Y-3500D02*Y-9500D01*
Y-7250D02*X139950Y-6500D01*
X141450D01*
X142200Y-7250D01*
Y-9500D01*
G54D66*X144000Y-5000D02*Y-5150D01*
G54D65*Y-7250D02*Y-9500D01*
X146250D02*X148500D01*
X149250Y-8750D01*
X148500Y-8000D02*X149250Y-8750D01*
X146250Y-8000D02*X148500D01*
X145500Y-7250D02*X146250Y-8000D01*
X145500Y-7250D02*X146250Y-6500D01*
X148500D01*
X149250Y-7250D01*
X145500Y-8750D02*X146250Y-9500D01*
X154500Y-7250D02*Y-11750D01*
X153750Y-6500D02*X154500Y-7250D01*
X155250Y-6500D01*
X156750D01*
X157500Y-7250D01*
Y-8750D01*
X156750Y-9500D02*X157500Y-8750D01*
X155250Y-9500D02*X156750D01*
X154500Y-8750D02*X155250Y-9500D01*
X161550Y-6500D02*X162300Y-7250D01*
X160050Y-6500D02*X161550D01*
X159300Y-7250D02*X160050Y-6500D01*
X159300Y-7250D02*Y-8750D01*
X160050Y-9500D01*
X162300Y-6500D02*Y-8750D01*
X163050Y-9500D01*
X160050D02*X161550D01*
X162300Y-8750D01*
X165600Y-3500D02*Y-8750D01*
X166350Y-9500D01*
X164850Y-5750D02*X166350D01*
X167850Y-3500D02*Y-9500D01*
Y-7250D02*X168600Y-6500D01*
X170100D01*
X170850Y-7250D01*
Y-9500D01*
X200750Y418500D02*Y412500D01*
X202700Y418500D02*X203750Y417450D01*
Y413550D01*
X202700Y412500D02*X203750Y413550D01*
X200000Y412500D02*X202700D01*
X200000Y418500D02*X202700D01*
X207800Y415500D02*X208550Y414750D01*
X206300Y415500D02*X207800D01*
X205550Y414750D02*X206300Y415500D01*
X205550Y414750D02*Y413250D01*
X206300Y412500D01*
X208550Y415500D02*Y413250D01*
X209300Y412500D01*
X206300D02*X207800D01*
X208550Y413250D01*
X211850Y418500D02*Y413250D01*
X212600Y412500D01*
X211100Y416250D02*X212600D01*
X214850Y412500D02*X217100D01*
X214100Y413250D02*X214850Y412500D01*
X214100Y414750D02*Y413250D01*
Y414750D02*X214850Y415500D01*
X216350D01*
X217100Y414750D01*
X214100Y414000D02*X217100D01*
Y414750D02*Y414000D01*
X218900Y416250D02*X219650D01*
X218900Y414750D02*X219650D01*
X224150Y418500D02*Y415500D01*
X224900Y412500D01*
X226400Y415500D01*
X227900Y412500D01*
X228650Y415500D01*
Y418500D02*Y415500D01*
X231200Y412500D02*X233450D01*
X230450Y413250D02*X231200Y412500D01*
X230450Y414750D02*Y413250D01*
Y414750D02*X231200Y415500D01*
X232700D01*
X233450Y414750D01*
X230450Y414000D02*X233450D01*
Y414750D02*Y414000D01*
X238250Y418500D02*Y412500D01*
X237500D02*X238250Y413250D01*
X236000Y412500D02*X237500D01*
X235250Y413250D02*X236000Y412500D01*
X235250Y414750D02*Y413250D01*
Y414750D02*X236000Y415500D01*
X237500D01*
X238250Y414750D01*
X242750Y417000D02*Y412500D01*
Y417000D02*X243800Y418500D01*
X245450D01*
X246500Y417000D01*
Y412500D01*
X242750Y415500D02*X246500D01*
X249050Y414750D02*Y410250D01*
X248300Y415500D02*X249050Y414750D01*
X249800Y415500D01*
X251300D01*
X252050Y414750D01*
Y413250D01*
X251300Y412500D02*X252050Y413250D01*
X249800Y412500D02*X251300D01*
X249050Y413250D02*X249800Y412500D01*
X254600Y414750D02*Y412500D01*
Y414750D02*X255350Y415500D01*
X256850D01*
X253850D02*X254600Y414750D01*
X261350Y417750D02*X262100Y418500D01*
X264350D01*
X265100Y417750D01*
Y416250D01*
X261350Y412500D02*X265100Y416250D01*
X261350Y412500D02*X265100D01*
X267650D02*X269900Y415500D01*
Y417750D02*Y415500D01*
X269150Y418500D02*X269900Y417750D01*
X267650Y418500D02*X269150D01*
X266900Y417750D02*X267650Y418500D01*
X266900Y417750D02*Y416250D01*
X267650Y415500D01*
X269900D01*
X274400Y413250D02*X275150Y412500D01*
X274400Y417750D02*Y413250D01*
Y417750D02*X275150Y418500D01*
X276650D01*
X277400Y417750D01*
Y413250D01*
X276650Y412500D02*X277400Y413250D01*
X275150Y412500D02*X276650D01*
X274400Y414000D02*X277400Y417000D01*
X279200Y413250D02*X279950Y412500D01*
X279200Y417750D02*Y413250D01*
Y417750D02*X279950Y418500D01*
X281450D01*
X282200Y417750D01*
Y413250D01*
X281450Y412500D02*X282200Y413250D01*
X279950Y412500D02*X281450D01*
X279200Y414000D02*X282200Y417000D01*
X284000Y416250D02*X284750D01*
X284000Y414750D02*X284750D01*
X286550Y417750D02*X287300Y418500D01*
X289550D01*
X290300Y417750D01*
Y416250D01*
X286550Y412500D02*X290300Y416250D01*
X286550Y412500D02*X290300D01*
X292850D02*X295850Y418500D01*
X292100D02*X295850D01*
X297650Y416250D02*X298400D01*
X297650Y414750D02*X298400D01*
X300200Y417300D02*X301400Y418500D01*
Y412500D01*
X300200D02*X302450D01*
X304250Y413250D02*X305000Y412500D01*
X304250Y414450D02*Y413250D01*
Y414450D02*X305300Y415500D01*
X306200D01*
X307250Y414450D01*
Y413250D01*
X306500Y412500D02*X307250Y413250D01*
X305000Y412500D02*X306500D01*
X304250Y416550D02*X305300Y415500D01*
X304250Y417750D02*Y416550D01*
Y417750D02*X305000Y418500D01*
X306500D01*
X307250Y417750D01*
Y416550D01*
X306200Y415500D02*X307250Y416550D01*
X311750Y417750D02*X312500Y418500D01*
X314750D01*
X315500Y417750D01*
Y416250D01*
X311750Y412500D02*X315500Y416250D01*
X311750Y412500D02*X315500D01*
X317300Y413250D02*X318050Y412500D01*
X317300Y417750D02*Y413250D01*
Y417750D02*X318050Y418500D01*
X319550D01*
X320300Y417750D01*
Y413250D01*
X319550Y412500D02*X320300Y413250D01*
X318050Y412500D02*X319550D01*
X317300Y414000D02*X320300Y417000D01*
X322100Y417750D02*X322850Y418500D01*
X325100D01*
X325850Y417750D01*
Y416250D01*
X322100Y412500D02*X325850Y416250D01*
X322100Y412500D02*X325850D01*
X327650Y413250D02*X328400Y412500D01*
X327650Y417750D02*Y413250D01*
Y417750D02*X328400Y418500D01*
X329900D01*
X330650Y417750D01*
Y413250D01*
X329900Y412500D02*X330650Y413250D01*
X328400Y412500D02*X329900D01*
X327650Y414000D02*X330650Y417000D01*
X335150Y418500D02*Y413250D01*
X335900Y412500D01*
X337400D01*
X338150Y413250D01*
Y418500D02*Y413250D01*
X339950Y418500D02*X342950D01*
X341450D02*Y412500D01*
X345800D02*X347750D01*
X344750Y413550D02*X345800Y412500D01*
X344750Y417450D02*Y413550D01*
Y417450D02*X345800Y418500D01*
X347750D01*
X200000Y432000D02*Y427500D01*
Y432000D02*X201050Y433500D01*
X202700D01*
X203750Y432000D01*
Y427500D01*
X200000Y430500D02*X203750D01*
X205550D02*Y428250D01*
X206300Y427500D01*
X207800D01*
X208550Y428250D01*
Y430500D02*Y428250D01*
X211100Y433500D02*Y428250D01*
X211850Y427500D01*
X210350Y431250D02*X211850D01*
X213350Y433500D02*Y427500D01*
Y429750D02*X214100Y430500D01*
X215600D01*
X216350Y429750D01*
Y427500D01*
X218150Y429750D02*Y428250D01*
Y429750D02*X218900Y430500D01*
X220400D01*
X221150Y429750D01*
Y428250D01*
X220400Y427500D02*X221150Y428250D01*
X218900Y427500D02*X220400D01*
X218150Y428250D02*X218900Y427500D01*
X223700Y429750D02*Y427500D01*
Y429750D02*X224450Y430500D01*
X225950D01*
X222950D02*X223700Y429750D01*
X227750Y431250D02*X228500D01*
X227750Y429750D02*X228500D01*
X233000Y433500D02*Y427500D01*
Y433500D02*X236750Y427500D01*
Y433500D02*Y427500D01*
X240800Y430500D02*X241550Y429750D01*
X239300Y430500D02*X240800D01*
X238550Y429750D02*X239300Y430500D01*
X238550Y429750D02*Y428250D01*
X239300Y427500D01*
X241550Y430500D02*Y428250D01*
X242300Y427500D01*
X239300D02*X240800D01*
X241550Y428250D01*
X244850Y433500D02*Y428250D01*
X245600Y427500D01*
X244100Y431250D02*X245600D01*
X247100Y433500D02*Y427500D01*
Y429750D02*X247850Y430500D01*
X249350D01*
X250100Y429750D01*
Y427500D01*
X254150Y430500D02*X254900Y429750D01*
X252650Y430500D02*X254150D01*
X251900Y429750D02*X252650Y430500D01*
X251900Y429750D02*Y428250D01*
X252650Y427500D01*
X254900Y430500D02*Y428250D01*
X255650Y427500D01*
X252650D02*X254150D01*
X254900Y428250D01*
X258200Y429750D02*Y427500D01*
Y429750D02*X258950Y430500D01*
X259700D01*
X260450Y429750D01*
Y427500D01*
X257450Y430500D02*X258200Y429750D01*
X265700Y433500D02*Y427500D01*
X267650Y433500D02*X268700Y432450D01*
Y428550D01*
X267650Y427500D02*X268700Y428550D01*
X264950Y427500D02*X267650D01*
X264950Y433500D02*X267650D01*
X270500Y427500D02*X271250D01*
X275750Y433500D02*Y427500D01*
X279500Y433500D02*Y427500D01*
X275750Y430500D02*X279500D01*
X281300Y429750D02*Y428250D01*
Y429750D02*X282050Y430500D01*
X283550D01*
X284300Y429750D01*
Y428250D01*
X283550Y427500D02*X284300Y428250D01*
X282050Y427500D02*X283550D01*
X281300Y428250D02*X282050Y427500D01*
X286100Y433500D02*Y428250D01*
X286850Y427500D01*
X289100Y429750D02*Y427500D01*
Y429750D02*X289850Y430500D01*
X290600D01*
X291350Y429750D01*
Y427500D01*
Y429750D02*X292100Y430500D01*
X292850D01*
X293600Y429750D01*
Y427500D01*
X288350Y430500D02*X289100Y429750D01*
X296150Y427500D02*X298400D01*
X295400Y428250D02*X296150Y427500D01*
X295400Y429750D02*Y428250D01*
Y429750D02*X296150Y430500D01*
X297650D01*
X298400Y429750D01*
X295400Y429000D02*X298400D01*
Y429750D02*Y429000D01*
X300950Y427500D02*X303200D01*
X303950Y428250D01*
X303200Y429000D02*X303950Y428250D01*
X300950Y429000D02*X303200D01*
X300200Y429750D02*X300950Y429000D01*
X300200Y429750D02*X300950Y430500D01*
X303200D01*
X303950Y429750D01*
X300200Y428250D02*X300950Y427500D01*
X200000Y448500D02*X203000D01*
X201500D02*Y442500D01*
G54D66*X204800Y447000D02*Y446850D01*
G54D65*Y444750D02*Y442500D01*
X207050Y448500D02*Y443250D01*
X207800Y442500D01*
X206300Y446250D02*X207800D01*
X209300Y448500D02*Y443250D01*
X210050Y442500D01*
X212300D02*X214550D01*
X211550Y443250D02*X212300Y442500D01*
X211550Y444750D02*Y443250D01*
Y444750D02*X212300Y445500D01*
X213800D01*
X214550Y444750D01*
X211550Y444000D02*X214550D01*
Y444750D02*Y444000D01*
X216350Y446250D02*X217100D01*
X216350Y444750D02*X217100D01*
X221600Y443250D02*X222350Y442500D01*
X221600Y447750D02*X222350Y448500D01*
X221600Y447750D02*Y443250D01*
X224150Y445500D02*Y443250D01*
X224900Y442500D01*
X226400D01*
X227150Y443250D01*
Y445500D02*Y443250D01*
X229700Y444750D02*Y442500D01*
Y444750D02*X230450Y445500D01*
X231200D01*
X231950Y444750D01*
Y442500D01*
X228950Y445500D02*X229700Y444750D01*
X233750Y448500D02*Y442500D01*
Y444750D02*X236000Y442500D01*
X233750Y444750D02*X235250Y446250D01*
X238550Y444750D02*Y442500D01*
Y444750D02*X239300Y445500D01*
X240050D01*
X240800Y444750D01*
Y442500D01*
X237800Y445500D02*X238550Y444750D01*
X242600D02*Y443250D01*
Y444750D02*X243350Y445500D01*
X244850D01*
X245600Y444750D01*
Y443250D01*
X244850Y442500D02*X245600Y443250D01*
X243350Y442500D02*X244850D01*
X242600Y443250D02*X243350Y442500D01*
X247400Y445500D02*Y443250D01*
X248150Y442500D01*
X248900D01*
X249650Y443250D01*
Y445500D02*Y443250D01*
X250400Y442500D01*
X251150D01*
X251900Y443250D01*
Y445500D02*Y443250D01*
X254450Y444750D02*Y442500D01*
Y444750D02*X255200Y445500D01*
X255950D01*
X256700Y444750D01*
Y442500D01*
X253700Y445500D02*X254450Y444750D01*
X258500Y448500D02*X259250Y447750D01*
Y443250D01*
X258500Y442500D02*X259250Y443250D01*
X263750Y445500D02*X266750D01*
X271250Y448500D02*Y442500D01*
Y448500D02*X274250D01*
X271250Y445800D02*X273500D01*
X278300Y445500D02*X279050Y444750D01*
X276800Y445500D02*X278300D01*
X276050Y444750D02*X276800Y445500D01*
X276050Y444750D02*Y443250D01*
X276800Y442500D01*
X279050Y445500D02*Y443250D01*
X279800Y442500D01*
X276800D02*X278300D01*
X279050Y443250D01*
X281600Y448500D02*Y442500D01*
Y443250D02*X282350Y442500D01*
X283850D01*
X284600Y443250D01*
Y444750D02*Y443250D01*
X283850Y445500D02*X284600Y444750D01*
X282350Y445500D02*X283850D01*
X281600Y444750D02*X282350Y445500D01*
X287150Y444750D02*Y442500D01*
Y444750D02*X287900Y445500D01*
X289400D01*
X286400D02*X287150Y444750D01*
G54D66*X291200Y447000D02*Y446850D01*
G54D65*Y444750D02*Y442500D01*
X293450Y445500D02*X295700D01*
X292700Y444750D02*X293450Y445500D01*
X292700Y444750D02*Y443250D01*
X293450Y442500D01*
X295700D01*
X299750Y445500D02*X300500Y444750D01*
X298250Y445500D02*X299750D01*
X297500Y444750D02*X298250Y445500D01*
X297500Y444750D02*Y443250D01*
X298250Y442500D01*
X300500Y445500D02*Y443250D01*
X301250Y442500D01*
X298250D02*X299750D01*
X300500Y443250D01*
X303800Y448500D02*Y443250D01*
X304550Y442500D01*
X303050Y446250D02*X304550D01*
G54D66*X306050Y447000D02*Y446850D01*
G54D65*Y444750D02*Y442500D01*
X307550Y444750D02*Y443250D01*
Y444750D02*X308300Y445500D01*
X309800D01*
X310550Y444750D01*
Y443250D01*
X309800Y442500D02*X310550Y443250D01*
X308300Y442500D02*X309800D01*
X307550Y443250D02*X308300Y442500D01*
X313100Y444750D02*Y442500D01*
Y444750D02*X313850Y445500D01*
X314600D01*
X315350Y444750D01*
Y442500D01*
X312350Y445500D02*X313100Y444750D01*
X320600Y448500D02*Y442500D01*
X322550Y448500D02*X323600Y447450D01*
Y443550D01*
X322550Y442500D02*X323600Y443550D01*
X319850Y442500D02*X322550D01*
X319850Y448500D02*X322550D01*
X326150Y444750D02*Y442500D01*
Y444750D02*X326900Y445500D01*
X328400D01*
X325400D02*X326150Y444750D01*
X332450Y445500D02*X333200Y444750D01*
X330950Y445500D02*X332450D01*
X330200Y444750D02*X330950Y445500D01*
X330200Y444750D02*Y443250D01*
X330950Y442500D01*
X333200Y445500D02*Y443250D01*
X333950Y442500D01*
X330950D02*X332450D01*
X333200Y443250D01*
X335750Y445500D02*Y443250D01*
X336500Y442500D01*
X337250D01*
X338000Y443250D01*
Y445500D02*Y443250D01*
X338750Y442500D01*
X339500D01*
X340250Y443250D01*
Y445500D02*Y443250D01*
G54D66*X342050Y447000D02*Y446850D01*
G54D65*Y444750D02*Y442500D01*
X344300Y444750D02*Y442500D01*
Y444750D02*X345050Y445500D01*
X345800D01*
X346550Y444750D01*
Y442500D01*
X343550Y445500D02*X344300Y444750D01*
X350600Y445500D02*X351350Y444750D01*
X349100Y445500D02*X350600D01*
X348350Y444750D02*X349100Y445500D01*
X348350Y444750D02*Y443250D01*
X349100Y442500D01*
X350600D01*
X351350Y443250D01*
X348350Y441000D02*X349100Y440250D01*
X350600D01*
X351350Y441000D01*
Y445500D02*Y441000D01*
M02*
