G04 start of page 7 for group -4063 idx -4063 *
G04 Title: (unknown), componentmask *
G04 Creator: pcb 4.0.2 *
G04 CreationDate: Thu Feb 20 20:43:15 2020 UTC *
G04 For: ndholmes *
G04 Format: Gerber/RS-274X *
G04 PCB-Dimensions (mil): 1500.00 3900.00 *
G04 PCB-Coordinate-Origin: lower left *
%MOIN*%
%FSLAX25Y25*%
%LNTOPMASK*%
%ADD50C,0.0370*%
%ADD49C,0.0600*%
%ADD48C,0.0490*%
%ADD47C,0.0740*%
%ADD46C,0.0860*%
%ADD45C,0.0001*%
%ADD44C,0.2997*%
G54D44*X133000Y373000D03*
X17000D03*
G54D45*G36*
X72027Y370855D02*Y362255D01*
X80627D01*
Y370855D01*
X72027D01*
G37*
G54D46*X62547Y366555D03*
X48768D03*
G54D44*X133500Y16000D03*
X17000Y17000D03*
G54D45*G36*
X45800Y49200D02*Y41800D01*
X53200D01*
Y49200D01*
X45800D01*
G37*
G54D47*X9500Y45500D03*
G54D45*G36*
X21873Y94245D02*Y85645D01*
X30473D01*
Y94245D01*
X21873D01*
G37*
G54D46*X26173Y76165D03*
Y62386D03*
G54D45*G36*
X45800Y339700D02*Y332300D01*
X53200D01*
Y339700D01*
X45800D01*
G37*
G54D47*X9500Y336000D03*
G54D45*G36*
X21873Y323245D02*Y314645D01*
X30473D01*
Y323245D01*
X21873D01*
G37*
G36*
X45800Y278200D02*Y270800D01*
X53200D01*
Y278200D01*
X45800D01*
G37*
G54D47*X9500Y274500D03*
G54D46*X26173Y305165D03*
Y291386D03*
G54D45*G36*
X45800Y263200D02*Y255800D01*
X53200D01*
Y263200D01*
X45800D01*
G37*
G54D47*X9500Y259500D03*
G54D45*G36*
X21873Y246745D02*Y238145D01*
X30473D01*
Y246745D01*
X21873D01*
G37*
G54D48*X91500Y257000D03*
X95500Y237000D03*
X87500D03*
G54D46*X26173Y214886D03*
G54D45*G36*
X21873Y170745D02*Y162145D01*
X30473D01*
Y170745D01*
X21873D01*
G37*
G54D46*X26173Y152665D03*
Y138886D03*
Y228665D03*
G54D45*G36*
X45800Y201200D02*Y193800D01*
X53200D01*
Y201200D01*
X45800D01*
G37*
G54D47*X9500Y197500D03*
G54D45*G36*
X45800Y187200D02*Y179800D01*
X53200D01*
Y187200D01*
X45800D01*
G37*
G54D47*X9500Y183500D03*
G54D45*G36*
X45800Y125700D02*Y118300D01*
X53200D01*
Y125700D01*
X45800D01*
G37*
G54D47*X9500Y122000D03*
G54D45*G36*
X45800Y110700D02*Y103300D01*
X53200D01*
Y110700D01*
X45800D01*
G37*
G54D47*X9500Y107000D03*
G54D45*G36*
X126649Y143075D02*Y140113D01*
X133351D01*
Y143075D01*
X126649D01*
G37*
G36*
Y147012D02*Y144050D01*
X133351D01*
Y147012D01*
X126649D01*
G37*
G36*
Y150950D02*Y147988D01*
X133351D01*
Y150950D01*
X126649D01*
G37*
G36*
Y154887D02*Y151925D01*
X133351D01*
Y154887D01*
X126649D01*
G37*
G36*
X141413Y139138D02*Y133814D01*
X149099D01*
Y139138D01*
X141413D01*
G37*
G36*
Y129186D02*Y123862D01*
X149099D01*
Y129186D01*
X141413D01*
G37*
G36*
X126649Y111075D02*Y108113D01*
X133351D01*
Y111075D01*
X126649D01*
G37*
G36*
Y115012D02*Y112050D01*
X133351D01*
Y115012D01*
X126649D01*
G37*
G36*
Y118950D02*Y115988D01*
X133351D01*
Y118950D01*
X126649D01*
G37*
G36*
Y122887D02*Y119925D01*
X133351D01*
Y122887D01*
X126649D01*
G37*
G36*
X141413Y107138D02*Y101814D01*
X149099D01*
Y107138D01*
X141413D01*
G37*
G36*
X68276Y110912D02*Y108640D01*
X72420D01*
Y110912D01*
X68276D01*
G37*
G36*
Y114062D02*Y111788D01*
X72420D01*
Y114062D01*
X68276D01*
G37*
G36*
Y117212D02*Y114938D01*
X72420D01*
Y117212D01*
X68276D01*
G37*
G36*
Y120360D02*Y118088D01*
X72420D01*
Y120360D01*
X68276D01*
G37*
G36*
X95276Y135912D02*Y133640D01*
X99420D01*
Y135912D01*
X95276D01*
G37*
G36*
X88580D02*Y133640D01*
X92724D01*
Y135912D01*
X88580D01*
G37*
G36*
X95276Y139062D02*Y136788D01*
X99420D01*
Y139062D01*
X95276D01*
G37*
G36*
Y142212D02*Y139938D01*
X99420D01*
Y142212D01*
X95276D01*
G37*
G36*
Y145360D02*Y143088D01*
X99420D01*
Y145360D01*
X95276D01*
G37*
G36*
X88580D02*Y143088D01*
X92724D01*
Y145360D01*
X88580D01*
G37*
G36*
Y142212D02*Y139938D01*
X92724D01*
Y142212D01*
X88580D01*
G37*
G36*
Y139062D02*Y136788D01*
X92724D01*
Y139062D01*
X88580D01*
G37*
G54D49*X83500Y108500D03*
G54D45*G36*
X86500Y111500D02*X83500D01*
Y105500D01*
X86500D01*
Y111500D01*
G37*
G54D49*X90300Y108500D03*
G54D45*G36*
Y111500D02*X87300D01*
Y105500D01*
X90300D01*
Y111500D01*
G37*
G36*
X67402Y96209D02*X61684D01*
Y89705D01*
X67402D01*
Y96209D01*
G37*
G36*
X61580Y120360D02*Y118088D01*
X65724D01*
Y120360D01*
X61580D01*
G37*
G36*
Y117212D02*Y114938D01*
X65724D01*
Y117212D01*
X61580D01*
G37*
G36*
Y114062D02*Y111788D01*
X65724D01*
Y114062D01*
X61580D01*
G37*
G36*
Y110912D02*Y108640D01*
X65724D01*
Y110912D01*
X61580D01*
G37*
G36*
X67816Y44252D02*X62098D01*
Y37748D01*
X67816D01*
Y44252D01*
G37*
G36*
X74902D02*X69184D01*
Y37748D01*
X74902D01*
Y44252D01*
G37*
G36*
X67402Y61752D02*X61684D01*
Y55248D01*
X67402D01*
Y61752D01*
G37*
G36*
X60316D02*X54598D01*
Y55248D01*
X60316D01*
Y61752D01*
G37*
G36*
Y96209D02*X54598D01*
Y89705D01*
X60316D01*
Y96209D01*
G37*
G36*
X52700Y73500D02*Y70500D01*
X57300D01*
Y73500D01*
X52700D01*
G37*
G36*
Y77400D02*Y74400D01*
X57300D01*
Y77400D01*
X52700D01*
G37*
G36*
Y81300D02*Y78300D01*
X57300D01*
Y81300D01*
X52700D01*
G37*
G36*
X44500D02*Y78300D01*
X49100D01*
Y81300D01*
X44500D01*
G37*
G36*
Y77400D02*Y74400D01*
X49100D01*
Y77400D01*
X44500D01*
G37*
G36*
Y73500D02*Y70500D01*
X49100D01*
Y73500D01*
X44500D01*
G37*
G36*
X126649Y47075D02*Y44113D01*
X133351D01*
Y47075D01*
X126649D01*
G37*
G36*
X141413Y43138D02*Y37814D01*
X149099D01*
Y43138D01*
X141413D01*
G37*
G36*
X126649Y51012D02*Y48050D01*
X133351D01*
Y51012D01*
X126649D01*
G37*
G36*
Y54950D02*Y51988D01*
X133351D01*
Y54950D01*
X126649D01*
G37*
G36*
Y58887D02*Y55925D01*
X133351D01*
Y58887D01*
X126649D01*
G37*
G36*
X141413Y65186D02*Y59862D01*
X149099D01*
Y65186D01*
X141413D01*
G37*
G36*
X126649Y79075D02*Y76113D01*
X133351D01*
Y79075D01*
X126649D01*
G37*
G36*
X141413Y75138D02*Y69814D01*
X149099D01*
Y75138D01*
X141413D01*
G37*
G36*
X126649Y83012D02*Y80050D01*
X133351D01*
Y83012D01*
X126649D01*
G37*
G36*
Y86950D02*Y83988D01*
X133351D01*
Y86950D01*
X126649D01*
G37*
G36*
Y90887D02*Y87925D01*
X133351D01*
Y90887D01*
X126649D01*
G37*
G36*
X141413Y97186D02*Y91862D01*
X149099D01*
Y97186D01*
X141413D01*
G37*
G36*
X60273Y138252D02*X54555D01*
Y131748D01*
X60273D01*
Y138252D01*
G37*
G36*
Y172752D02*X54555D01*
Y166248D01*
X60273D01*
Y172752D01*
G37*
G36*
X52700Y150000D02*Y147000D01*
X57300D01*
Y150000D01*
X52700D01*
G37*
G36*
Y153900D02*Y150900D01*
X57300D01*
Y153900D01*
X52700D01*
G37*
G36*
Y157800D02*Y154800D01*
X57300D01*
Y157800D01*
X52700D01*
G37*
G36*
X44500D02*Y154800D01*
X49100D01*
Y157800D01*
X44500D01*
G37*
G36*
Y153900D02*Y150900D01*
X49100D01*
Y153900D01*
X44500D01*
G37*
G36*
Y150000D02*Y147000D01*
X49100D01*
Y150000D01*
X44500D01*
G37*
G36*
X74248Y143402D02*Y137684D01*
X80752D01*
Y143402D01*
X74248D01*
G37*
G36*
Y136316D02*Y130598D01*
X80752D01*
Y136316D01*
X74248D01*
G37*
G36*
X67359Y138252D02*X61641D01*
Y131748D01*
X67359D01*
Y138252D01*
G37*
G36*
Y172752D02*X61641D01*
Y166248D01*
X67359D01*
Y172752D01*
G37*
G36*
X88402Y163209D02*X82684D01*
Y156705D01*
X88402D01*
Y163209D01*
G37*
G36*
X95488D02*X89770D01*
Y156705D01*
X95488D01*
Y163209D01*
G37*
G36*
X83816Y44252D02*X78098D01*
Y37748D01*
X83816D01*
Y44252D01*
G37*
G36*
X90902D02*X85184D01*
Y37748D01*
X90902D01*
Y44252D01*
G37*
G36*
X95080Y61860D02*Y59588D01*
X99224D01*
Y61860D01*
X95080D01*
G37*
G36*
Y58712D02*Y56438D01*
X99224D01*
Y58712D01*
X95080D01*
G37*
G36*
Y55562D02*Y53288D01*
X99224D01*
Y55562D01*
X95080D01*
G37*
G36*
Y52412D02*Y50140D01*
X99224D01*
Y52412D01*
X95080D01*
G37*
G36*
X101776D02*Y50140D01*
X105920D01*
Y52412D01*
X101776D01*
G37*
G36*
Y55562D02*Y53288D01*
X105920D01*
Y55562D01*
X101776D01*
G37*
G36*
Y58712D02*Y56438D01*
X105920D01*
Y58712D01*
X101776D01*
G37*
G36*
Y61860D02*Y59588D01*
X105920D01*
Y61860D01*
X101776D01*
G37*
G36*
X67402Y290252D02*X61684D01*
Y283748D01*
X67402D01*
Y290252D01*
G37*
G36*
X60316D02*X54598D01*
Y283748D01*
X60316D01*
Y290252D01*
G37*
G36*
X67359Y325252D02*X61641D01*
Y318748D01*
X67359D01*
Y325252D01*
G37*
G36*
X52700Y302500D02*Y299500D01*
X57300D01*
Y302500D01*
X52700D01*
G37*
G36*
Y306400D02*Y303400D01*
X57300D01*
Y306400D01*
X52700D01*
G37*
G36*
Y310300D02*Y307300D01*
X57300D01*
Y310300D01*
X52700D01*
G37*
G36*
X60273Y325252D02*X54555D01*
Y318748D01*
X60273D01*
Y325252D01*
G37*
G36*
X44500Y310300D02*Y307300D01*
X49100D01*
Y310300D01*
X44500D01*
G37*
G36*
Y306400D02*Y303400D01*
X49100D01*
Y306400D01*
X44500D01*
G37*
G36*
Y302500D02*Y299500D01*
X49100D01*
Y302500D01*
X44500D01*
G37*
G36*
X61580Y269712D02*Y267438D01*
X65724D01*
Y269712D01*
X61580D01*
G37*
G36*
X68276D02*Y267438D01*
X72420D01*
Y269712D01*
X68276D01*
G37*
G36*
X61580Y266562D02*Y264288D01*
X65724D01*
Y266562D01*
X61580D01*
G37*
G36*
Y263412D02*Y261140D01*
X65724D01*
Y263412D01*
X61580D01*
G37*
G36*
X68276D02*Y261140D01*
X72420D01*
Y263412D01*
X68276D01*
G37*
G36*
Y266562D02*Y264288D01*
X72420D01*
Y266562D01*
X68276D01*
G37*
G54D50*X89000Y252000D03*
X94000D03*
X89000Y247000D03*
X94000D03*
X89000Y242000D03*
X94000D03*
G54D45*G36*
X126649Y271075D02*Y268113D01*
X133351D01*
Y271075D01*
X126649D01*
G37*
G36*
Y275012D02*Y272050D01*
X133351D01*
Y275012D01*
X126649D01*
G37*
G36*
Y278950D02*Y275988D01*
X133351D01*
Y278950D01*
X126649D01*
G37*
G36*
Y282887D02*Y279925D01*
X133351D01*
Y282887D01*
X126649D01*
G37*
G36*
Y243012D02*Y240050D01*
X133351D01*
Y243012D01*
X126649D01*
G37*
G36*
Y246950D02*Y243988D01*
X133351D01*
Y246950D01*
X126649D01*
G37*
G36*
Y250887D02*Y247925D01*
X133351D01*
Y250887D01*
X126649D01*
G37*
G36*
X141413Y257186D02*Y251862D01*
X149099D01*
Y257186D01*
X141413D01*
G37*
G36*
X146402Y347252D02*X140684D01*
Y340748D01*
X146402D01*
Y347252D01*
G37*
G36*
X139316D02*X133598D01*
Y340748D01*
X139316D01*
Y347252D01*
G37*
G36*
X137700Y325284D02*Y320904D01*
X146174D01*
Y325284D01*
X137700D01*
G37*
G36*
Y337096D02*Y332716D01*
X146174D01*
Y337096D01*
X137700D01*
G37*
G36*
X134454Y316114D02*X128736D01*
Y304886D01*
X134454D01*
Y316114D01*
G37*
G36*
X129984Y331190D02*Y326810D01*
X146174D01*
Y331190D01*
X129984D01*
G37*
G36*
X123525Y334025D02*Y323975D01*
X135465D01*
Y334025D01*
X123525D01*
G37*
G36*
X138429Y327115D02*X136585Y328959D01*
X133321Y325695D01*
X135165Y323851D01*
X138429Y327115D01*
G37*
G36*
X135165Y334149D02*X133321Y332305D01*
X136585Y329041D01*
X138429Y330885D01*
X135165Y334149D01*
G37*
G36*
X141413Y267138D02*Y261814D01*
X149099D01*
Y267138D01*
X141413D01*
G37*
G36*
Y289186D02*Y283862D01*
X149099D01*
Y289186D01*
X141413D01*
G37*
G36*
X146264Y316114D02*X140546D01*
Y304886D01*
X146264D01*
Y316114D01*
G37*
G36*
X61580Y272860D02*Y270588D01*
X65724D01*
Y272860D01*
X61580D01*
G37*
G36*
X68276D02*Y270588D01*
X72420D01*
Y272860D01*
X68276D01*
G37*
G36*
X104080Y300360D02*Y298088D01*
X108223D01*
Y300360D01*
X104080D01*
G37*
G36*
Y297212D02*Y294938D01*
X108223D01*
Y297212D01*
X104080D01*
G37*
G36*
X91450Y366550D02*Y360450D01*
X99550D01*
Y366550D01*
X91450D01*
G37*
G36*
Y379550D02*Y373450D01*
X99550D01*
Y379550D01*
X91450D01*
G37*
G36*
X104080Y294062D02*Y291788D01*
X108223D01*
Y294062D01*
X104080D01*
G37*
G36*
Y290912D02*Y288640D01*
X108223D01*
Y290912D01*
X104080D01*
G37*
G36*
X110777D02*Y288640D01*
X114920D01*
Y290912D01*
X110777D01*
G37*
G36*
Y294062D02*Y291788D01*
X114920D01*
Y294062D01*
X110777D01*
G37*
G36*
Y297212D02*Y294938D01*
X114920D01*
Y297212D01*
X110777D01*
G37*
G36*
Y300360D02*Y298088D01*
X114920D01*
Y300360D01*
X110777D01*
G37*
G36*
X89751Y285200D02*Y279900D01*
X95052D01*
Y285200D01*
X89751D01*
G37*
G36*
X81950D02*Y279900D01*
X87251D01*
Y285200D01*
X81950D01*
G37*
G36*
X85050Y273200D02*Y266300D01*
X91951D01*
Y273200D01*
X85050D01*
G37*
G36*
X67402Y248752D02*X61684D01*
Y242248D01*
X67402D01*
Y248752D01*
G37*
G36*
X60316D02*X54598D01*
Y242248D01*
X60316D01*
Y248752D01*
G37*
G36*
X52900Y226100D02*Y223100D01*
X57500D01*
Y226100D01*
X52900D01*
G37*
G36*
Y230000D02*Y227000D01*
X57500D01*
Y230000D01*
X52900D01*
G37*
G36*
Y233900D02*Y230900D01*
X57500D01*
Y233900D01*
X52900D01*
G37*
G36*
X44700D02*Y230900D01*
X49300D01*
Y233900D01*
X44700D01*
G37*
G36*
Y230000D02*Y227000D01*
X49300D01*
Y230000D01*
X44700D01*
G37*
G36*
Y226100D02*Y223100D01*
X49300D01*
Y226100D01*
X44700D01*
G37*
G36*
X67402Y214252D02*X61684D01*
Y207748D01*
X67402D01*
Y214252D01*
G37*
G36*
X60316D02*X54598D01*
Y207748D01*
X60316D01*
Y214252D01*
G37*
G36*
X97902Y229252D02*X92184D01*
Y222748D01*
X97902D01*
Y229252D01*
G37*
G36*
X90816D02*X85098D01*
Y222748D01*
X90816D01*
Y229252D01*
G37*
G36*
X89862Y211429D02*X87988D01*
Y205129D01*
X89862D01*
Y211429D01*
G37*
G36*
X86712D02*X84838D01*
Y205129D01*
X86712D01*
Y211429D01*
G37*
G36*
X83563D02*X81689D01*
Y205129D01*
X83563D01*
Y211429D01*
G37*
G36*
X80413D02*X78539D01*
Y205129D01*
X80413D01*
Y211429D01*
G37*
G36*
X141413Y161186D02*Y155862D01*
X149099D01*
Y161186D01*
X141413D01*
G37*
G36*
Y225186D02*Y219862D01*
X149099D01*
Y225186D01*
X141413D01*
G37*
G36*
Y235138D02*Y229814D01*
X149099D01*
Y235138D01*
X141413D01*
G37*
G36*
Y171138D02*Y165814D01*
X149099D01*
Y171138D01*
X141413D01*
G37*
G36*
Y193186D02*Y187862D01*
X149099D01*
Y193186D01*
X141413D01*
G37*
G36*
X126649Y214950D02*Y211988D01*
X133351D01*
Y214950D01*
X126649D01*
G37*
G36*
Y218887D02*Y215925D01*
X133351D01*
Y218887D01*
X126649D01*
G37*
G36*
Y239075D02*Y236113D01*
X133351D01*
Y239075D01*
X126649D01*
G37*
G36*
X141413Y203138D02*Y197814D01*
X149099D01*
Y203138D01*
X141413D01*
G37*
G36*
X126649Y207075D02*Y204113D01*
X133351D01*
Y207075D01*
X126649D01*
G37*
G36*
Y211012D02*Y208050D01*
X133351D01*
Y211012D01*
X126649D01*
G37*
G36*
Y175075D02*Y172113D01*
X133351D01*
Y175075D01*
X126649D01*
G37*
G36*
Y179012D02*Y176050D01*
X133351D01*
Y179012D01*
X126649D01*
G37*
G36*
Y182950D02*Y179988D01*
X133351D01*
Y182950D01*
X126649D01*
G37*
G36*
Y186887D02*Y183925D01*
X133351D01*
Y186887D01*
X126649D01*
G37*
G36*
X80414Y173871D02*X78540D01*
Y167571D01*
X80414D01*
Y173871D01*
G37*
G36*
X83563D02*X81689D01*
Y167571D01*
X83563D01*
Y173871D01*
G37*
G36*
X86713D02*X84839D01*
Y167571D01*
X86713D01*
Y173871D01*
G37*
G36*
X89862D02*X87988D01*
Y167571D01*
X89862D01*
Y173871D01*
G37*
G36*
X93012D02*X91138D01*
Y167571D01*
X93012D01*
Y173871D01*
G37*
G36*
X96162D02*X94288D01*
Y167571D01*
X96162D01*
Y173871D01*
G37*
G36*
X99311D02*X97437D01*
Y167571D01*
X99311D01*
Y173871D01*
G37*
G36*
X102461D02*X100587D01*
Y167571D01*
X102461D01*
Y173871D01*
G37*
G36*
X106129Y179414D02*Y177540D01*
X112429D01*
Y179414D01*
X106129D01*
G37*
G36*
Y182563D02*Y180689D01*
X112429D01*
Y182563D01*
X106129D01*
G37*
G36*
Y185713D02*Y183839D01*
X112429D01*
Y185713D01*
X106129D01*
G37*
G36*
Y188862D02*Y186988D01*
X112429D01*
Y188862D01*
X106129D01*
G37*
G36*
Y192012D02*Y190138D01*
X112429D01*
Y192012D01*
X106129D01*
G37*
G36*
Y195162D02*Y193288D01*
X112429D01*
Y195162D01*
X106129D01*
G37*
G36*
Y198311D02*Y196437D01*
X112429D01*
Y198311D01*
X106129D01*
G37*
G36*
Y201461D02*Y199587D01*
X112429D01*
Y201461D01*
X106129D01*
G37*
G36*
X102460Y211429D02*X100586D01*
Y205129D01*
X102460D01*
Y211429D01*
G37*
G36*
X99311D02*X97437D01*
Y205129D01*
X99311D01*
Y211429D01*
G37*
G36*
X96161D02*X94287D01*
Y205129D01*
X96161D01*
Y211429D01*
G37*
G36*
X93012D02*X91138D01*
Y205129D01*
X93012D01*
Y211429D01*
G37*
G36*
X68571Y201460D02*Y199586D01*
X74871D01*
Y201460D01*
X68571D01*
G37*
G36*
Y198311D02*Y196437D01*
X74871D01*
Y198311D01*
X68571D01*
G37*
G36*
Y195161D02*Y193287D01*
X74871D01*
Y195161D01*
X68571D01*
G37*
G36*
Y192012D02*Y190138D01*
X74871D01*
Y192012D01*
X68571D01*
G37*
G36*
Y188862D02*Y186988D01*
X74871D01*
Y188862D01*
X68571D01*
G37*
G36*
Y185712D02*Y183838D01*
X74871D01*
Y185712D01*
X68571D01*
G37*
G36*
Y182563D02*Y180689D01*
X74871D01*
Y182563D01*
X68571D01*
G37*
G36*
Y179413D02*Y177539D01*
X74871D01*
Y179413D01*
X68571D01*
G37*
M02*
